<svg xmlns="http://www.w3.org/2000/svg" viewBox="0 0 582 367"><path fill="#073B51" d="M0 53h582v316H0z"/><path fill="#FFD816" d="M582 0v53H0V0h582zM186.6 198.2h-133v29h133v-11.5h330.5v-6H186.6v-11.5z"/><g fill="#073B51"><path d="M65.6 207.5h6.8v2h-4.6v2.3h4v2h-4v2.3h4.7v2h-6.8v-10.6zM74 214v-6.4h2.2v6.4c0 1.5.7 2.2 1.8 2.2s1.8-.7 1.8-2.2v-6.5H82v6.4c0 2.9-1.6 4.3-4 4.3s-4-1.4-4-4.2zM84 207.5h3.9c1.2 0 2.2.3 2.9 1 .6.6.9 1.4.9 2.4v.1c0 1.6-.8 2.6-1.9 3.1L92 218h-2.5l-1.9-3.4h-1.4v3.4H84v-10.5zm3.8 5.2c1.1 0 1.7-.6 1.7-1.6s-.6-1.6-1.8-1.6h-1.6v3.2h1.7zM97.6 206.2h1.8l-5.6 13.6H92l5.6-13.6zM100.2 214v-6.4h2.2v6.4c0 1.5.7 2.2 1.8 2.2s1.8-.7 1.8-2.2v-6.5h2.2v6.4c0 2.9-1.6 4.3-4 4.3s-4-1.4-4-4.2zM109.4 216.6l1.3-1.6c.7.6 1.6 1.2 2.6 1.2.8 0 1.3-.4 1.3-1 0-.5-.3-.9-1.8-1.4-1.9-.7-3-1.4-3-3.2 0-1.8 1.4-3.1 3.4-3.1 1.2 0 2.4.4 3.4 1.3l-1.2 1.6c-.7-.5-1.4-1-2.2-1-.8 0-1.2.4-1.2.9 0 .6.4.9 2 1.6 1.8.7 2.8 1.5 2.8 3.1 0 2-1.5 3.1-3.5 3.1-1.3.1-2.7-.4-3.9-1.5zM118.4 207.5h3.4c3 0 5 2.1 5 5.2v.1c0 3.1-2 5.2-5 5.2h-3.4v-10.5zm2.2 2v6.6h1.2c1.6 0 2.8-1.2 2.8-3.2v-.1c0-2.1-1.1-3.3-2.8-3.3h-1.2zM136.5 208.7l-1.7.6-.2-1 2.2-.8h.8V218h-1.1v-9.3zM140 216.5h1.4v1.5H140v-1.5zM142.9 212.9v-.1c0-3.2 1.5-5.4 3.8-5.4s3.8 2.2 3.8 5.3v.1c0 3.2-1.5 5.4-3.8 5.4-2.4 0-3.8-2.2-3.8-5.3zm6.4 0v-.1c0-2.5-1.1-4.3-2.7-4.3s-2.6 1.8-2.6 4.3v.1c0 2.5 1 4.3 2.7 4.3s2.6-1.8 2.6-4.3zM156.7 208.6h-4.9v-1.1h6.1v.9l-4 9.6h-1.2l4-9.4zM163 215.6h-4.8l-.2-.8 5.1-7.3h1v7.2h1.4v.9H164v2.4h-1v-2.4zm0-.9v-5.4l-3.8 5.4h3.8zM166.7 216.9l.7-.8c.7.7 1.5 1.1 2.4 1.1 1.3 0 2.3-1 2.3-2.4s-1-2.2-2.3-2.2c-.8 0-1.3.2-1.8.5l-.7-.5.3-5h5.3v1.1h-4.3l-.2 3.3c.5-.2 1-.4 1.7-.4 1.8 0 3.2 1.1 3.2 3.2 0 2-1.5 3.4-3.4 3.4-1.3 0-2.4-.5-3.2-1.3z"/></g><g fill="#FFF"><path d="M112.3 127.2l1.5-1.8c1.9 1.7 3.8 2.8 6.3 2.8 2.7 0 4.5-1.6 4.5-3.8 0-1.9-.9-3-5-4.5-4.6-1.7-6.5-3.4-6.5-6.6v-.1c0-3.4 2.8-5.9 6.8-5.9 2.6 0 4.7.8 6.7 2.5l-1.4 1.9c-1.7-1.4-3.4-2.2-5.4-2.2-2.6 0-4.2 1.6-4.2 3.5v.1c0 2 1 3.1 5.2 4.6 4.5 1.7 6.2 3.5 6.2 6.5v.1c0 3.6-2.9 6.1-6.9 6.1-3-.1-5.5-1.1-7.8-3.2zM130 121.8v-.2c0-5.1 3-8.6 6.9-8.6 4.2 0 6.7 3.6 6.7 8.6v1h-11.2c.3 3.7 2.5 5.7 5.2 5.7 1.8 0 3.2-.8 4.3-1.9l1.3 1.5c-1.5 1.5-3.2 2.5-5.7 2.5-4.1 0-7.5-3.3-7.5-8.6zm11.3-1c-.2-3.2-1.7-5.8-4.4-5.8-2.5 0-4.3 2.3-4.5 5.8h8.9zM147.5 106.9h2.3V130h-2.3v-23.1zM154.9 106.9h2.3V130h-2.3v-23.1zM170.8 107.6h2.4v20.2h10.4v2.2h-12.8v-22.4zM187.1 107.2h2.6v2.7h-2.6v-2.7zm.2 6.1h2.3V130h-2.3v-16.7zM194.5 113.3h2.3v2.7c.9-1.6 2.3-3 4.7-3 2.2 0 3.8 1.2 4.6 3 1-1.6 2.6-3 5.1-3 3.2 0 5.3 2.2 5.3 6.1V130h-2.3v-10.3c0-3-1.3-4.6-3.6-4.6-2.2 0-3.9 1.7-3.9 4.7V130h-2.3v-10.3c0-3-1.3-4.6-3.6-4.6-2.2 0-3.9 2-3.9 4.8V130h-2.3v-16.7zM221.1 107.2h2.6v2.7h-2.6v-2.7zm.2 6.1h2.3V130h-2.3v-16.7zM229.2 126.1v-10.8h-2v-2h2v-4.9h2.3v4.9h4.4v2h-4.4v10.4c0 1.8 1 2.4 2.4 2.4.6 0 1.3-.2 2-.4v2c-.7.4-1.5.6-2.5.6-2.4 0-4.2-1.2-4.2-4.2z"/></g><g fill="#FFF"><path d="M109.8 256.6h7.6c2.4 0 4.3.7 5.5 1.9.9.9 1.5 2.2 1.5 3.7v.1c0 3-1.8 4.5-3.7 5.2 2.6.8 4.6 2.3 4.6 5.4v.1c0 3.8-3.1 6-7.8 6h-7.7v-22.4zm12.1 5.9c0-2.3-1.7-3.7-4.7-3.7h-5.1v7.9h4.8c3.1-.1 5-1.5 5-4.2zm-4.6 6.3h-5.2v8.1h5.4c3.2 0 5.3-1.5 5.3-4v-.1c.1-2.6-1.9-4-5.5-4zM129 273.3v-10.9h2.3v10.3c0 3 1.4 4.6 3.8 4.6s4.2-1.9 4.2-4.7v-10.2h2.3V279h-2.3v-2.7c-.9 1.7-2.4 3-4.9 3-3.4 0-5.4-2.3-5.4-6zM157 262.3h2.5l-5.9 17c-1.2 3.5-2.6 4.6-4.9 4.6-1.1 0-2-.3-3-.8l.7-1.9c.6.4 1.3.6 2.2.6 1.2 0 2-.7 2.9-2.8l-6.4-16.7h2.5l5 13.7 4.4-13.7zM171.4 256.6h2.4v20.2h10.4v2.2h-12.8v-22.4zM187.8 256.2h2.6v2.7h-2.6v-2.7zm.1 6.1h2.3V279h-2.3v-16.7zM195.1 262.3h2.3v2.7c.9-1.6 2.3-3 4.7-3 2.2 0 3.8 1.2 4.6 3 1-1.6 2.6-3 5.1-3 3.2 0 5.3 2.2 5.3 6.1V279h-2.3v-10.3c0-3-1.3-4.6-3.6-4.6-2.2 0-3.9 1.7-3.9 4.7V279H205v-10.3c0-3-1.3-4.6-3.6-4.6-2.2 0-3.9 2-3.9 4.8V279h-2.3v-16.7zM221.8 256.2h2.6v2.7h-2.6v-2.7zm.1 6.1h2.3V279h-2.3v-16.7zM229.9 275.1v-10.8h-2v-2h2v-4.9h2.3v4.9h4.4v2h-4.4v10.4c0 1.8 1 2.4 2.4 2.4.6 0 1.3-.2 2-.4v2c-.7.4-1.5.6-2.5.6-2.4 0-4.2-1.2-4.2-4.2z"/></g><g fill="#FFF"><path d="M309.5 113.3h1.3l4.8 12.7h-1.4l-1.2-3.3h-5.7L306 126h-1.4l4.9-12.7zm3 8.2l-2.4-6.4-2.4 6.4h4.8zM321.3 124.8l.7-1c.9.7 1.8 1.1 2.7 1.1 1 0 1.7-.6 1.7-1.5 0-.8-.8-1.3-2-1.8-1.5-.6-2.7-1.2-2.7-2.7 0-1.5 1.2-2.6 2.9-2.6 1.1 0 2.2.4 3 1l-.6 1c-.7-.5-1.5-.9-2.4-.9-1 0-1.6.6-1.6 1.3 0 .8.8 1.2 2.1 1.7 1.5.7 2.6 1.3 2.6 2.8 0 1.7-1.4 2.7-3 2.7-1.1.3-2.4-.2-3.4-1.1zM329.4 121.4c0-3 1.7-5 3.9-5 2.4 0 3.8 2 3.8 4.8v.5h-6.3c.1 2.1 1.4 3.2 2.9 3.2 1 0 1.8-.4 2.4-1.1l.7.8c-.8.9-1.8 1.4-3.2 1.4-2.3.2-4.2-1.6-4.2-4.6zm6.3-.6c-.1-1.8-.9-3.2-2.5-3.2-1.4 0-2.4 1.3-2.6 3.2h5.1zM339.2 113h1.3v13h-1.3v-13zM343.4 113h1.3v13h-1.3v-13zM352.2 113h1.3v13h-1.3v-13zM356.3 113.2h1.4v1.5h-1.4v-1.5zm.1 3.4h1.3v9.4h-1.3v-9.4zM360.5 116.6h1.3v1.5c.5-.9 1.3-1.7 2.6-1.7s2.1.7 2.6 1.7c.6-.9 1.4-1.7 2.9-1.7 1.8 0 3 1.3 3 3.4v6.1h-1.3v-5.8c0-1.7-.8-2.6-2-2.6s-2.2 1-2.2 2.7v5.7H366v-5.8c0-1.7-.8-2.6-2-2.6-1.3 0-2.2 1.1-2.2 2.7v5.7h-1.3v-9.3zM375.5 113.2h1.4v1.5h-1.4v-1.5zm0 3.4h1.3v9.4h-1.3v-9.4zM380 123.8v-6h-1.1v-1.2h1.1v-2.7h1.3v2.7h2.4v1.2h-2.4v5.8c0 1 .5 1.4 1.4 1.4.4 0 .7-.1 1.1-.3v1.1c-.4.2-.9.3-1.4.3-1.4 0-2.4-.6-2.4-2.3zM390 121.4v-.1c0-2.7 1.8-4.8 4.2-4.8 2.4 0 4.2 2.1 4.2 4.8v.1c0 2.7-1.8 4.8-4.2 4.8-2.4 0-4.2-2.1-4.2-4.8zm7 0c0-2.2-1.3-3.8-2.9-3.8-1.7 0-2.8 1.6-2.8 3.7v.1c0 2.1 1.2 3.7 2.8 3.7 1.8-.1 2.9-1.7 2.9-3.7zM400.5 116.6h1.3v2.1c.6-1.3 1.7-2.3 3.2-2.2v1.4c-1.7 0-3.2 1.2-3.2 3.6v4.5h-1.3v-9.4zM406 121.4v-.2c0-3.1 1.8-4.8 3.7-4.8 1.5 0 2.4.9 3 1.9V113h1.3v13h-1.3v-1.8c-.6 1.1-1.6 2-3 2-1.9 0-3.7-1.7-3.7-4.8zm6.8 0v-.2c0-2.2-1.4-3.6-2.8-3.6-1.5 0-2.7 1.3-2.7 3.6v.1c0 2.3 1.2 3.6 2.7 3.6 1.5.1 2.8-1.3 2.8-3.5zM416.2 121.4c0-3 1.7-5 3.9-5 2.4 0 3.8 2 3.8 4.8v.5h-6.3c.1 2.1 1.4 3.2 2.9 3.2 1 0 1.8-.4 2.4-1.1l.7.8c-.8.9-1.8 1.4-3.2 1.4-2.3.2-4.2-1.6-4.2-4.6zm6.4-.6c-.1-1.8-.9-3.2-2.5-3.2-1.4 0-2.4 1.3-2.6 3.2h5.1zM426 116.6h1.3v2.1c.6-1.3 1.7-2.3 3.2-2.2v1.4h-.1c-1.7 0-3.2 1.2-3.2 3.6v4.5H426v-9.4zM437 113.2h1.4v1.5H437v-1.5zm0 3.4h1.3v9.4H437v-9.4zM440.3 124.8l.7-1c.9.7 1.8 1.1 2.7 1.1 1 0 1.7-.6 1.7-1.5 0-.8-.8-1.3-2-1.8-1.5-.6-2.7-1.2-2.7-2.7 0-1.5 1.2-2.6 2.9-2.6 1.1 0 2.2.4 3 1l-.6 1c-.7-.5-1.5-.9-2.4-.9-1 0-1.6.6-1.6 1.3 0 .8.8 1.2 2.1 1.7 1.5.7 2.6 1.3 2.6 2.8 0 1.7-1.4 2.7-3 2.7-1.2.3-2.4-.2-3.4-1.1zM453.9 117.8h-1.2v-1.1h1.2v-.9c0-1 .3-1.7.7-2.2.4-.4 1-.7 1.8-.7.5 0 .9.1 1.2.2v1.2c-.4-.1-.7-.2-1.1-.2-.9 0-1.4.6-1.4 1.8v.8h2.4v1.1h-2.4v8.2h-1.3v-8.2zm5.4-4.6h1.5v1.5h-1.5v-1.5zm0 3.4h1.3v9.4h-1.3v-9.4zM463.5 113h1.3v13h-1.3v-13zM467.7 113h1.3v13h-1.3v-13zM471.3 121.4c0-3 1.7-5 3.9-5 2.4 0 3.8 2 3.8 4.8v.5h-6.3c.1 2.1 1.4 3.2 2.9 3.2 1 0 1.8-.4 2.4-1.1l.7.8c-.8.9-1.8 1.4-3.2 1.4-2.4.2-4.2-1.6-4.2-4.6zm6.3-.6c-.1-1.8-.9-3.2-2.5-3.2-1.4 0-2.4 1.3-2.6 3.2h5.1zM480.5 121.4v-.2c0-3.1 1.8-4.8 3.7-4.8 1.5 0 2.4.9 3 1.9V113h1.3v13h-1.3v-1.8c-.6 1.1-1.6 2-3 2-1.8 0-3.7-1.7-3.7-4.8zm6.9 0v-.2c0-2.2-1.4-3.6-2.8-3.6-1.5 0-2.7 1.3-2.7 3.6v.1c0 2.3 1.2 3.6 2.7 3.6 1.4.1 2.8-1.3 2.8-3.5z"/></g><g fill="#FFF"><path d="M309.5 265.3h1.3l4.8 12.7h-1.4l-1.2-3.3h-5.7L306 278h-1.4l4.9-12.7zm3 8.2l-2.4-6.4-2.4 6.4h4.8zM323.5 276.3v1.7h-1.3v-13h1.3v5.4c.6-1.1 1.6-2 3-2 1.9 0 3.7 1.7 3.7 4.8v.2c0 3.1-1.8 4.8-3.7 4.8-1.5 0-2.4-.9-3-1.9zm5.4-2.9v-.1c0-2.3-1.2-3.6-2.7-3.6-1.5 0-2.8 1.4-2.8 3.6v.2c0 2.2 1.4 3.6 2.8 3.6 1.6-.1 2.7-1.4 2.7-3.7zM332.3 274.8v-6.2h1.3v5.8c0 1.7.8 2.6 2.2 2.6 1.4 0 2.4-1.1 2.4-2.7v-5.7h1.3v9.4h-1.3v-1.5c-.5.9-1.4 1.7-2.8 1.7-1.9 0-3.1-1.3-3.1-3.4zM348.1 268.6h1.4l-3.3 9.5c-.7 1.9-1.5 2.6-2.7 2.6-.6 0-1.2-.1-1.7-.4l.4-1.1c.4.2.8.3 1.2.3.7 0 1.2-.4 1.6-1.6l-3.6-9.4h1.4l2.8 7.7 2.5-7.6zM356.1 265h1.3v13h-1.3v-13zM360.2 265.2h1.4v1.5h-1.4v-1.5zm.1 3.4h1.3v9.4h-1.3v-9.4zM364.4 268.6h1.3v1.5c.5-.9 1.3-1.7 2.6-1.7s2.1.7 2.6 1.7c.6-.9 1.4-1.7 2.9-1.7 1.8 0 3 1.3 3 3.4v6.1h-1.3v-5.8c0-1.7-.8-2.6-2-2.6s-2.2 1-2.2 2.7v5.7H370v-5.8c0-1.7-.8-2.6-2-2.6-1.3 0-2.2 1.1-2.2 2.7v5.7h-1.3v-9.3zM379.4 265.2h1.4v1.5h-1.4v-1.5zm.1 3.4h1.3v9.4h-1.3v-9.4zM383.9 275.8v-6h-1.1v-1.2h1.1v-2.7h1.3v2.7h2.4v1.2h-2.4v5.8c0 1 .5 1.3 1.4 1.3.4 0 .7-.1 1.1-.3v1.1c-.4.2-.9.3-1.4.3-1.4.1-2.4-.5-2.4-2.2zM393.9 273.4v-.1c0-2.7 1.8-4.8 4.2-4.8 2.4 0 4.2 2.1 4.2 4.8v.1c0 2.7-1.8 4.8-4.2 4.8-2.4 0-4.2-2.1-4.2-4.8zm7 0c0-2.2-1.3-3.8-2.9-3.8-1.7 0-2.8 1.6-2.8 3.7v.1c0 2.1 1.2 3.7 2.8 3.7 1.8-.1 2.9-1.7 2.9-3.7zM404.4 268.6h1.3v2.1c.6-1.3 1.7-2.3 3.2-2.2v1.4h-.1c-1.7 0-3.2 1.2-3.2 3.6v4.5h-1.3v-9.4zM409.9 273.4v-.2c0-3.1 1.8-4.8 3.7-4.8 1.5 0 2.4.9 3 1.9V265h1.3v13h-1.3v-1.8c-.6 1.1-1.6 2-3 2-1.9 0-3.7-1.7-3.7-4.8zm6.8 0v-.2c0-2.2-1.4-3.6-2.8-3.6-1.5 0-2.7 1.3-2.7 3.6v.1c0 2.3 1.2 3.6 2.7 3.6 1.5.1 2.8-1.3 2.8-3.5zM420.1 273.4c0-3 1.7-5 3.9-5 2.4 0 3.8 2 3.8 4.8v.5h-6.3c.1 2.1 1.4 3.2 2.9 3.2 1 0 1.8-.4 2.4-1.1l.7.8c-.8.9-1.8 1.4-3.2 1.4-2.3.2-4.2-1.6-4.2-4.6zm6.4-.6c-.1-1.8-.9-3.2-2.5-3.2-1.4 0-2.4 1.3-2.6 3.2h5.1zM429.9 268.6h1.3v2.1c.6-1.3 1.7-2.3 3.2-2.2v1.4h-.1c-1.7 0-3.2 1.2-3.2 3.6v4.5h-1.3v-9.4zM435.3 276.8l.7-1c.9.7 1.8 1.1 2.7 1.1 1 0 1.7-.6 1.7-1.5 0-.8-.8-1.3-2-1.8-1.5-.6-2.7-1.2-2.7-2.7 0-1.5 1.2-2.6 2.9-2.6 1.1 0 2.2.4 3 1l-.6 1c-.7-.5-1.5-.9-2.4-.9-1 0-1.6.6-1.6 1.3 0 .8.8 1.2 2.1 1.7 1.5.7 2.6 1.3 2.6 2.8 0 1.7-1.4 2.7-3 2.7-1.2.3-2.4-.2-3.4-1.1zM447.9 275.3c0-2 1.4-3.1 3.5-3.1 1 0 1.7.2 2.4.4v-.6c0-1.5-.9-2.3-2.4-2.3-.9 0-1.7.3-2.4.6l-.4-1.1c.9-.4 1.8-.8 3-.8 1.1 0 2 .3 2.6.9.6.6.9 1.4.9 2.5v6h-1.3v-1.4c-.6.9-1.5 1.6-2.9 1.6-1.6.2-3-.9-3-2.7zm5.9-.6v-1.2c-.6-.2-1.4-.4-2.3-.4-1.5 0-2.3.8-2.3 2v.1c0 1.2.9 1.9 2 1.9 1.4 0 2.6-1 2.6-2.4zM457.6 268.6h1.3v2.1c.6-1.3 1.7-2.3 3.2-2.2v1.4h-.1c-1.7 0-3.2 1.2-3.2 3.6v4.5h-1.3v-9.4zM463 273.4c0-3 1.7-5 3.9-5 2.4 0 3.8 2 3.8 4.8v.5h-6.3c.1 2.1 1.4 3.2 2.9 3.2 1 0 1.8-.4 2.4-1.1l.7.8c-.8.9-1.8 1.4-3.2 1.4-2.3.2-4.2-1.6-4.2-4.6zm6.3-.6c-.1-1.8-.9-3.2-2.5-3.2-1.4 0-2.4 1.3-2.6 3.2h5.1z"/></g><path fill="#29B362" d="M236.1 170h-67v-28h67v28zm-67 121v29h68v-29h-68z"/><g fill="#FEFEFE"><path d="M179.6 153.5l-1.8.5-.4-2.1 2.9-.9h1.7v12h-2.4v-9.5zM184.4 160.4h2.6v2.6h-2.6v-2.6zM188.5 157.2v-.2c0-3.6 1.8-6.1 4.7-6.1 2.8 0 4.6 2.4 4.6 6v.2c0 3.6-1.8 6.1-4.7 6.1-2.8 0-4.6-2.4-4.6-6zm6.8-.1v-.1c0-2.5-.9-3.8-2.1-3.8-1.3 0-2.1 1.3-2.1 3.8v.2c0 2.5.9 3.8 2.1 3.8 1.2 0 2.1-1.4 2.1-3.9zM204 153.3h-4.9v-2.2h7.6v1.8l-4.6 10.1h-2.7l4.6-9.7zM209.2 162.1c-.8-.9-1.4-2.1-1.4-4.6v-.1c0-4.1 1.7-6.5 4.8-6.5 1.3 0 2.2.4 3.2 1.1l-1.2 2c-.6-.4-1.2-.8-2-.8-1.5 0-2.1 1.4-2.2 2.8.6-.4 1.3-.7 2.2-.7 2 0 3.7 1.2 3.7 3.8 0 2.4-1.8 4.1-4.1 4.1-1.3 0-2.3-.4-3-1.1zm4.6-2.9c0-1.1-.7-1.9-1.8-1.9s-1.7.7-1.7 1.8.7 1.9 1.8 1.9 1.7-.7 1.7-1.8zM217.8 157.2v-.2c0-3.6 1.8-6.1 4.7-6.1 2.8 0 4.6 2.4 4.6 6v.2c0 3.6-1.8 6.1-4.7 6.1-2.8 0-4.6-2.4-4.6-6zm6.7-.1v-.1c0-2.5-.9-3.8-2.1-3.8-1.3 0-2.1 1.3-2.1 3.8v.2c0 2.5.9 3.8 2.1 3.8 1.3 0 2.1-1.4 2.1-3.9z"/></g><g fill="#FEFEFE"><path d="M179.6 302.5l-1.8.5-.4-2.1 2.9-.9h1.7v12h-2.4v-9.5zM184.4 309.4h2.6v2.6h-2.6v-2.6zM188.5 306.2v-.2c0-3.6 1.8-6.1 4.7-6.1 2.8 0 4.6 2.4 4.6 6v.2c0 3.6-1.8 6.1-4.7 6.1-2.8 0-4.6-2.4-4.6-6zm6.8-.1v-.1c0-2.5-.9-3.8-2.1-3.8-1.3 0-2.1 1.3-2.1 3.8v.2c0 2.5.9 3.8 2.1 3.8 1.2 0 2.1-1.4 2.1-3.9zM204 302.3h-4.9v-2.2h7.6v1.8l-4.6 10.1h-2.7l4.6-9.7zM207.6 310.5l1.5-1.7c.6.6 1.3 1.2 2.4 1.2 1 0 1.6-.6 1.6-1.5 0-1-.8-1.6-2.4-1.6h-.7l-.3-1.6 2.6-2.9h-4.1v-2.2h7.2v2l-2.8 2.9c1.5.3 3 1.3 3 3.3v.1c0 2.3-1.6 3.9-4 3.9-1.8-.2-3.1-.9-4-1.9zM217.1 306.2v-.2c0-3.6 1.8-6.1 4.7-6.1 2.8 0 4.6 2.4 4.6 6v.2c0 3.6-1.8 6.1-4.7 6.1-2.8 0-4.6-2.4-4.6-6zm6.7-.1v-.1c0-2.5-.9-3.8-2.1-3.8-1.3 0-2.1 1.3-2.1 3.8v.2c0 2.5.9 3.8 2.1 3.8 1.3 0 2.1-1.4 2.1-3.9z"/></g><g fill="#FFF"><path d="M304.9 293.4c0-3 1.7-5 3.9-5 2.4 0 3.8 2 3.8 4.8v.5h-6.3c.1 2.1 1.4 3.2 2.9 3.2 1 0 1.8-.4 2.4-1.1l.7.8c-.8.9-1.8 1.4-3.2 1.4-2.3.2-4.2-1.6-4.2-4.6zm6.3-.6c-.1-1.8-.9-3.2-2.5-3.2-1.4 0-2.4 1.3-2.6 3.2h5.1zM317.3 292.3l2.3-3.7h1.4l-3 4.6 3.1 4.8h-1.5l-2.4-3.9-2.4 3.9h-1.4l3.1-4.8-3-4.6h1.5l2.3 3.7zM322.1 293.4c0-3 1.7-5 3.9-5 2.4 0 3.8 2 3.8 4.8v.5h-6.3c.1 2.1 1.4 3.2 2.9 3.2 1 0 1.8-.4 2.4-1.1l.7.8c-.8.9-1.8 1.4-3.2 1.4-2.4.2-4.2-1.6-4.2-4.6zm6.3-.6c-.1-1.8-.9-3.2-2.5-3.2-1.4 0-2.4 1.3-2.6 3.2h5.1zM331.3 293.4v-.1c0-2.8 1.8-4.8 4.2-4.8 1.3 0 2.2.6 3 1.3l-.8 1c-.6-.6-1.2-1.1-2.2-1.1-1.6 0-2.8 1.5-2.8 3.7v.1c0 2.2 1.3 3.6 2.9 3.6.9 0 1.6-.5 2.2-1.1l.8.9c-.7.8-1.6 1.4-3 1.4-2.5-.1-4.3-2-4.3-4.9zM340.3 294.8v-6.2h1.3v5.8c0 1.7.8 2.6 2.2 2.6 1.4 0 2.4-1.1 2.4-2.7v-5.7h1.3v9.4h-1.3v-1.5c-.5.9-1.4 1.7-2.8 1.7-2 0-3.1-1.3-3.1-3.4zM350.5 295.8v-6h-1.1v-1.2h1.1v-2.7h1.3v2.7h2.4v1.2h-2.4v5.8c0 1 .5 1.3 1.4 1.3.4 0 .7-.1 1.1-.3v1.1c-.4.2-.9.3-1.4.3-1.4.1-2.4-.5-2.4-2.2zM355.5 293.4c0-3 1.7-5 3.9-5 2.4 0 3.8 2 3.8 4.8v.5h-6.3c.1 2.1 1.4 3.2 2.9 3.2 1 0 1.8-.4 2.4-1.1l.7.8c-.8.9-1.8 1.4-3.2 1.4-2.3.2-4.2-1.6-4.2-4.6zm6.4-.6c-.1-1.8-.9-3.2-2.5-3.2-1.4 0-2.4 1.3-2.6 3.2h5.1zM364.8 293.4v-.2c0-3.1 1.8-4.8 3.7-4.8 1.5 0 2.4.9 3 1.9V285h1.3v13h-1.3v-1.8c-.6 1.1-1.6 2-3 2-1.9 0-3.7-1.7-3.7-4.8zm6.8 0v-.2c0-2.2-1.3-3.6-2.8-3.6-1.5 0-2.7 1.3-2.7 3.6v.1c0 2.3 1.2 3.6 2.7 3.6 1.5.1 2.8-1.3 2.8-3.5zM379.6 295.3c0-2 1.4-3.1 3.5-3.1 1 0 1.7.2 2.4.4v-.6c0-1.5-.9-2.3-2.4-2.3-.9 0-1.7.3-2.4.6l-.4-1.1c.9-.4 1.8-.8 3-.8 1.1 0 2 .3 2.6.9.6.6.9 1.4.9 2.5v6h-1.3v-1.4c-.6.9-1.5 1.6-2.9 1.6-1.6.2-3-.9-3-2.7zm5.9-.6v-1.2c-.6-.2-1.4-.4-2.3-.4-1.5 0-2.3.8-2.3 2v.1c0 1.2.9 1.9 2 1.9 1.4 0 2.6-1 2.6-2.4zM389.6 295.8v-6h-1.1v-1.2h1.1v-2.7h1.3v2.7h2.4v1.2h-2.4v5.8c0 1 .5 1.3 1.4 1.3.4 0 .7-.1 1.1-.3v1.1c-.4.2-.9.3-1.4.3-1.4.1-2.4-.5-2.4-2.2zM400.5 295.8v-6h-1.1v-1.2h1.1v-2.7h1.3v2.7h2.4v1.2h-2.4v5.8c0 1 .5 1.3 1.3 1.3.4 0 .7-.1 1.1-.3v1.1c-.4.2-.9.3-1.4.3-1.3.1-2.3-.5-2.3-2.2zM406.3 285h1.3v5.1c.5-.9 1.4-1.7 2.8-1.7 1.9 0 3.1 1.3 3.1 3.4v6.1h-1.3v-5.8c0-1.7-.8-2.6-2.2-2.6-1.4 0-2.4 1.1-2.4 2.7v5.7h-1.3V285zM415.5 293.4c0-3 1.7-5 3.9-5 2.4 0 3.8 2 3.8 4.8v.5h-6.3c.1 2.1 1.4 3.2 2.9 3.2 1 0 1.8-.4 2.4-1.1l.7.8c-.8.9-1.8 1.4-3.2 1.4-2.3.2-4.2-1.6-4.2-4.6zm6.3-.6c-.1-1.8-.9-3.2-2.5-3.2-1.4 0-2.4 1.3-2.6 3.2h5.1zM429 296.8l.7-1c.9.7 1.8 1.1 2.7 1.1 1 0 1.7-.6 1.7-1.5 0-.8-.8-1.3-2-1.8-1.5-.6-2.7-1.2-2.7-2.7 0-1.5 1.2-2.6 2.9-2.6 1.1 0 2.2.4 3 1l-.6 1c-.7-.5-1.5-.9-2.4-.9-1 0-1.6.6-1.6 1.3 0 .8.8 1.2 2.1 1.7 1.5.7 2.6 1.3 2.6 2.8 0 1.7-1.3 2.7-3 2.7-1.1.3-2.4-.2-3.4-1.1zM437.6 288.6h1.3v1.8c.6-1.1 1.6-2 3-2 1.9 0 3.7 1.7 3.7 4.8v.2c0 3.1-1.8 4.8-3.7 4.8-1.5 0-2.4-.9-3-1.9v4.4h-1.3v-12.1zm6.7 4.8v-.1c0-2.3-1.2-3.6-2.7-3.6-1.5 0-2.8 1.4-2.8 3.6v.2c0 2.2 1.4 3.6 2.8 3.6s2.7-1.4 2.7-3.7zM447.3 293.4c0-3 1.7-5 3.9-5 2.4 0 3.8 2 3.8 4.8v.5h-6.3c.1 2.1 1.4 3.2 2.9 3.2 1 0 1.8-.4 2.4-1.1l.7.8c-.8.9-1.8 1.4-3.2 1.4-2.3.2-4.2-1.6-4.2-4.6zm6.4-.6c-.1-1.8-.9-3.2-2.5-3.2-1.4 0-2.4 1.3-2.6 3.2h5.1zM456.6 293.4v-.1c0-2.8 1.8-4.8 4.2-4.8 1.3 0 2.2.6 3 1.3l-.8 1c-.6-.6-1.2-1.1-2.2-1.1-1.6 0-2.8 1.5-2.8 3.7v.1c0 2.2 1.3 3.6 2.9 3.6.9 0 1.6-.5 2.2-1.1l.8.9c-.7.8-1.6 1.4-3 1.4-2.6-.1-4.3-2-4.3-4.9zM465.7 285.2h1.4v1.5h-1.4v-1.5zm.1 3.4h1.3v9.4h-1.3v-9.4zM470.3 289.8h-1.2v-1.1h1.2v-.9c0-1 .3-1.7.7-2.2.4-.4 1-.7 1.8-.7.5 0 .9.1 1.2.2v1.2c-.4-.1-.7-.2-1.1-.2-.9 0-1.4.6-1.4 1.8v.8h2.4v1.1h-2.4v8.2h-1.3v-8.2zm5.3-4.6h1.5v1.5h-1.5v-1.5zm.1 3.4h1.3v9.4h-1.3v-9.4zM479.3 293.4c0-3 1.7-5 3.9-5 2.4 0 3.8 2 3.8 4.8v.5h-6.3c.1 2.1 1.4 3.2 2.9 3.2 1 0 1.8-.4 2.4-1.1l.7.8c-.8.9-1.8 1.4-3.2 1.4-2.4.2-4.2-1.6-4.2-4.6zm6.3-.6c-.1-1.8-.9-3.2-2.5-3.2-1.4 0-2.4 1.3-2.6 3.2h5.1zM488.5 293.4v-.2c0-3.1 1.8-4.8 3.7-4.8 1.5 0 2.4.9 3 1.9V285h1.3v13h-1.3v-1.8c-.6 1.1-1.6 2-3 2-1.9 0-3.7-1.7-3.7-4.8zm6.9 0v-.2c0-2.2-1.4-3.6-2.8-3.6-1.5 0-2.7 1.3-2.7 3.6v.1c0 2.3 1.2 3.6 2.7 3.6 1.4.1 2.8-1.3 2.8-3.5z"/></g><g fill="#FFF"><path d="M305.4 309.6h1.3v1.8c.6-1.1 1.6-2 3-2 1.9 0 3.7 1.7 3.7 4.8v.2c0 3.1-1.8 4.8-3.7 4.8-1.5 0-2.4-.9-3-1.9v4.4h-1.3v-12.1zm6.8 4.8v-.1c0-2.3-1.2-3.6-2.7-3.6-1.5 0-2.8 1.4-2.8 3.6v.2c0 2.2 1.4 3.6 2.8 3.6 1.5-.1 2.7-1.4 2.7-3.7zM315.7 309.6h1.3v2.1c.6-1.3 1.7-2.3 3.2-2.2v1.4h-.1c-1.7 0-3.2 1.2-3.2 3.6v4.5h-1.3v-9.4zM322 306.2h1.4v1.5H322v-1.5zm.1 3.4h1.3v9.4h-1.3v-9.4zM325.7 314.4v-.1c0-2.8 1.8-4.8 4.2-4.8 1.3 0 2.2.6 3 1.3l-.8 1c-.6-.6-1.2-1.1-2.2-1.1-1.6 0-2.8 1.5-2.8 3.7v.1c0 2.2 1.3 3.6 2.9 3.6.9 0 1.6-.5 2.2-1.1l.8.9c-.7.8-1.6 1.4-3 1.4-2.5-.1-4.3-2-4.3-4.9zM334 314.4c0-3 1.7-5 3.9-5 2.4 0 3.8 2 3.8 4.8v.5h-6.3c.1 2.1 1.4 3.2 2.9 3.2 1 0 1.8-.4 2.4-1.1l.7.8c-.8.9-1.8 1.4-3.2 1.4-2.3.2-4.2-1.6-4.2-4.6zm6.4-.6c-.1-1.8-.9-3.2-2.5-3.2-1.4 0-2.4 1.3-2.6 3.2h5.1zM347.9 314.4v-.1c0-2.7 1.8-4.8 4.2-4.8 2.4 0 4.2 2.1 4.2 4.8v.1c0 2.7-1.8 4.8-4.2 4.8s-4.2-2.1-4.2-4.8zm7 0c0-2.2-1.3-3.8-2.9-3.8-1.7 0-2.8 1.6-2.8 3.7v.1c0 2.1 1.2 3.7 2.8 3.7 1.7-.1 2.9-1.7 2.9-3.7zM358.4 309.6h1.3v2.1c.6-1.3 1.7-2.3 3.2-2.2v1.4h-.1c-1.7 0-3.2 1.2-3.2 3.6v4.5h-1.3v-9.4zM369.5 306h1.3v13h-1.3v-13zM373 314.4v-.1c0-2.7 1.8-4.8 4.2-4.8 2.4 0 4.2 2.1 4.2 4.8v.1c0 2.7-1.8 4.8-4.2 4.8-2.4 0-4.2-2.1-4.2-4.8zm7.1 0c0-2.2-1.3-3.8-2.9-3.8-1.7 0-2.8 1.6-2.8 3.7v.1c0 2.1 1.2 3.7 2.8 3.7 1.7-.1 2.9-1.7 2.9-3.7zM382.5 309.6h1.4l2.1 7.5 2.1-7.5h1.1l2.1 7.5 2.1-7.5h1.3l-2.8 9.5h-1.2l-2.1-7.3-2.1 7.3h-1.2l-2.8-9.5zM395.8 314.4c0-3 1.7-5 3.9-5 2.4 0 3.8 2 3.8 4.8v.5h-6.3c.1 2.1 1.4 3.2 2.9 3.2 1 0 1.8-.4 2.4-1.1l.7.8c-.8.9-1.8 1.4-3.2 1.4-2.3.2-4.2-1.6-4.2-4.6zm6.3-.6c-.1-1.8-.9-3.2-2.5-3.2-1.4 0-2.4 1.3-2.6 3.2h5.1zM405.5 309.6h1.3v2.1c.6-1.3 1.7-2.3 3.2-2.2v1.4h-.1c-1.7 0-3.2 1.2-3.2 3.6v4.5h-1.3v-9.4z"/></g><g fill="#FFF"><path d="M304.8 143.3c0-2 1.4-3.1 3.5-3.1 1 0 1.7.2 2.4.4v-.6c0-1.5-.9-2.3-2.4-2.3-.9 0-1.7.3-2.4.6l-.4-1.1c.9-.4 1.8-.8 3-.8 1.1 0 2 .3 2.6.9.6.6.9 1.4.9 2.5v6h-1.3v-1.4c-.6.9-1.5 1.6-2.9 1.6-1.6.2-3-.9-3-2.7zm5.9-.6v-1.2c-.6-.2-1.4-.4-2.3-.4-1.5 0-2.3.8-2.3 2v.1c0 1.2.9 1.9 2 1.9 1.4 0 2.6-1 2.6-2.4zM314.8 143.8v-6h-1.1v-1.2h1.1v-2.7h1.3v2.7h2.4v1.2h-2.4v5.8c0 1 .5 1.4 1.4 1.4.4 0 .7-.1 1.1-.3v1.1c-.4.2-.9.3-1.4.3-1.4 0-2.4-.6-2.4-2.3zM325.7 143.8v-6h-1.1v-1.2h1.1v-2.7h1.3v2.7h2.4v1.2H327v5.8c0 1 .5 1.4 1.4 1.4.4 0 .7-.1 1.1-.3v1.1c-.4.2-.9.3-1.4.3-1.4 0-2.4-.6-2.4-2.3zM331.5 133h1.3v5.1c.5-.9 1.4-1.7 2.8-1.7 1.9 0 3.1 1.3 3.1 3.4v6.1h-1.3v-5.8c0-1.7-.8-2.6-2.2-2.6-1.4 0-2.4 1.1-2.4 2.7v5.7h-1.3V133zM340.7 141.4c0-3 1.7-5 3.9-5 2.4 0 3.8 2 3.8 4.8v.5H342c.1 2.1 1.4 3.2 2.9 3.2 1 0 1.8-.4 2.4-1.1l.7.8c-.8.9-1.8 1.4-3.2 1.4-2.2.2-4.1-1.6-4.1-4.6zm6.3-.6c-.1-1.8-.9-3.2-2.5-3.2-1.4 0-2.4 1.3-2.6 3.2h5.1zM354.2 144.8l.7-1c.9.7 1.8 1.1 2.7 1.1 1 0 1.7-.6 1.7-1.5 0-.8-.8-1.3-2-1.8-1.5-.6-2.7-1.2-2.7-2.7 0-1.5 1.2-2.6 2.9-2.6 1.1 0 2.2.4 3 1l-.6 1c-.7-.5-1.5-.9-2.4-.9-1 0-1.6.6-1.6 1.3 0 .8.8 1.2 2.1 1.7 1.5.7 2.6 1.3 2.6 2.8 0 1.7-1.3 2.7-3 2.7-1.2.3-2.4-.2-3.4-1.1zM362.8 136.6h1.3v1.8c.6-1.1 1.6-2 3-2 1.9 0 3.7 1.7 3.7 4.8v.2c0 3.1-1.8 4.8-3.7 4.8-1.5 0-2.4-.9-3-1.9v4.4h-1.3v-12.1zm6.7 4.8v-.1c0-2.3-1.2-3.6-2.7-3.6-1.5 0-2.8 1.4-2.8 3.6v.2c0 2.2 1.4 3.6 2.8 3.6 1.5-.1 2.7-1.4 2.7-3.7zM372.5 141.4c0-3 1.7-5 3.9-5 2.4 0 3.8 2 3.8 4.8v.5h-6.3c.1 2.1 1.4 3.2 2.9 3.2 1 0 1.8-.4 2.4-1.1l.7.8c-.8.9-1.8 1.4-3.2 1.4-2.3.2-4.2-1.6-4.2-4.6zm6.4-.6c-.1-1.8-.9-3.2-2.5-3.2-1.4 0-2.4 1.3-2.6 3.2h5.1zM381.8 141.4v-.1c0-2.8 1.8-4.8 4.2-4.8 1.3 0 2.2.6 3 1.3l-.8 1c-.6-.6-1.2-1.1-2.2-1.1-1.6 0-2.8 1.5-2.8 3.7v.1c0 2.2 1.3 3.6 2.9 3.6.9 0 1.6-.5 2.2-1.1l.8.9c-.7.8-1.6 1.4-3 1.4-2.6-.1-4.3-2-4.3-4.9zM390.9 133.2h1.4v1.5h-1.4v-1.5zm.1 3.4h1.3v9.4H391v-9.4zM395.5 137.8h-1.2v-1.1h1.2v-.9c0-1 .3-1.7.7-2.2.4-.4 1-.7 1.8-.7.5 0 .9.1 1.2.2v1.2c-.4-.1-.7-.2-1.1-.2-.9 0-1.4.6-1.4 1.8v.8h2.4v1.1h-2.4v8.2h-1.3v-8.2zm5.3-4.6h1.5v1.5h-1.5v-1.5zm.1 3.4h1.3v9.4h-1.3v-9.4zM404.5 141.4c0-3 1.7-5 3.9-5 2.4 0 3.8 2 3.8 4.8v.5h-6.3c.1 2.1 1.4 3.2 2.9 3.2 1 0 1.8-.4 2.4-1.1l.7.8c-.8.9-1.8 1.4-3.2 1.4-2.4.2-4.2-1.6-4.2-4.6zm6.3-.6c-.1-1.8-.9-3.2-2.5-3.2-1.4 0-2.4 1.3-2.6 3.2h5.1zM413.7 141.4v-.2c0-3.1 1.8-4.8 3.7-4.8 1.5 0 2.4.9 3 1.9V133h1.3v13h-1.3v-1.8c-.6 1.1-1.6 2-3 2-1.9 0-3.7-1.7-3.7-4.8zm6.8 0v-.2c0-2.2-1.4-3.6-2.8-3.6-1.5 0-2.7 1.3-2.7 3.6v.1c0 2.3 1.2 3.6 2.7 3.6 1.5.1 2.8-1.3 2.8-3.5zM429.1 136.6h1.3v1.8c.6-1.1 1.6-2 3-2 1.9 0 3.7 1.7 3.7 4.8v.2c0 3.1-1.8 4.8-3.7 4.8-1.5 0-2.4-.9-3-1.9v4.4h-1.3v-12.1zm6.8 4.8v-.1c0-2.3-1.2-3.6-2.7-3.6-1.5 0-2.8 1.4-2.8 3.6v.2c0 2.2 1.4 3.6 2.8 3.6s2.7-1.4 2.7-3.7zM439.4 136.6h1.3v2.1c.6-1.3 1.7-2.3 3.2-2.2v1.4h-.1c-1.7 0-3.2 1.2-3.2 3.6v4.5h-1.3v-9.4zM445.7 133.2h1.4v1.5h-1.4v-1.5zm.1 3.4h1.3v9.4h-1.3v-9.4zM449.4 141.4v-.1c0-2.8 1.8-4.8 4.2-4.8 1.3 0 2.2.6 3 1.3l-.8 1c-.6-.6-1.2-1.1-2.2-1.1-1.6 0-2.8 1.5-2.8 3.7v.1c0 2.2 1.3 3.6 2.9 3.6.9 0 1.6-.5 2.2-1.1l.8.9c-.7.8-1.6 1.4-3 1.4-2.5-.1-4.3-2-4.3-4.9zM457.7 141.4c0-3 1.7-5 3.9-5 2.4 0 3.8 2 3.8 4.8v.5H459c.1 2.1 1.4 3.2 2.9 3.2 1 0 1.8-.4 2.4-1.1l.7.8c-.8.9-1.8 1.4-3.2 1.4-2.2.2-4.1-1.6-4.1-4.6zm6.4-.6c-.1-1.8-.9-3.2-2.5-3.2-1.4 0-2.4 1.3-2.6 3.2h5.1zM471.6 141.4v-.1c0-2.7 1.8-4.8 4.2-4.8 2.4 0 4.2 2.1 4.2 4.8v.1c0 2.7-1.8 4.8-4.2 4.8-2.4 0-4.2-2.1-4.2-4.8zm7 0c0-2.2-1.3-3.8-2.9-3.8-1.7 0-2.8 1.6-2.8 3.7v.1c0 2.1 1.2 3.7 2.8 3.7 1.7-.1 2.9-1.7 2.9-3.7zM482.1 136.6h1.3v2.1c.6-1.3 1.7-2.3 3.2-2.2v1.4h-.1c-1.7 0-3.2 1.2-3.2 3.6v4.5H482v-9.4z"/></g><g fill="#FFF"><path d="M305.4 154h1.3v5.1c.5-.9 1.4-1.7 2.8-1.7 1.9 0 3.1 1.3 3.1 3.4v6.1h-1.3v-5.8c0-1.7-.8-2.6-2.2-2.6-1.4 0-2.4 1.1-2.4 2.7v5.7h-1.3V154zM315.1 154.2h1.4v1.5h-1.4v-1.5zm.1 3.4h1.3v9.4h-1.3v-9.4zM319.2 168.7l.5-1c.9.6 1.9.9 3 .9 1.8 0 2.9-.9 2.9-2.8v-1.4c-.6 1-1.6 1.9-3.1 1.9-1.9 0-3.7-1.6-3.7-4.4v-.1c0-2.8 1.8-4.4 3.7-4.4 1.5 0 2.4.9 3.1 1.9v-1.7h1.3v8.1c0 1.3-.4 2.2-1 2.9-.7.7-1.8 1.1-3.1 1.1s-2.5-.3-3.6-1zm6.4-6.8c0-2.1-1.4-3.3-2.8-3.3-1.5 0-2.7 1.2-2.7 3.3 0 2 1.2 3.3 2.7 3.3 1.4 0 2.8-1.3 2.8-3.3zM329.5 154h1.3v5.1c.5-.9 1.4-1.7 2.8-1.7 1.9 0 3.1 1.3 3.1 3.4v6.1h-1.3v-5.8c0-1.7-.8-2.6-2.2-2.6s-2.4 1.1-2.4 2.7v5.7h-1.3V154zM338.7 162.4c0-3 1.7-5 3.9-5 2.4 0 3.8 2 3.8 4.8v.5H340c.1 2.1 1.4 3.2 2.9 3.2 1 0 1.8-.4 2.4-1.1l.7.8c-.8.9-1.8 1.4-3.2 1.4-2.2.2-4.1-1.6-4.1-4.6zm6.3-.6c-.1-1.8-.9-3.2-2.5-3.2-1.4 0-2.4 1.3-2.6 3.2h5.1zM348.4 157.6h1.3v2.1c.6-1.3 1.7-2.3 3.2-2.2v1.4h-.1c-1.7 0-3.2 1.2-3.2 3.6v4.5h-1.3v-9.4z"/></g><g fill="#333"><path d="M114.5 22.6h-2.9v-1h7v1h-3V32h-1.1v-9.4zM120.1 21.2h1.1v4.3c.4-.8 1.1-1.4 2.3-1.4 1.6 0 2.5 1.1 2.5 2.9v5h-1v-4.8c0-1.4-.7-2.2-1.8-2.2s-2 .9-2 2.2V32h-1.1V21.2zM127.8 28.2c0-2.5 1.4-4.1 3.2-4.1 2 0 3.1 1.7 3.1 4v.4h-5.2c.1 1.7 1.2 2.7 2.4 2.7.9 0 1.5-.4 2-.9l.6.7c-.7.7-1.5 1.2-2.7 1.2-1.9 0-3.4-1.6-3.4-4zm5.2-.5c-.1-1.5-.8-2.7-2.1-2.7-1.2 0-2 1.1-2.1 2.7h4.2zM139.3 28.2v-.1c0-2.4 1.5-4 3.5-4 1.1 0 1.9.5 2.5 1.1l-.6.8c-.5-.5-1-.9-1.8-.9-1.3 0-2.4 1.2-2.4 3v.1c0 1.8 1.1 3 2.4 3 .8 0 1.3-.4 1.8-.9l.6.7c-.6.7-1.4 1.2-2.5 1.2-2 0-3.5-1.7-3.5-4zM146.8 29.3v-5.1h1.1V29c0 1.4.7 2.2 1.8 2.2s2-.9 2-2.2v-4.8h1.1V32h-1.1v-1.3c-.4.8-1.1 1.4-2.3 1.4-1.6 0-2.6-1-2.6-2.8zM155 24.2h1.1v1.7c.5-1.1 1.4-1.9 2.7-1.8v1.2h-.1c-1.5 0-2.6 1-2.6 3V32H155v-7.8zM160.2 24.2h1.1v1.7c.5-1.1 1.4-1.9 2.7-1.8v1.2h-.1c-1.5 0-2.6 1-2.6 3V32h-1.1v-7.8zM164.8 28.2c0-2.5 1.4-4.1 3.2-4.1 2 0 3.1 1.7 3.1 4v.4h-5.2c.1 1.7 1.2 2.7 2.4 2.7.9 0 1.5-.4 2-.9l.6.7c-.7.7-1.5 1.2-2.7 1.2-1.9 0-3.4-1.6-3.4-4zm5.2-.5c-.1-1.5-.8-2.7-2.1-2.7-1.2 0-2 1.1-2.1 2.7h4.2zM172.9 24.2h1.1v1.3c.4-.8 1.1-1.4 2.3-1.4 1.6 0 2.5 1.1 2.5 2.9v5h-1.1v-4.8c0-1.4-.7-2.2-1.8-2.2s-2 .9-2 2.2V32h-1.1v-7.8zM181.2 30.2v-5h-.9v-1h.9v-2.3h1.1v2.3h2v1h-2V30c0 .8.5 1.1 1.1 1.1.3 0 .6-.1.9-.2v.9c-.3.2-.7.3-1.2.3-1 0-1.9-.5-1.9-1.9zM190.1 21.5h6.4v1h-5.3v3.7h4.7v1h-4.7V31h5.4v1h-6.5V21.5zM198.5 28.1v-6.6h1.1v6.6c0 2 1 3.1 2.7 3.1 1.6 0 2.6-1 2.6-3v-6.6h1.1V28c0 2.7-1.5 4.1-3.8 4.1-2.2.1-3.7-1.4-3.7-4zM208.4 21.5h3.6c1.2 0 2.2.4 2.8 1 .5.5.8 1.3.8 2.2 0 1.7-1 2.7-2.5 3l2.8 4.3h-1.4l-2.6-4.1h-2.4V32h-1.1V21.5zm3.4 5.4c1.7 0 2.7-.9 2.7-2.2 0-1.4-1-2.1-2.5-2.1h-2.4V27h2.2zM222.1 20.2h1l-5.8 13.6h-1l5.8-13.6zM224.2 28.1v-6.6h1.1v6.6c0 2 1 3.1 2.7 3.1 1.6 0 2.6-1 2.6-3v-6.6h1.1V28c0 2.7-1.5 4.1-3.8 4.1-2.2.1-3.7-1.4-3.7-4zM233.4 30.7l.7-.9c.9.8 1.8 1.3 3 1.3 1.3 0 2.1-.8 2.1-1.8 0-.9-.4-1.4-2.3-2.1-2.2-.8-3-1.6-3-3.1 0-1.6 1.3-2.8 3.2-2.8 1.2 0 2.2.4 3.1 1.2l-.7.9c-.8-.7-1.6-1-2.5-1-1.2 0-2 .7-2 1.6 0 .9.5 1.4 2.4 2.2 2.1.8 2.9 1.6 2.9 3 0 1.7-1.4 2.9-3.3 2.9-1.3 0-2.5-.4-3.6-1.4zM242.3 21.5h3c2.9 0 4.9 2.1 4.9 5.2v.1c0 3.1-2 5.2-4.9 5.2h-3V21.5zm1.1 1V31h1.8c2.3 0 3.8-1.7 3.8-4.2v-.1c0-2.5-1.5-4.2-3.8-4.2h-1.8zM257.1 30.5V32H256V21.2h1.1v4.5c.5-.9 1.3-1.6 2.5-1.6 1.6 0 3.1 1.4 3.1 4v.1c0 2.6-1.5 4-3.1 4-1.2-.1-2-.8-2.5-1.7zm4.6-2.3V28c0-1.9-1-3-2.2-3-1.2 0-2.4 1.2-2.4 3v.1c0 1.8 1.1 3 2.4 3s2.2-1 2.2-2.9zM264.7 21.3h1.2v1.3h-1.2v-1.3zm0 2.9h1.1V32h-1.1v-7.8zM267.7 28.2V28c0-2.6 1.5-4 3.1-4 1.2 0 2 .8 2.5 1.6v-4.5h1.1V32h-1.1v-1.5c-.5.9-1.3 1.6-2.5 1.6-1.6 0-3.1-1.3-3.1-3.9zm5.7 0V28c0-1.8-1.1-3-2.4-3-1.2 0-2.2 1.1-2.2 3v.1c0 1.9 1 3 2.2 3 1.3.1 2.4-1.1 2.4-2.9zM280.6 21.3h1.2v1.3h-1.2v-1.3zm0 2.9h1.1V32h-1.1v-7.8zM283.3 31l.6-.8c.7.6 1.5.9 2.3.9.9 0 1.5-.5 1.5-1.2s-.6-1-1.7-1.5c-1.2-.5-2.2-1-2.2-2.3 0-1.3 1-2.1 2.4-2.1.9 0 1.8.3 2.5.8l-.5.8c-.6-.4-1.3-.7-2-.7-.8 0-1.3.5-1.3 1.1 0 .7.7 1 1.7 1.4 1.3.6 2.2 1.1 2.2 2.3 0 1.4-1.1 2.2-2.5 2.2-1.1.2-2.1-.1-3-.9zM295.5 22.6l-1.7.6-.2-1 2.2-.8h.8V32h-1.1v-9.4zM299 30.5h1.4V32H299v-1.5zM301.9 26.8v-.1c0-3.1 1.5-5.4 3.8-5.4s3.8 2.2 3.8 5.3v.1c0 3.1-1.5 5.4-3.8 5.4-2.3.1-3.8-2.1-3.8-5.3zm6.4 0v-.1c0-2.5-1.1-4.3-2.7-4.3s-2.6 1.8-2.6 4.3v.1c0 2.5 1.1 4.3 2.7 4.3s2.6-1.8 2.6-4.3zM315.7 22.6h-4.9v-1h6.1v.9l-4 9.6h-1.2l4-9.5zM322 29.6h-4.8l-.2-.8 5.1-7.3h1v7.2h1.4v.9h-1.4V32H322v-2.4zm0-1v-5.4l-3.8 5.4h3.8zM325.7 30.9l.7-.8c.7.7 1.5 1.1 2.4 1.1 1.3 0 2.3-1 2.3-2.4s-1-2.2-2.3-2.2c-.8 0-1.3.2-1.8.5l-.7-.5.3-5h5.3v1h-4.3l-.2 3.3c.5-.2 1-.4 1.7-.4 1.8 0 3.2 1.1 3.2 3.2 0 2-1.5 3.4-3.4 3.4-1.3.1-2.4-.5-3.2-1.2zM337.5 29.7c0-1.7 1.2-2.6 2.9-2.6.8 0 1.4.1 2 .3V27c0-1.3-.7-1.9-2-1.9-.8 0-1.5.2-2 .5l-.3-.9c.7-.4 1.5-.6 2.5-.6.9 0 1.7.3 2.2.8.5.5.8 1.2.8 2.1v5h-1.1v-1.1c-.5.7-1.2 1.3-2.4 1.3-1.4 0-2.6-.9-2.6-2.5zm4.9-.4v-1c-.5-.2-1.1-.3-1.9-.3-1.2 0-1.9.6-1.9 1.6s.7 1.6 1.7 1.6c1.1.1 2.1-.8 2.1-1.9zM345.5 24.2h1.1v1.3c.4-.8 1.1-1.4 2.3-1.4 1.6 0 2.6 1.1 2.6 2.9v5h-1.1v-4.8c0-1.4-.7-2.2-1.8-2.2s-2 .9-2 2.2V32h-1.1v-7.8zM353.2 28.2V28c0-2.6 1.5-4 3.1-4 1.2 0 2 .8 2.5 1.6v-4.5h1.1V32h-1.1v-1.5c-.5.9-1.3 1.6-2.5 1.6-1.6 0-3.1-1.3-3.1-3.9zm5.7 0V28c0-1.8-1.1-3-2.4-3-1.2 0-2.2 1.1-2.2 3v.1c0 1.9 1 3 2.2 3 1.3.1 2.4-1.1 2.4-2.9zM366.4 30.2v-5h-.9v-1h.9v-2.3h1.1v2.3h2v1h-2V30c0 .8.5 1.1 1.1 1.1.3 0 .6-.1.9-.2v.9c-.3.2-.7.3-1.2.3-1.1 0-1.9-.5-1.9-1.9zM371.3 21.2h1.1v4.3c.4-.8 1.1-1.4 2.3-1.4 1.6 0 2.6 1.1 2.6 2.9v5h-1.1v-4.8c0-1.4-.7-2.2-1.8-2.2s-2 .9-2 2.2V32h-1.1V21.2zM378.9 28.2c0-2.5 1.4-4.1 3.2-4.1 2 0 3.1 1.7 3.1 4v.4H380c.1 1.7 1.2 2.7 2.4 2.7.9 0 1.5-.4 2-.9l.6.7c-.7.7-1.5 1.2-2.7 1.2-1.8 0-3.4-1.6-3.4-4zm5.3-.5c-.1-1.5-.8-2.7-2.1-2.7-1.2 0-2 1.1-2.1 2.7h4.2zM390.4 29.7c0-1.7 1.2-2.6 2.9-2.6.8 0 1.4.1 2 .3V27c0-1.3-.7-1.9-2-1.9-.8 0-1.5.2-2 .5l-.3-.9c.7-.4 1.5-.6 2.5-.6.9 0 1.7.3 2.2.8.5.5.8 1.2.8 2.1v5h-1.1v-1.1c-.5.7-1.2 1.3-2.4 1.3-1.4 0-2.6-.9-2.6-2.5zm4.9-.4v-1c-.5-.2-1.1-.3-1.9-.3-1.2 0-1.9.6-1.9 1.6s.7 1.6 1.7 1.6c1.1.1 2.1-.8 2.1-1.9zM397.7 31l.6-.8c.7.6 1.5.9 2.3.9.9 0 1.5-.5 1.5-1.2s-.6-1-1.7-1.5c-1.2-.5-2.2-1-2.2-2.3 0-1.3 1-2.1 2.4-2.1.9 0 1.8.3 2.5.8l-.5.8c-.6-.4-1.3-.7-2-.7-.8 0-1.3.5-1.3 1.1 0 .7.7 1 1.7 1.4 1.3.6 2.2 1.1 2.2 2.3 0 1.4-1.1 2.2-2.5 2.2-1.1.2-2.2-.1-3-.9zM404.8 21.2h1.1v7.3l3.5-4.3h1.3l-2.7 3.3 2.9 4.5h-1.3l-2.3-3.7-1.3 1.5V32h-1.1V21.2zM416.2 21.3h1.2v1.3h-1.2v-1.3zm0 2.9h1.1V32h-1.1v-7.8zM418.9 31l.6-.8c.7.6 1.5.9 2.3.9.9 0 1.5-.5 1.5-1.2s-.6-1-1.7-1.5c-1.2-.5-2.2-1-2.2-2.3 0-1.3 1-2.1 2.4-2.1.9 0 1.8.3 2.5.8l-.5.8c-.6-.4-1.3-.7-2-.7-.8 0-1.3.5-1.3 1.1 0 .7.7 1 1.7 1.4 1.3.6 2.2 1.1 2.2 2.3 0 1.4-1.1 2.2-2.5 2.2-1.1.2-2.2-.1-3-.9zM431.1 22.6l-1.7.6-.2-1 2.2-.8h.8V32h-1.1v-9.4zM434.6 30.5h1.3V32h-1.3v-1.5zM437.5 26.8v-.1c0-3.1 1.5-5.4 3.8-5.4s3.8 2.2 3.8 5.3v.1c0 3.1-1.5 5.4-3.8 5.4-2.4.1-3.8-2.1-3.8-5.3zm6.4 0v-.1c0-2.5-1.1-4.3-2.7-4.3s-2.6 1.8-2.6 4.3v.1c0 2.5 1.1 4.3 2.7 4.3s2.6-1.8 2.6-4.3zM451.3 22.6h-4.9v-1h6.1v.9l-4 9.6h-1.2l4-9.5zM457.6 29.6h-4.8l-.2-.8 5.1-7.3h1v7.2h1.4v.9h-1.4V32h-1.1v-2.4zm0-1v-5.4l-3.8 5.4h3.8zM462.7 31.3c-.8-.8-1.2-1.9-1.2-4.1v-.1c0-3.5 1.5-5.7 3.9-5.7 1 0 1.8.3 2.5.9l-.6.9c-.6-.5-1.2-.8-2-.8-1.7 0-2.7 1.9-2.7 4.5.6-.9 1.4-1.4 2.6-1.4 1.7 0 3.2 1.2 3.2 3.2s-1.5 3.5-3.3 3.5c-1 0-1.8-.4-2.4-.9zm4.5-2.6c0-1.4-.9-2.3-2.2-2.3-1.3 0-2.2 1-2.2 2.3 0 1.4.9 2.4 2.2 2.4 1.3.1 2.2-1 2.2-2.4z"/></g></svg>