<?xml version="1.0" encoding="utf-8"?>
<!-- Generator: Adobe Illustrator 19.1.0, SVG Export Plug-In . SVG Version: 6.00 Build 0)  -->
<svg version="1.1" id="Layer_1" xmlns="http://www.w3.org/2000/svg" xmlns:xlink="http://www.w3.org/1999/xlink" x="0px" y="0px"
	 viewBox="-188 168.7 582 224.3" enable-background="new -188 168.7 582 224.3" xml:space="preserve">
<path fill="#073B51" d="M-188,221.6h582v172h-582V221.6z"/>
<path fill="#FFD816" d="M-188,168.7h582v53h-582V168.7z"/>
<path fill="#333333" d="M-73.5,191.3h-2.9v-1h7v1h-3v9.4h-1.1V191.3z M-67.9,189.9h1.1v4.3c0.4-0.8,1.1-1.4,2.3-1.4
	c1.6,0,2.5,1.1,2.5,2.9v5h-1v-4.8c0-1.4-0.7-2.2-1.8-2.2s-2,0.9-2,2.2v4.8h-1.1V189.9z M-60.2,196.9c0-2.5,1.4-4.1,3.2-4.1
	c2,0,3.1,1.7,3.1,4v0.4h-5.2c0.1,1.7,1.2,2.7,2.4,2.7c0.9,0,1.5-0.4,2-0.9l0.6,0.7c-0.7,0.7-1.5,1.2-2.7,1.2
	C-58.7,200.9-60.2,199.3-60.2,196.9L-60.2,196.9z M-55,196.4c-0.1-1.5-0.8-2.7-2.1-2.7c-1.2,0-2,1.1-2.1,2.7H-55L-55,196.4z
	 M-48.7,196.9L-48.7,196.9c0-2.5,1.5-4.1,3.5-4.1c1.1,0,1.9,0.5,2.5,1.1l-0.6,0.8c-0.5-0.5-1-0.9-1.8-0.9c-1.3,0-2.4,1.2-2.4,3v0.1
	c0,1.8,1.1,3,2.4,3c0.8,0,1.3-0.4,1.8-0.9l0.6,0.7c-0.6,0.7-1.4,1.2-2.5,1.2C-47.2,200.9-48.7,199.2-48.7,196.9z M-41.2,198v-5.1
	h1.1v4.8c0,1.4,0.7,2.2,1.8,2.2s2-0.9,2-2.2v-4.8h1.1v7.8h-1.1v-1.3c-0.4,0.8-1.1,1.4-2.3,1.4C-40.2,200.8-41.2,199.8-41.2,198z
	 M-33,192.9h1.1v1.7c0.5-1.1,1.4-1.9,2.7-1.8v1.2h-0.1c-1.5,0-2.6,1-2.6,3v3.7H-33V192.9z M-27.8,192.9h1.1v1.7
	c0.5-1.1,1.4-1.9,2.7-1.8v1.2h-0.1c-1.5,0-2.6,1-2.6,3v3.7h-1.1L-27.8,192.9L-27.8,192.9z M-23.2,196.9c0-2.5,1.4-4.1,3.2-4.1
	c2,0,3.1,1.7,3.1,4v0.4h-5.2c0.1,1.7,1.2,2.7,2.4,2.7c0.9,0,1.5-0.4,2-0.9l0.6,0.7c-0.7,0.7-1.5,1.2-2.7,1.2
	C-21.7,200.9-23.2,199.3-23.2,196.9L-23.2,196.9z M-18,196.4c-0.1-1.5-0.8-2.7-2.1-2.7c-1.2,0-2,1.1-2.1,2.7H-18L-18,196.4z
	 M-15.1,192.9h1.1v1.3c0.4-0.8,1.1-1.4,2.3-1.4c1.6,0,2.5,1.1,2.5,2.9v5h-1.1v-4.8c0-1.4-0.7-2.2-1.8-2.2s-2,0.9-2,2.2v4.8h-1.1
	v-7.8H-15.1z M-6.8,198.9v-5h-0.9v-1h0.9v-2.3h1.1v2.3h2v1h-2v4.8c0,0.8,0.5,1.1,1.1,1.1c0.3,0,0.6-0.1,0.9-0.2v0.9
	c-0.3,0.2-0.7,0.3-1.2,0.3C-5.9,200.8-6.8,200.3-6.8,198.9L-6.8,198.9z M2.1,190.2h6.4v1H3.2v3.7h4.7v1H3.2v3.8h5.4v1H2.1L2.1,190.2
	L2.1,190.2z M10.5,196.8v-6.6h1.1v6.6c0,2,1,3.1,2.7,3.1c1.6,0,2.6-1,2.6-3v-6.6H18v6.4c0,2.7-1.5,4.1-3.8,4.1
	C12,200.9,10.5,199.4,10.5,196.8L10.5,196.8z M20.4,190.2H24c1.2,0,2.2,0.4,2.8,1c0.5,0.5,0.8,1.3,0.8,2.2c0,1.7-1,2.7-2.5,3
	l2.8,4.3h-1.4l-2.6-4.1h-2.4v4.1h-1.1L20.4,190.2L20.4,190.2z M23.8,195.6c1.7,0,2.7-0.9,2.7-2.2c0-1.4-1-2.1-2.5-2.1h-2.4v4.4h2.2
	V195.6z M34.1,188.9h1l-5.8,13.6h-1C28.3,202.5,34.1,188.9,34.1,188.9z M36.2,196.8v-6.6h1.1v6.6c0,2,1,3.1,2.7,3.1
	c1.6,0,2.6-1,2.6-3v-6.6h1.1v6.4c0,2.7-1.5,4.1-3.8,4.1C37.7,200.9,36.2,199.4,36.2,196.8L36.2,196.8z M45.4,199.4l0.7-0.9
	c0.9,0.8,1.8,1.3,3,1.3c1.3,0,2.1-0.8,2.1-1.8c0-0.9-0.4-1.4-2.3-2.1c-2.2-0.8-3-1.6-3-3.1c0-1.6,1.3-2.8,3.2-2.8
	c1.2,0,2.2,0.4,3.1,1.2l-0.7,0.9c-0.8-0.7-1.6-1-2.5-1c-1.2,0-2,0.7-2,1.6c0,0.9,0.5,1.4,2.4,2.2c2.1,0.8,2.9,1.6,2.9,3
	c0,1.7-1.4,2.9-3.3,2.9C47.7,200.8,46.5,200.4,45.4,199.4L45.4,199.4z M54.3,190.2h3c2.9,0,4.9,2.1,4.9,5.2v0.1c0,3.1-2,5.2-4.9,5.2
	h-3V190.2z M55.4,191.2v8.5h1.8c2.3,0,3.8-1.7,3.8-4.2v-0.1c0-2.5-1.5-4.2-3.8-4.2H55.4z M69.1,199.2v1.5H68v-10.8h1.1v4.5
	c0.5-0.9,1.3-1.6,2.5-1.6c1.6,0,3.1,1.4,3.1,4v0.1c0,2.6-1.5,4-3.1,4C70.4,200.8,69.6,200.1,69.1,199.2L69.1,199.2z M73.7,196.9
	v-0.2c0-1.9-1-3-2.2-3s-2.4,1.2-2.4,3v0.1c0,1.8,1.1,3,2.4,3S73.7,198.8,73.7,196.9z M76.7,190h1.2v1.3h-1.2V190z M76.7,192.9h1.1
	v7.8h-1.1V192.9z M79.7,196.9v-0.2c0-2.6,1.5-4,3.1-4c1.2,0,2,0.8,2.5,1.6v-4.5h1.1v10.9h-1.1v-1.5c-0.5,0.9-1.3,1.6-2.5,1.6
	C81.2,200.8,79.7,199.5,79.7,196.9z M85.4,196.9v-0.2c0-1.8-1.1-3-2.4-3c-1.2,0-2.2,1.1-2.2,3v0.1c0,1.9,1,3,2.2,3
	C84.3,199.9,85.4,198.7,85.4,196.9z M92.6,190h1.2v1.3h-1.2V190z M92.6,192.9h1.1v7.8h-1.1V192.9z M95.3,199.7l0.6-0.8
	c0.7,0.6,1.5,0.9,2.3,0.9c0.9,0,1.5-0.5,1.5-1.2c0-0.7-0.6-1-1.7-1.5c-1.2-0.5-2.2-1-2.2-2.2c0-1.3,1-2.1,2.4-2.1
	c0.9,0,1.8,0.3,2.5,0.8l-0.5,0.8c-0.6-0.4-1.3-0.7-2-0.7c-0.8,0-1.3,0.5-1.3,1.1c0,0.7,0.7,1,1.7,1.4c1.3,0.6,2.2,1.1,2.2,2.3
	c0,1.4-1.1,2.2-2.5,2.2C97.2,200.8,96.2,200.5,95.3,199.7z M107.5,191.3l-1.7,0.6l-0.2-1l2.2-0.8h0.8v10.6h-1.1L107.5,191.3
	L107.5,191.3z M111,199.2h1.4v1.5H111L111,199.2L111,199.2z M113.9,195.5v-0.1c0-3.1,1.5-5.4,3.8-5.4s3.8,2.2,3.8,5.3v0.1
	c0,3.1-1.5,5.4-3.8,5.4C115.4,200.9,113.9,198.7,113.9,195.5z M120.3,195.5v-0.1c0-2.5-1.1-4.3-2.7-4.3s-2.6,1.8-2.6,4.3v0.1
	c0,2.5,1.1,4.3,2.7,4.3S120.3,198,120.3,195.5z M127.7,191.3h-4.9v-1h6.1v0.9l-4,9.6h-1.2L127.7,191.3z M134,198.3h-4.8l-0.2-0.8
	l5.1-7.3h1v7.2h1.4v0.9h-1.4v2.4H134C134,200.7,134,198.3,134,198.3z M134,197.3v-5.4l-3.8,5.4H134z M137.7,199.6l0.7-0.8
	c0.7,0.7,1.5,1.1,2.4,1.1c1.3,0,2.3-1,2.3-2.4c0-1.4-1-2.2-2.3-2.2c-0.8,0-1.3,0.2-1.8,0.5l-0.7-0.5l0.3-5h5.2v1h-4.3l-0.2,3.3
	c0.5-0.2,1-0.4,1.7-0.4c1.8,0,3.2,1.1,3.2,3.2c0,2-1.5,3.4-3.4,3.4C139.6,200.9,138.5,200.3,137.7,199.6L137.7,199.6z M149.5,198.4
	c0-1.7,1.2-2.6,2.9-2.6c0.8,0,1.4,0.1,2,0.3v-0.4c0-1.3-0.7-1.9-2-1.9c-0.8,0-1.5,0.2-2,0.5l-0.3-0.9c0.7-0.4,1.5-0.6,2.5-0.6
	c0.9,0,1.7,0.3,2.2,0.8s0.8,1.2,0.8,2.1v5h-1.1v-1.1c-0.5,0.7-1.2,1.3-2.4,1.3C150.7,200.9,149.5,200,149.5,198.4z M154.4,198v-1
	c-0.5-0.2-1.1-0.3-1.9-0.3c-1.2,0-1.9,0.6-1.9,1.6s0.7,1.6,1.7,1.6C153.4,200,154.4,199.1,154.4,198L154.4,198z M157.5,192.9h1.1
	v1.3c0.4-0.8,1.1-1.4,2.3-1.4c1.6,0,2.6,1.1,2.6,2.9v5h-1.1v-4.8c0-1.4-0.7-2.2-1.8-2.2s-2,0.9-2,2.2v4.8h-1.1
	C157.5,200.7,157.5,192.9,157.5,192.9z M165.2,196.9v-0.2c0-2.6,1.5-4,3.1-4c1.2,0,2,0.8,2.5,1.6v-4.5h1.1v10.9h-1.1v-1.5
	c-0.5,0.9-1.3,1.6-2.5,1.6C166.7,200.8,165.2,199.5,165.2,196.9z M170.9,196.9v-0.2c0-1.8-1.1-3-2.4-3c-1.2,0-2.2,1.1-2.2,3v0.1
	c0,1.9,1,3,2.2,3C169.8,199.9,170.9,198.7,170.9,196.9z M178.4,198.9v-5h-0.9v-1h0.9v-2.3h1.1v2.3h2v1h-2v4.8c0,0.8,0.5,1.1,1.1,1.1
	c0.3,0,0.6-0.1,0.9-0.2v0.9c-0.3,0.2-0.7,0.3-1.2,0.3C179.2,200.8,178.4,200.3,178.4,198.9z M183.3,189.9h1.1v4.3
	c0.4-0.8,1.1-1.4,2.3-1.4c1.6,0,2.6,1.1,2.6,2.9v5h-1.1v-4.8c0-1.4-0.7-2.2-1.8-2.2s-2,0.9-2,2.2v4.8h-1.1
	C183.3,200.7,183.3,189.9,183.3,189.9z M190.9,196.9c0-2.5,1.4-4.1,3.2-4.1c2,0,3.1,1.7,3.1,4v0.4H192c0.1,1.7,1.2,2.7,2.4,2.7
	c0.9,0,1.5-0.4,2-0.9l0.6,0.7c-0.7,0.7-1.5,1.2-2.7,1.2C192.5,200.9,190.9,199.3,190.9,196.9L190.9,196.9z M196.2,196.4
	c-0.1-1.5-0.8-2.7-2.1-2.7c-1.2,0-2,1.1-2.1,2.7H196.2z M202.4,198.4c0-1.7,1.2-2.6,2.9-2.6c0.8,0,1.4,0.1,2,0.3v-0.4
	c0-1.3-0.7-1.9-2-1.9c-0.8,0-1.5,0.2-2,0.5l-0.3-0.9c0.7-0.4,1.5-0.6,2.5-0.6c0.9,0,1.7,0.3,2.2,0.8s0.8,1.2,0.8,2.1v5h-1.1v-1.1
	c-0.5,0.7-1.2,1.3-2.4,1.3C203.6,200.9,202.4,200,202.4,198.4z M207.3,198v-1c-0.5-0.2-1.1-0.3-1.9-0.3c-1.2,0-1.9,0.6-1.9,1.6
	s0.7,1.6,1.7,1.6C206.3,200,207.3,199.1,207.3,198L207.3,198z M209.7,199.7l0.6-0.8c0.7,0.6,1.5,0.9,2.3,0.9c0.9,0,1.5-0.5,1.5-1.2
	s-0.6-1-1.7-1.5c-1.2-0.5-2.2-1-2.2-2.2c0-1.3,1-2.1,2.4-2.1c0.9,0,1.8,0.3,2.5,0.8l-0.5,0.8c-0.6-0.4-1.3-0.7-2-0.7
	c-0.8,0-1.3,0.5-1.3,1.1c0,0.7,0.7,1,1.7,1.4c1.3,0.6,2.2,1.1,2.2,2.3c0,1.4-1.1,2.2-2.5,2.2C211.6,200.8,210.5,200.5,209.7,199.7z
	 M216.8,189.9h1.1v7.3l3.5-4.3h1.3l-2.7,3.3l2.9,4.5h-1.3l-2.3-3.7l-1.3,1.5v2.2h-1.1v-10.8H216.8z M228.2,190h1.2v1.3h-1.2V190z
	 M228.2,192.9h1.1v7.8h-1.1C228.2,200.7,228.2,192.9,228.2,192.9z M230.9,199.7l0.6-0.8c0.7,0.6,1.5,0.9,2.3,0.9
	c0.9,0,1.5-0.5,1.5-1.2s-0.6-1-1.7-1.5c-1.2-0.5-2.2-1-2.2-2.2c0-1.3,1-2.1,2.4-2.1c0.9,0,1.8,0.3,2.5,0.8l-0.5,0.8
	c-0.6-0.4-1.3-0.7-2-0.7c-0.8,0-1.3,0.5-1.3,1.1c0,0.7,0.7,1,1.7,1.4c1.3,0.6,2.2,1.1,2.2,2.3c0,1.4-1.1,2.2-2.5,2.2
	C232.8,200.8,231.7,200.5,230.9,199.7z M243.1,191.3l-1.7,0.6l-0.2-1l2.2-0.8h0.8v10.6h-1.1L243.1,191.3L243.1,191.3z M246.6,199.2
	h1.3v1.5h-1.3C246.6,200.7,246.6,199.2,246.6,199.2z M249.5,195.5v-0.1c0-3.1,1.5-5.4,3.8-5.4s3.8,2.2,3.8,5.3v0.1
	c0,3.1-1.5,5.4-3.8,5.4C250.9,200.9,249.5,198.7,249.5,195.5z M255.9,195.5v-0.1c0-2.5-1.1-4.3-2.7-4.3s-2.6,1.8-2.6,4.3v0.1
	c0,2.5,1.1,4.3,2.7,4.3S255.9,198,255.9,195.5z M263.3,191.3h-4.9v-1h6.1v0.9l-4,9.6h-1.2L263.3,191.3z M269.6,198.3h-4.8l-0.2-0.8
	l5.1-7.3h1v7.2h1.4v0.9h-1.4v2.4h-1.1C269.6,200.7,269.6,198.3,269.6,198.3z M269.6,197.3v-5.4l-3.8,5.4H269.6z M274.7,200
	c-0.8-0.8-1.2-1.9-1.2-4.1v-0.1c0-3.5,1.5-5.7,3.9-5.7c1,0,1.8,0.3,2.5,0.9l-0.6,0.9c-0.6-0.5-1.2-0.8-2-0.8c-1.7,0-2.7,1.9-2.7,4.5
	c0.6-0.9,1.4-1.4,2.6-1.4c1.7,0,3.2,1.2,3.2,3.2s-1.5,3.5-3.3,3.5C276.1,200.9,275.3,200.5,274.7,200z M279.2,197.4
	c0-1.4-0.9-2.3-2.2-2.3c-1.3,0-2.2,1-2.2,2.3c0,1.4,0.9,2.4,2.2,2.4C278.3,199.9,279.2,198.8,279.2,197.4z"/>
<path fill="#FFFFFF" d="M-107.8,288.1c1.7-0.8,3.3-2.3,3.3-5V283c0-1.5-0.5-2.8-1.5-3.8c-1.2-1.2-3.3-1.9-5.7-1.9h-8v22.4h8.2
	c4.8,0,8-2.2,8-6.1v-0.1C-103.5,290.5-105.3,289-107.8,288.1z M-116.1,280.6h4.1c2.4,0,3.8,1.1,3.8,3v0.1c0,2.1-1.6,3.2-4,3.2h-3.9
	C-116.1,286.9-116.1,280.6-116.1,280.6z M-107.2,293.2c0,2-1.6,3.2-4.2,3.2h-4.7V290h4.5C-108.7,290-107.2,291.2-107.2,293.2z
	 M-90.5,282.7h3.6v17h-3.6v-2.5c-1,1.5-2.3,2.8-4.6,2.8c-3.3,0-5.2-2.3-5.2-5.9v-11.4h3.6V293c0,2.4,1.1,3.7,3,3.7s3.2-1.4,3.2-3.7
	V282.7z M-72.7,282.7h3.7l-5.8,17.2c-1.2,3.4-2.5,4.7-5,4.7c-1.2,0-2.4-0.3-3.4-0.9l1.1-2.8c0.6,0.3,1.3,0.6,2,0.6
	c1,0,1.5-0.4,2-1.8l-6-17h3.8l3.9,12.3C-76.4,295-72.7,282.7-72.7,282.7z M-45.4,299.7v-10.5c0-2.1-0.6-3.8-1.7-4.9
	c-1.1-1.1-2.8-1.7-5-1.7c-2.3,0-4,0.5-5.6,1.3l1,2.9c1.1-0.5,2.5-1,4.1-1c2.3,0,3.6,1.2,3.6,3.5v0.7c-1.2-0.4-2.3-0.7-3.9-0.7
	c-3.6,0-6,1.8-6,5.4v0.2c0,3.3,2.4,5.2,5.2,5.2c2.2,0,3.7-1,4.7-2.4v2.1h3.6L-45.4,299.7z M-52.6,297.3c-1.6,0-2.8-1-2.8-2.7v-0.1
	c0-1.8,1.2-2.8,3.3-2.8c1.2,0,2.3,0.3,3.1,0.6v1.7C-48.9,295.9-50.5,297.3-52.6,297.3z M-40.9,285.8h-1.9v-3.1h1.9v-4.6h3.6v4.6h3.8
	v3.1h-3.8v9c0,1.3,0.7,1.9,1.8,1.9c0.7,0,1.3-0.2,2-0.5v3c-0.8,0.4-1.8,0.7-3,0.7c-2.5,0-4.4-1.1-4.4-4.4L-40.9,285.8L-40.9,285.8z
	 M-15,277.2l-8.2,22.5h3.7l1.9-5.3h8.7l1.9,5.3h3.9l-8.2-22.5C-11.3,277.2-15,277.2-15,277.2z M-16.5,291.1l3.2-9l3.2,9H-16.5z
	 M10.3,294.8c0,3.4-2.5,5.2-5.8,5.2c-2,0-4.4-0.7-6.3-2.4l1.7-2.6c1.5,1.2,3.2,2,4.7,2s2.4-0.8,2.4-1.9c0-1.2-1.3-1.8-3.3-2.6
	c-2.5-1.1-4.6-2.2-4.6-5v-0.1c0-3,2.4-5,5.6-5c1.9,0,3.9,0.7,5.5,1.8l-1.5,2.7c-1.3-0.9-2.7-1.5-4-1.5s-2.1,0.7-2.1,1.7v0.1
	c0,1.1,1.3,1.7,3.3,2.6C8.3,291,10.3,292.2,10.3,294.8L10.3,294.8z M21.5,289.7l5.8,10h-4.2l-4.1-7.3l-2,2.4v4.9h-3.6v-23.1H17v13.6
	l5.8-7.5h4.3C27.1,282.7,21.5,289.7,21.5,289.7z M-79.1,320.2h1.2v22.5h-1.5v-20.8l-3.7,1.4l-0.3-1.4L-79.1,320.2z M-72.6,340h2.1
	v2.7h-2.1V340z M-59,319.9c-4.8,0-7.9,4.8-7.9,11.5v0.2c0,6.7,3,11.4,7.9,11.4c4.8,0,7.9-4.8,7.9-11.5v-0.2
	C-51.1,324.7-54.1,319.9-59,319.9z M-52.7,331.6c0,5.6-2.4,10-6.2,10s-6.3-4.4-6.3-10v-0.2c0-5.7,2.4-10,6.2-10
	c3.8,0,6.3,4.4,6.3,10V331.6z M-48.3,320.3h12.7v1.2l-8.7,21.2H-46l8.6-20.9h-10.9L-48.3,320.3L-48.3,320.3z M-23,320.1h-1.4l-11,16
	l0.4,1.2h10.5v5.4h1.5v-5.4h3.1v-1.4H-23V320.1z M-24.5,335.9h-9.1l9.1-13.2V335.9z M-3.6,335.8c0,4.3-3,7.3-7.1,7.3
	c-2.5,0-4.8-1.2-6.3-2.8l1-1.2c1.5,1.5,3.4,2.5,5.4,2.5c3.1,0,5.4-2.4,5.4-5.7v-0.1c0-3.3-2.3-5.3-5.3-5.3c-1.8,0-3,0.5-4.2,1.2
	l-1.2-0.8l0.6-10.6h10.8v1.5h-9.4l-0.5,8.3c1.2-0.5,2.3-1,4-1C-6.6,329.1-3.6,331.6-3.6,335.8L-3.6,335.8z M194.4,293.5
	c0,4-3.1,6.5-7.3,6.5c-2.9,0-5.7-1-8.1-3.2l2.2-2.8c1.7,1.5,3.5,2.7,5.9,2.7c2.1,0,3.5-1.2,3.5-2.8c0-1.4-0.7-2.3-4.3-3.6
	c-4.3-1.6-6.5-3.2-6.5-6.8v-0.1c0-3.7,2.9-6.3,7.1-6.3c2.6,0,5,0.8,7,2.6l-2.1,2.8c-1.5-1.2-3.2-2.1-5-2.1c-2,0-3.3,1.1-3.3,2.6
	c0,1.6,0.8,2.4,4.6,3.9C192.4,288.5,194.4,290.2,194.4,293.5L194.4,293.5z M208.8,295.2c-1.1,1.1-2.3,1.8-3.9,1.8
	c-2.2,0-4-1.5-4.3-4.4h10.6v-1.2c0-5.1-2.4-8.9-7-8.9c-4.2,0-7.2,3.6-7.2,8.7v0.3c0,5.3,3.4,8.6,7.7,8.6c2.5,0,4.4-1,6-2.6
	L208.8,295.2L208.8,295.2z M204.2,285.5c2.1,0,3.3,2,3.5,4.6h-7.2C200.8,287.2,202.3,285.5,204.2,285.5z M214.7,276.6h3.6v23.1h-3.6
	V276.6L214.7,276.6z M226.4,299.7h-3.6v-23.1h3.6V299.7L226.4,299.7z M243.2,300c2.2,0,3.7-1,4.7-2.4v2.1h3.6v-10.5
	c0-2.1-0.6-3.8-1.7-4.9c-1.1-1.1-2.8-1.7-5-1.7c-2.3,0-4,0.5-5.6,1.3l1,2.9c1.1-0.5,2.5-1,4.1-1c2.3,0,3.6,1.2,3.6,3.5v0.7
	c-1.2-0.4-2.3-0.7-3.9-0.7c-3.6,0-6,1.8-6,5.4v0.2C238,298.1,240.4,300,243.2,300L243.2,300z M241.6,294.5c0-1.8,1.2-2.8,3.3-2.8
	c1.2,0,2.3,0.3,3.1,0.6v1.7c0,1.9-1.6,3.3-3.7,3.3C242.7,297.3,241.6,296.3,241.6,294.5L241.6,294.5z M255.9,295.6v-9.8H254v-3.1
	h1.9v-4.6h3.6v4.6h3.8v3.1h-3.8v9c0,1.3,0.7,1.9,1.8,1.9c0.7,0,1.3-0.2,2-0.5v3c-0.8,0.4-1.8,0.7-3,0.7
	C257.8,300,255.9,298.9,255.9,295.6L255.9,295.6z M287.2,288.1c1.7-0.8,3.3-2.3,3.3-5V283c0-1.5-0.5-2.8-1.5-3.8
	c-1.2-1.2-3.3-1.9-5.7-1.9h-8v22.4h8.2c4.8,0,8-2.2,8-6.1v-0.1C291.4,290.5,289.6,289,287.2,288.1L287.2,288.1z M278.9,280.6h4.1
	c2.4,0,3.8,1.1,3.8,3v0.1c0,2.1-1.6,3.2-4,3.2h-3.9C278.9,286.9,278.9,280.6,278.9,280.6z M287.7,293.2c0,2-1.6,3.2-4.2,3.2h-4.7
	V290h4.5C286.2,290,287.7,291.2,287.7,293.2L287.7,293.2z M295,282.7h3.6v17H295V282.7z M294.8,276.7h3.8v3.6h-3.8V276.7z
	 M313.7,276.6v8.7c-1-1.5-2.5-2.9-5-2.9c-3.4,0-6.6,2.9-6.6,8.6v0.4c0,5.7,3.2,8.6,6.6,8.6c2.4,0,3.9-1.4,5-3v2.7h3.6v-23.1H313.7z
	 M313.8,291.4c0,3.3-1.9,5.4-4,5.4s-3.9-2.1-3.9-5.5V291c0-3.4,1.7-5.5,3.9-5.5s4,2.1,4,5.4V291.4z M212.2,320.2h1.2v22.5h-1.5
	v-20.8l-3.7,1.4l-0.3-1.4L212.2,320.2z M218.7,340h2.1v2.7h-2.1V340z M232.3,319.9c-4.8,0-7.9,4.8-7.9,11.5v0.2
	c0,6.7,3,11.4,7.9,11.4c4.8,0,7.9-4.8,7.9-11.5v-0.2C240.2,324.7,237.2,319.9,232.3,319.9z M238.6,331.6c0,5.6-2.4,10-6.2,10
	c-3.8,0-6.3-4.4-6.3-10v-0.2c0-5.7,2.4-10,6.2-10c3.8,0,6.3,4.4,6.3,10V331.6z M243,320.3h12.7v1.2l-8.7,21.2h-1.7l8.6-20.9H243
	L243,320.3L243,320.3z M268.3,320.1h-1.4l-11,16l0.4,1.2h10.5v5.4h1.5v-5.4h3.1v-1.4h-3.1V320.1z M266.8,335.9h-9.1l9.1-13.2V335.9z
	 M282.1,328.9c-2.7,0-4.7,1.4-5.9,3.7v-0.1c0-6.6,2.4-11.1,6.4-11.1c1.8,0,3.1,0.7,4.4,1.8l0.9-1.2c-1.6-1.3-3.1-2-5.2-2
	c-4.9,0-8,4.8-8,12.2v0.3c0,4.8,1,7.1,2.6,8.8c1.2,1.2,2.8,1.9,4.7,1.9c3.8,0,6.8-3.1,6.8-7.4v-0.1
	C288.8,331.4,285.6,328.9,282.1,328.9L282.1,328.9z M287.1,335.8c0,3.2-2,5.9-5.1,5.9c-3.2,0-5.3-2.5-5.3-5.8v-0.2
	c0-3,2.3-5.4,5.3-5.4S287.1,332.4,287.1,335.8z"/>
<path fill="#5D7F8D" d="M103.2,250.8V265h-0.5v-14.2H103.2z M102.8,284.3h0.5v-14.2h-0.5V284.3z M102.8,304.3h0.5v-14.2h-0.5V304.3z
	 M102.8,324.3h0.5v-14.2h-0.5V324.3z M102.8,344.3h0.5v-14.2h-0.5V344.3z M102.8,364.3h0.5v-14.2h-0.5V364.3z"/>
</svg>
