<?xml version="1.0" encoding="utf-8"?>
<!-- Generator: Adobe Illustrator 24.1.0, SVG Export Plug-In . SVG Version: 6.00 Build 0)  -->
<svg version="1.1" id="Layer_1" xmlns="http://www.w3.org/2000/svg" xmlns:xlink="http://www.w3.org/1999/xlink" x="0px" y="0px"
	 viewBox="0 0 262 262" style="enable-background:new 0 0 262 262;" xml:space="preserve">
<style type="text/css">
	.st0{fill:none;stroke:url(#SVGID_1_);stroke-width:2;stroke-linecap:round;stroke-linejoin:round;stroke-miterlimit:10;}
	.st1{fill:none;stroke:url(#SVGID_2_);stroke-width:2;stroke-linecap:round;stroke-linejoin:round;stroke-miterlimit:10;}
	.st2{fill:none;stroke:url(#SVGID_3_);stroke-width:2;stroke-linecap:round;stroke-linejoin:round;stroke-miterlimit:10;}
	.st3{fill:none;stroke:url(#SVGID_4_);stroke-width:2;stroke-linecap:round;stroke-linejoin:round;stroke-miterlimit:10;}
	.st4{fill:none;stroke:url(#SVGID_5_);stroke-width:2;stroke-linecap:round;stroke-linejoin:round;stroke-miterlimit:10;}
	.st5{fill:none;stroke:url(#SVGID_6_);stroke-width:2;stroke-linecap:round;stroke-linejoin:round;stroke-miterlimit:10;}
	.st6{fill:none;stroke:url(#SVGID_7_);stroke-width:2;stroke-linecap:round;stroke-linejoin:round;stroke-miterlimit:10;}
	.st7{fill:none;stroke:url(#SVGID_8_);stroke-width:2;stroke-linecap:round;stroke-linejoin:round;stroke-miterlimit:10;}
	.st8{fill:none;stroke:url(#SVGID_9_);stroke-width:2;stroke-linecap:round;stroke-linejoin:round;stroke-miterlimit:10;}
	.st9{fill:none;stroke:url(#SVGID_10_);stroke-width:2;stroke-linecap:round;stroke-linejoin:round;stroke-miterlimit:10;}
	.st10{fill:none;stroke:url(#SVGID_11_);stroke-width:2;stroke-linecap:round;stroke-linejoin:round;stroke-miterlimit:10;}
	.st11{fill:none;stroke:url(#SVGID_12_);stroke-width:2;stroke-linecap:round;stroke-linejoin:round;stroke-miterlimit:10;}
</style>
<g>
	<g>
		<linearGradient id="SVGID_1_" gradientUnits="userSpaceOnUse" x1="37.066" y1="87.518" x2="134.3881" y2="87.518">
			<stop  offset="0" style="stop-color:#81CF57"/>
			<stop  offset="1" style="stop-color:#80E491"/>
		</linearGradient>
		<path class="st0" d="M133.4,96.2c0-9.6-21.3-17.3-47.6-17.3s-47.8,7.7-47.8,17.3"/>
		<linearGradient id="SVGID_2_" gradientUnits="userSpaceOnUse" x1="37.0666" y1="138.5834" x2="134.2687" y2="138.5834">
			<stop  offset="0" style="stop-color:#81CF57"/>
			<stop  offset="1" style="stop-color:#80E491"/>
		</linearGradient>
		<path class="st1" d="M38.1,181V96.2c0,9.6,21.3,17.3,47.6,17.3s47.6-7.7,47.6-17.3v43.1"/>
		<linearGradient id="SVGID_3_" gradientUnits="userSpaceOnUse" x1="37.0666" y1="124.9529" x2="113.3626" y2="124.9529">
			<stop  offset="0" style="stop-color:#81CF57"/>
			<stop  offset="1" style="stop-color:#80E491"/>
		</linearGradient>
		<path class="st2" d="M38.1,116.3c0,9.6,21.3,17.3,47.6,17.3c9,0.1,17.9-0.9,26.7-3"/>
		<linearGradient id="SVGID_4_" gradientUnits="userSpaceOnUse" x1="37.0666" y1="146.4584" x2="113.3626" y2="146.4584">
			<stop  offset="0" style="stop-color:#81CF57"/>
			<stop  offset="1" style="stop-color:#80E491"/>
		</linearGradient>
		<path class="st3" d="M38.1,137.8c0,9.6,21.3,17.3,47.6,17.3c9,0.1,17.9-0.9,26.7-3"/>
		<linearGradient id="SVGID_5_" gradientUnits="userSpaceOnUse" x1="37.0666" y1="168.1894" x2="113.3626" y2="168.1894">
			<stop  offset="0" style="stop-color:#81CF57"/>
			<stop  offset="1" style="stop-color:#80E491"/>
		</linearGradient>
		<path class="st4" d="M38.1,159.6c0,9.6,21.3,17.2,47.6,17.2c9,0.1,17.9-0.9,26.7-3"/>
		<linearGradient id="SVGID_6_" gradientUnits="userSpaceOnUse" x1="37.0666" y1="189.666" x2="113.3626" y2="189.666">
			<stop  offset="0" style="stop-color:#81CF57"/>
			<stop  offset="1" style="stop-color:#80E491"/>
		</linearGradient>
		<path class="st5" d="M38.1,181c0,9.6,21.3,17.2,47.6,17.2c9,0.1,17.9-0.9,26.7-3"/>
		<linearGradient id="SVGID_7_" gradientUnits="userSpaceOnUse" x1="117.6003" y1="42.2718" x2="214.7724" y2="42.2718">
			<stop  offset="0" style="stop-color:#81CF57"/>
			<stop  offset="1" style="stop-color:#80E491"/>
		</linearGradient>
		<path class="st6" d="M118.6,50.8c0-9.4,21.3-17.1,47.6-17.1s47.6,7.8,47.6,17.1"/>
		<linearGradient id="SVGID_8_" gradientUnits="userSpaceOnUse" x1="145.166" y1="79.9594" x2="214.9232" y2="79.9594">
			<stop  offset="0" style="stop-color:#81CF57"/>
			<stop  offset="1" style="stop-color:#80E491"/>
		</linearGradient>
		<path class="st7" d="M213.9,71.4c0,9.4-21.3,17.1-47.6,17.1c-6.8,0-13.5-0.6-20.2-1.7"/>
		<linearGradient id="SVGID_9_" gradientUnits="userSpaceOnUse" x1="148.3454" y1="100.2395" x2="214.9232" y2="100.2395">
			<stop  offset="0" style="stop-color:#81CF57"/>
			<stop  offset="1" style="stop-color:#80E491"/>
		</linearGradient>
		<path class="st8" d="M213.9,91.7c0,9.4-32.2,20.6-64.6,16"/>
		<linearGradient id="SVGID_10_" gradientUnits="userSpaceOnUse" x1="117.7511" y1="89.4829" x2="214.9232" y2="89.4829">
			<stop  offset="0" style="stop-color:#81CF57"/>
			<stop  offset="1" style="stop-color:#80E491"/>
		</linearGradient>
		<path class="st9" d="M213.9,128.1V50.8c0,9.4-21.3,17.1-47.6,17.1s-47.6-7.6-47.6-17.1v20.3"/>
	</g>
	<linearGradient id="SVGID_11_" gradientUnits="userSpaceOnUse" x1="128.6927" y1="181.0413" x2="224.934" y2="181.0413">
		<stop  offset="0" style="stop-color:#81CF57"/>
		<stop  offset="1" style="stop-color:#80E491"/>
	</linearGradient>
	<ellipse class="st10" cx="176.8" cy="181" rx="47.1" ry="47.3"/>
	<linearGradient id="SVGID_12_" gradientUnits="userSpaceOnUse" x1="152.8547" y1="179.496" x2="200.7737" y2="179.496">
		<stop  offset="0" style="stop-color:#81CF57"/>
		<stop  offset="1" style="stop-color:#80E491"/>
	</linearGradient>
	<path class="st11" d="M199.8,174.3v0.7c-0.4,0.4-0.7,1.4-2.5,1.4h-7.5c-1.4,0-2.5,1.1-2.5,2.5v23.2c0,2.5-1.8,4.3-4.6,4.3h-11.7
		c-1.1,0-2.1-0.4-2.8-1.1c-0.7-0.7-1.1-1.8-1.1-2.9v-23.2c0-1.4-1.1-2.5-2.5-2.5h-8.2c-1.8-0.4-2.1-1.1-2.5-1.8v-0.7
		c0-0.7,0.4-1.4,1.1-2.1l18.9-18.2c1.8-1.8,4.6-1.8,6.4,0l19.2,18.6C199.8,173.2,199.8,173.9,199.8,174.3z"/>
</g>
</svg>
