<?xml version="1.0" encoding="utf-8"?>
<!-- Generator: Adobe Illustrator 24.1.0, SVG Export Plug-In . SVG Version: 6.00 Build 0)  -->
<svg version="1.1" id="Layer_1" xmlns="http://www.w3.org/2000/svg" xmlns:xlink="http://www.w3.org/1999/xlink" x="0px" y="0px"
	 viewBox="0 0 262 262" style="enable-background:new 0 0 262 262;" xml:space="preserve">
<style type="text/css">
	.st0{fill:none;stroke:url(#SVGID_1_);stroke-width:2;stroke-linecap:round;stroke-linejoin:round;stroke-miterlimit:10;}
	.st1{fill:none;stroke:url(#SVGID_2_);stroke-width:2;stroke-linecap:round;stroke-linejoin:round;stroke-miterlimit:10;}
	.st2{fill:none;stroke:url(#SVGID_3_);stroke-width:2;stroke-linecap:round;stroke-linejoin:round;stroke-miterlimit:10;}
	.st3{fill:none;stroke:url(#SVGID_4_);stroke-width:2;stroke-linecap:round;stroke-linejoin:round;stroke-miterlimit:10;}
	.st4{fill:none;stroke:url(#SVGID_5_);stroke-width:2;stroke-linecap:round;stroke-linejoin:round;stroke-miterlimit:10;}
	.st5{fill:none;stroke:url(#SVGID_6_);stroke-width:2;stroke-linecap:round;stroke-linejoin:round;stroke-miterlimit:10;}
	.st6{fill:none;stroke:url(#SVGID_7_);stroke-width:2;stroke-linecap:round;stroke-linejoin:round;stroke-miterlimit:10;}
	.st7{fill:none;stroke:url(#SVGID_8_);stroke-width:2;stroke-linecap:round;stroke-linejoin:round;stroke-miterlimit:10;}
</style>
<g>
	
		<linearGradient id="SVGID_1_" gradientUnits="userSpaceOnUse" x1="107.57" y1="145.3556" x2="193.79" y2="145.3556" gradientTransform="matrix(1 0 0 -1 0 262.9608)">
		<stop  offset="0" style="stop-color:#81CF57"/>
		<stop  offset="1" style="stop-color:#80E491"/>
	</linearGradient>
	<path class="st0" d="M108.6,112v41.6c0,3.1,2.5,5.6,5.6,5.6h73c3.1,0,5.6-2.5,5.6-5.6V81.6c0-3.1-2.5-5.6-5.6-5.6h-44.3h-14.4"/>
	
		<linearGradient id="SVGID_2_" gradientUnits="userSpaceOnUse" x1="51.45" y1="193.5306" x2="118.46" y2="193.5306" gradientTransform="matrix(1 0 0 -1 0 262.9608)">
		<stop  offset="0" style="stop-color:#81CF57"/>
		<stop  offset="1" style="stop-color:#80E491"/>
	</linearGradient>
	<path class="st1" d="M56.8,101.5h56.3c2.4,0,4.3-1.9,4.3-4.3V41.6c0-2.4-1.9-4.3-4.3-4.3H56.8c-2.4,0-4.3,1.9-4.3,4.3v55.6
		C52.5,99.6,54.4,101.5,56.8,101.5z"/>
	
		<linearGradient id="SVGID_3_" gradientUnits="userSpaceOnUse" x1="170.78" y1="91.8306" x2="233.71" y2="91.8306" gradientTransform="matrix(1 0 0 -1 0 262.9608)">
		<stop  offset="0" style="stop-color:#81CF57"/>
		<stop  offset="1" style="stop-color:#80E491"/>
	</linearGradient>
	<path class="st2" d="M171.8,167.1v30.1c0,2.2,1.8,4,4.1,4h52.8c2.2,0,4.1-1.8,4.1-4v-52.1c0-2.2-1.8-4-4.1-4h-27.3"/>
	
		<linearGradient id="SVGID_4_" gradientUnits="userSpaceOnUse" x1="191.43" y1="91.4006" x2="212.56" y2="91.4006" gradientTransform="matrix(1 0 0 -1 0 262.9608)">
		<stop  offset="0" style="stop-color:#81CF57"/>
		<stop  offset="1" style="stop-color:#80E491"/>
	</linearGradient>
	<path class="st3" d="M204.9,189.7v-16.6h5.6l0.8-6.5h-6.5v-4.1c0-1.9,0.5-3.1,3.2-3.1h3.5v-5.8c-0.6-0.1-2.6-0.2-5.1-0.2
		c-5,0-8.4,3-8.4,8.5v4.8h-5.6v6.5h5.6v16.6H204.9z"/>
	
		<linearGradient id="SVGID_5_" gradientUnits="userSpaceOnUse" x1="125.44" y1="145.0606" x2="178.52" y2="145.0606" gradientTransform="matrix(1 0 0 -1 0 262.9608)">
		<stop  offset="0" style="stop-color:#81CF57"/>
		<stop  offset="1" style="stop-color:#80E491"/>
	</linearGradient>
	<path class="st4" d="M177.5,102.3c-1.9,0.8-3.9,1.4-6,1.6c2.2-1.3,3.8-3.3,4.6-5.7c-2,1.2-4.3,2.1-6.6,2.5c-1.9-2-4.6-3.3-7.6-3.3
		c-5.8,0-10.5,4.6-10.5,10.3c0,0.8,0.1,1.6,0.3,2.4c-8.7-0.4-16.4-4.6-21.6-10.8c-0.9,1.5-1.4,3.3-1.4,5.2c0,3.6,1.9,6.8,4.7,8.6
		c-1.7-0.1-3.3-0.5-4.8-1.3v0.1c0,5,3.6,9.2,8.4,10.2c-0.9,0.2-1.8,0.4-2.8,0.4c-0.7,0-1.3-0.1-2-0.2c1.3,4.1,5.2,7.1,9.8,7.2
		c-3.6,2.8-8.1,4.4-13,4.4c-0.8,0-1.7-0.1-2.5-0.1c4.6,2.9,10.1,4.6,16.1,4.6c19.3,0,29.8-15.8,29.8-29.4c0-0.4,0-0.9,0-1.3
		C174.3,106.2,176.1,104.3,177.5,102.3z"/>
	
		<linearGradient id="SVGID_6_" gradientUnits="userSpaceOnUse" x1="28.29" y1="88.8806" x2="132.75" y2="88.8806" gradientTransform="matrix(1 0 0 -1 0 262.9608)">
		<stop  offset="0" style="stop-color:#81CF57"/>
		<stop  offset="1" style="stop-color:#80E491"/>
	</linearGradient>
	<path class="st5" d="M100.4,123.5H36.1c-3.8,0-6.8,3-6.8,6.8v87.7c0,3.7,3.1,6.8,6.8,6.8h88.8c3.8,0,6.8-3,6.8-6.8v-47.6"/>
	
		<linearGradient id="SVGID_7_" gradientUnits="userSpaceOnUse" x1="57.5695" y1="91.0137" x2="103.46" y2="91.0137" gradientTransform="matrix(1 0 0 -1 0 262.9608)">
		<stop  offset="0" style="stop-color:#81CF57"/>
		<stop  offset="1" style="stop-color:#80E491"/>
	</linearGradient>
	<path class="st6" d="M95.2,173.6c-0.1-6.7,5.6-10,5.8-10.1c-3.2-4.6-8.1-5.2-9.9-5.3c-4.2-0.4-8.2,2.4-10.3,2.4
		c-2.1,0-5.4-2.4-8.9-2.3c-4.6,0.1-8.8,2.6-11.2,6.7c-4.8,8.1-1.2,20.2,3.4,26.8c2.3,3.2,5,6.9,8.5,6.7c3.4-0.1,4.7-2.2,8.8-2.2
		c4.1,0,5.3,2.2,8.9,2.1c3.7-0.1,6-3.3,8.2-6.5c2.6-3.8,3.7-7.4,3.7-7.6C102.4,184.4,95.3,181.7,95.2,173.6z M88.4,153.8
		c1.9-2.3,3.2-5.4,2.8-8.5c-2.7,0.1-6,1.8-7.9,4c-1.7,2-3.3,5.2-2.9,8.2C83.5,157.8,86.6,156.1,88.4,153.8z"/>
	
		<linearGradient id="SVGID_8_" gradientUnits="userSpaceOnUse" x1="67.82" y1="192.9206" x2="101" y2="192.9206" gradientTransform="matrix(1 0 0 -1 0 262.9608)">
		<stop  offset="0" style="stop-color:#81CF57"/>
		<stop  offset="1" style="stop-color:#80E491"/>
	</linearGradient>
	<path class="st7" d="M99.7,67.2h-15v6.2h8.6c-0.4,2-1.5,3.7-3.2,4.8c-1.4,0.9-3.2,1.5-5.4,1.5c-4.1,0-7.7-2.8-8.9-6.6
		c-0.3-0.9-0.5-2-0.5-3c0-1.1,0.2-2.1,0.5-3c1.2-3.8,4.8-6.6,8.9-6.6c2.3,0,4.4,0.8,6.1,2.4l4.6-4.6c-2.8-2.6-6.4-4.1-10.6-4.1
		c-6.2,0-11.6,3.6-14.2,8.8c-1.1,2.2-1.7,4.6-1.7,7.1s0.6,5,1.7,7.1c2.6,5.2,8,8.8,14.2,8.8c4.3,0,7.9-1.4,10.5-3.8
		c3-2.8,4.7-6.8,4.7-11.7C100,69.3,99.9,68.2,99.7,67.2z"/>
</g>
</svg>
