<svg xmlns="http://www.w3.org/2000/svg" viewBox="0 0 582 367"><path fill="#073B51" d="M0 51h582v316H0z"/><path fill="#FFD816" d="M0 0h582v53H0z"/><g fill="#333"><path d="M114.5 20.6h-2.9v-1h7v1h-3V30h-1.1v-9.4zM120.1 19.2h1.1v4.3c.4-.8 1.1-1.4 2.3-1.4 1.6 0 2.5 1.1 2.5 2.9v5h-1v-4.8c0-1.4-.7-2.2-1.8-2.2s-2 .9-2 2.2V30h-1.1V19.2zM127.8 26.2c0-2.5 1.4-4.1 3.2-4.1 2 0 3.1 1.7 3.1 4v.4h-5.2c.1 1.7 1.2 2.7 2.4 2.7.9 0 1.5-.4 2-.9l.6.7c-.7.7-1.5 1.2-2.7 1.2-1.9 0-3.4-1.6-3.4-4zm5.2-.5c-.1-1.5-.8-2.7-2.1-2.7-1.2 0-2 1.1-2.1 2.7h4.2zM139.3 26.2v-.1c0-2.4 1.5-4 3.5-4 1.1 0 1.9.5 2.5 1.1l-.6.8c-.5-.5-1-.9-1.8-.9-1.3 0-2.4 1.2-2.4 3v.1c0 1.8 1.1 3 2.4 3 .8 0 1.3-.4 1.8-.9l.6.7c-.6.7-1.4 1.2-2.5 1.2-2 0-3.5-1.7-3.5-4zM146.8 27.3v-5.1h1.1V27c0 1.4.7 2.2 1.8 2.2s2-.9 2-2.2v-4.8h1.1V30h-1.1v-1.3c-.4.8-1.1 1.4-2.3 1.4-1.6 0-2.6-1-2.6-2.8zM155 22.2h1.1v1.7c.5-1.1 1.4-1.9 2.7-1.8v1.2h-.1c-1.5 0-2.6 1-2.6 3V30H155v-7.8zM160.2 22.2h1.1v1.7c.5-1.1 1.4-1.9 2.7-1.8v1.2h-.1c-1.5 0-2.6 1-2.6 3V30h-1.1v-7.8zM164.8 26.2c0-2.5 1.4-4.1 3.2-4.1 2 0 3.1 1.7 3.1 4v.4h-5.2c.1 1.7 1.2 2.7 2.4 2.7.9 0 1.5-.4 2-.9l.6.7c-.7.7-1.5 1.2-2.7 1.2-1.9 0-3.4-1.6-3.4-4zm5.2-.5c-.1-1.5-.8-2.7-2.1-2.7-1.2 0-2 1.1-2.1 2.7h4.2zM172.9 22.2h1.1v1.3c.4-.8 1.1-1.4 2.3-1.4 1.6 0 2.5 1.1 2.5 2.9v5h-1.1v-4.8c0-1.4-.7-2.2-1.8-2.2s-2 .9-2 2.2V30h-1.1v-7.8zM181.2 28.2v-5h-.9v-1h.9v-2.3h1.1v2.3h2v1h-2V28c0 .8.5 1.1 1.1 1.1.3 0 .6-.1.9-.2v.9c-.3.2-.7.3-1.2.3-1 0-1.9-.5-1.9-1.9zM190.1 19.5h6.4v1h-5.3v3.7h4.7v1h-4.7V29h5.4v1h-6.5V19.5zM198.5 26.1v-6.6h1.1v6.6c0 2 1 3.1 2.7 3.1 1.6 0 2.6-1 2.6-3v-6.6h1.1V26c0 2.7-1.5 4.1-3.8 4.1-2.2.1-3.7-1.4-3.7-4zM208.4 19.5h3.6c1.2 0 2.2.4 2.8 1 .5.5.8 1.3.8 2.2 0 1.7-1 2.7-2.5 3l2.8 4.3h-1.4l-2.6-4.1h-2.4V30h-1.1V19.5zm3.4 5.4c1.7 0 2.7-.9 2.7-2.2 0-1.4-1-2.1-2.5-2.1h-2.4V25h2.2zM222.1 18.2h1l-5.8 13.6h-1l5.8-13.6zM224.2 26.1v-6.6h1.1v6.6c0 2 1 3.1 2.7 3.1 1.6 0 2.6-1 2.6-3v-6.6h1.1V26c0 2.7-1.5 4.1-3.8 4.1-2.2.1-3.7-1.4-3.7-4zM233.4 28.7l.7-.9c.9.8 1.8 1.3 3 1.3 1.3 0 2.1-.8 2.1-1.8 0-.9-.4-1.4-2.3-2.1-2.2-.8-3-1.6-3-3.1 0-1.6 1.3-2.8 3.2-2.8 1.2 0 2.2.4 3.1 1.2l-.7.9c-.8-.7-1.6-1-2.5-1-1.2 0-2 .7-2 1.6 0 .9.5 1.4 2.4 2.2 2.1.8 2.9 1.6 2.9 3 0 1.7-1.4 2.9-3.3 2.9-1.3 0-2.5-.4-3.6-1.4zM242.3 19.5h3c2.9 0 4.9 2.1 4.9 5.2v.1c0 3.1-2 5.2-4.9 5.2h-3V19.5zm1.1 1V29h1.8c2.3 0 3.8-1.7 3.8-4.2v-.1c0-2.5-1.5-4.2-3.8-4.2h-1.8zM257.1 28.5V30H256V19.2h1.1v4.5c.5-.9 1.3-1.6 2.5-1.6 1.6 0 3.1 1.4 3.1 4v.1c0 2.6-1.5 4-3.1 4-1.2-.1-2-.8-2.5-1.7zm4.6-2.3V26c0-1.9-1-3-2.2-3-1.2 0-2.4 1.2-2.4 3v.1c0 1.8 1.1 3 2.4 3s2.2-1 2.2-2.9zM264.7 19.3h1.2v1.3h-1.2v-1.3zm0 2.9h1.1V30h-1.1v-7.8zM267.7 26.2V26c0-2.6 1.5-4 3.1-4 1.2 0 2 .8 2.5 1.6v-4.5h1.1V30h-1.1v-1.5c-.5.9-1.3 1.6-2.5 1.6-1.6 0-3.1-1.3-3.1-3.9zm5.7 0V26c0-1.8-1.1-3-2.4-3-1.2 0-2.2 1.1-2.2 3v.1c0 1.9 1 3 2.2 3 1.3.1 2.4-1.1 2.4-2.9zM280.6 19.3h1.2v1.3h-1.2v-1.3zm0 2.9h1.1V30h-1.1v-7.8zM283.3 29l.6-.8c.7.6 1.5.9 2.3.9.9 0 1.5-.5 1.5-1.2s-.6-1-1.7-1.5c-1.2-.5-2.2-1-2.2-2.3 0-1.3 1-2.1 2.4-2.1.9 0 1.8.3 2.5.8l-.5.8c-.6-.4-1.3-.7-2-.7-.8 0-1.3.5-1.3 1.1 0 .7.7 1 1.7 1.4 1.3.6 2.2 1.1 2.2 2.3 0 1.4-1.1 2.2-2.5 2.2-1.1.2-2.1-.1-3-.9zM295.5 20.6l-1.7.6-.2-1 2.2-.8h.8V30h-1.1v-9.4zM299 28.5h1.4V30H299v-1.5zM301.9 24.8v-.1c0-3.1 1.5-5.4 3.8-5.4s3.8 2.2 3.8 5.3v.1c0 3.1-1.5 5.4-3.8 5.4-2.3.1-3.8-2.1-3.8-5.3zm6.4 0v-.1c0-2.5-1.1-4.3-2.7-4.3s-2.6 1.8-2.6 4.3v.1c0 2.5 1.1 4.3 2.7 4.3s2.6-1.8 2.6-4.3zM315.7 20.6h-4.9v-1h6.1v.9l-4 9.6h-1.2l4-9.5zM322 27.6h-4.8l-.2-.8 5.1-7.3h1v7.2h1.4v.9h-1.4V30H322v-2.4zm0-1v-5.4l-3.8 5.4h3.8zM325.7 28.9l.7-.8c.7.7 1.5 1.1 2.4 1.1 1.3 0 2.3-1 2.3-2.4s-1-2.2-2.3-2.2c-.8 0-1.3.2-1.8.5l-.7-.5.3-5h5.3v1h-4.3l-.2 3.3c.5-.2 1-.4 1.7-.4 1.8 0 3.2 1.1 3.2 3.2 0 2-1.5 3.4-3.4 3.4-1.3.1-2.4-.5-3.2-1.2zM337.5 27.7c0-1.7 1.2-2.6 2.9-2.6.8 0 1.4.1 2 .3V25c0-1.3-.7-1.9-2-1.9-.8 0-1.5.2-2 .5l-.3-.9c.7-.4 1.5-.6 2.5-.6.9 0 1.7.3 2.2.8.5.5.8 1.2.8 2.1v5h-1.1v-1.1c-.5.7-1.2 1.3-2.4 1.3-1.4 0-2.6-.9-2.6-2.5zm4.9-.4v-1c-.5-.2-1.1-.3-1.9-.3-1.2 0-1.9.6-1.9 1.6s.7 1.6 1.7 1.6c1.1.1 2.1-.8 2.1-1.9zM345.5 22.2h1.1v1.3c.4-.8 1.1-1.4 2.3-1.4 1.6 0 2.6 1.1 2.6 2.9v5h-1.1v-4.8c0-1.4-.7-2.2-1.8-2.2s-2 .9-2 2.2V30h-1.1v-7.8zM353.2 26.2V26c0-2.6 1.5-4 3.1-4 1.2 0 2 .8 2.5 1.6v-4.5h1.1V30h-1.1v-1.5c-.5.9-1.3 1.6-2.5 1.6-1.6 0-3.1-1.3-3.1-3.9zm5.7 0V26c0-1.8-1.1-3-2.4-3-1.2 0-2.2 1.1-2.2 3v.1c0 1.9 1 3 2.2 3 1.3.1 2.4-1.1 2.4-2.9zM366.4 28.2v-5h-.9v-1h.9v-2.3h1.1v2.3h2v1h-2V28c0 .8.5 1.1 1.1 1.1.3 0 .6-.1.9-.2v.9c-.3.2-.7.3-1.2.3-1.1 0-1.9-.5-1.9-1.9zM371.3 19.2h1.1v4.3c.4-.8 1.1-1.4 2.3-1.4 1.6 0 2.6 1.1 2.6 2.9v5h-1.1v-4.8c0-1.4-.7-2.2-1.8-2.2s-2 .9-2 2.2V30h-1.1V19.2zM378.9 26.2c0-2.5 1.4-4.1 3.2-4.1 2 0 3.1 1.7 3.1 4v.4H380c.1 1.7 1.2 2.7 2.4 2.7.9 0 1.5-.4 2-.9l.6.7c-.7.7-1.5 1.2-2.7 1.2-1.8 0-3.4-1.6-3.4-4zm5.3-.5c-.1-1.5-.8-2.7-2.1-2.7-1.2 0-2 1.1-2.1 2.7h4.2zM390.4 27.7c0-1.7 1.2-2.6 2.9-2.6.8 0 1.4.1 2 .3V25c0-1.3-.7-1.9-2-1.9-.8 0-1.5.2-2 .5l-.3-.9c.7-.4 1.5-.6 2.5-.6.9 0 1.7.3 2.2.8.5.5.8 1.2.8 2.1v5h-1.1v-1.1c-.5.7-1.2 1.3-2.4 1.3-1.4 0-2.6-.9-2.6-2.5zm4.9-.4v-1c-.5-.2-1.1-.3-1.9-.3-1.2 0-1.9.6-1.9 1.6s.7 1.6 1.7 1.6c1.1.1 2.1-.8 2.1-1.9zM397.7 29l.6-.8c.7.6 1.5.9 2.3.9.9 0 1.5-.5 1.5-1.2s-.6-1-1.7-1.5c-1.2-.5-2.2-1-2.2-2.3 0-1.3 1-2.1 2.4-2.1.9 0 1.8.3 2.5.8l-.5.8c-.6-.4-1.3-.7-2-.7-.8 0-1.3.5-1.3 1.1 0 .7.7 1 1.7 1.4 1.3.6 2.2 1.1 2.2 2.3 0 1.4-1.1 2.2-2.5 2.2-1.1.2-2.2-.1-3-.9zM404.8 19.2h1.1v7.3l3.5-4.3h1.3l-2.7 3.3 2.9 4.5h-1.3l-2.3-3.7-1.3 1.5V30h-1.1V19.2zM416.2 19.3h1.2v1.3h-1.2v-1.3zm0 2.9h1.1V30h-1.1v-7.8zM418.9 29l.6-.8c.7.6 1.5.9 2.3.9.9 0 1.5-.5 1.5-1.2s-.6-1-1.7-1.5c-1.2-.5-2.2-1-2.2-2.3 0-1.3 1-2.1 2.4-2.1.9 0 1.8.3 2.5.8l-.5.8c-.6-.4-1.3-.7-2-.7-.8 0-1.3.5-1.3 1.1 0 .7.7 1 1.7 1.4 1.3.6 2.2 1.1 2.2 2.3 0 1.4-1.1 2.2-2.5 2.2-1.1.2-2.2-.1-3-.9zM431.1 20.6l-1.7.6-.2-1 2.2-.8h.8V30h-1.1v-9.4zM434.6 28.5h1.3V30h-1.3v-1.5zM437.5 24.8v-.1c0-3.1 1.5-5.4 3.8-5.4s3.8 2.2 3.8 5.3v.1c0 3.1-1.5 5.4-3.8 5.4-2.4.1-3.8-2.1-3.8-5.3zm6.4 0v-.1c0-2.5-1.1-4.3-2.7-4.3s-2.6 1.8-2.6 4.3v.1c0 2.5 1.1 4.3 2.7 4.3s2.6-1.8 2.6-4.3zM451.3 20.6h-4.9v-1h6.1v.9l-4 9.6h-1.2l4-9.5zM457.6 27.6h-4.8l-.2-.8 5.1-7.3h1v7.2h1.4v.9h-1.4V30h-1.1v-2.4zm0-1v-5.4l-3.8 5.4h3.8zM462.7 29.3c-.8-.8-1.2-1.9-1.2-4.1v-.1c0-3.5 1.5-5.7 3.9-5.7 1 0 1.8.3 2.5.9l-.6.9c-.6-.5-1.2-.8-2-.8-1.7 0-2.7 1.9-2.7 4.5.6-.9 1.4-1.4 2.6-1.4 1.7 0 3.2 1.2 3.2 3.2s-1.5 3.5-3.3 3.5c-1 0-1.8-.4-2.4-.9zm4.5-2.6c0-1.4-.9-2.3-2.2-2.3-1.3 0-2.2 1-2.2 2.3 0 1.4.9 2.4 2.2 2.4 1.3.1 2.2-1 2.2-2.4z"/></g><path fill="#FFD816" d="M517.1 207.7H186.6v-11.5h-133v29h133v-11.5h330.5"/><g fill="#073B51"><path d="M65.6 205.5h6.8v2h-4.6v2.3h4v2h-4v2.3h4.7v2h-6.8v-10.6zM74 212v-6.4h2.2v6.4c0 1.5.7 2.2 1.8 2.2s1.8-.7 1.8-2.2v-6.5H82v6.4c0 2.9-1.6 4.3-4 4.3s-4-1.4-4-4.2zM84 205.5h3.9c1.2 0 2.2.3 2.9 1 .6.6.9 1.4.9 2.4v.1c0 1.6-.8 2.6-1.9 3.1L92 216h-2.5l-1.9-3.4h-1.4v3.4H84v-10.5zm3.8 5.2c1.1 0 1.7-.6 1.7-1.6s-.6-1.6-1.8-1.6h-1.6v3.2h1.7zM97.6 204.2h1.8l-5.6 13.6H92l5.6-13.6zM100.2 212v-6.4h2.2v6.4c0 1.5.7 2.2 1.8 2.2s1.8-.7 1.8-2.2v-6.5h2.2v6.4c0 2.9-1.6 4.3-4 4.3s-4-1.4-4-4.2zM109.4 214.6l1.3-1.6c.7.6 1.6 1.2 2.6 1.2.8 0 1.3-.4 1.3-1 0-.5-.3-.9-1.8-1.4-1.9-.7-3-1.4-3-3.2 0-1.8 1.4-3.1 3.4-3.1 1.2 0 2.4.4 3.4 1.3l-1.2 1.6c-.7-.5-1.4-1-2.2-1-.8 0-1.2.4-1.2.9 0 .6.4.9 2 1.6 1.8.7 2.8 1.5 2.8 3.1 0 2-1.5 3.1-3.5 3.1-1.3.1-2.7-.4-3.9-1.5zM118.4 205.5h3.4c3 0 5 2.1 5 5.2v.1c0 3.1-2 5.2-5 5.2h-3.4v-10.5zm2.2 2v6.6h1.2c1.6 0 2.8-1.2 2.8-3.2v-.1c0-2.1-1.1-3.3-2.8-3.3h-1.2zM136.5 206.7l-1.7.6-.2-1 2.2-.8h.8V216h-1.1v-9.3zM140 214.5h1.4v1.5H140v-1.5zM142.9 210.9v-.1c0-3.2 1.5-5.4 3.8-5.4s3.8 2.2 3.8 5.3v.1c0 3.2-1.5 5.4-3.8 5.4-2.4 0-3.8-2.2-3.8-5.3zm6.4 0v-.1c0-2.5-1.1-4.3-2.7-4.3s-2.6 1.8-2.6 4.3v.1c0 2.5 1 4.3 2.7 4.3s2.6-1.8 2.6-4.3zM156.7 206.6h-4.9v-1.1h6.1v.9l-4 9.6h-1.2l4-9.4zM163 213.6h-4.8l-.2-.8 5.1-7.3h1v7.2h1.4v.9H164v2.4h-1v-2.4zm0-.9v-5.4l-3.8 5.4h3.8zM166.7 214.9l.7-.8c.7.7 1.5 1.1 2.4 1.1 1.3 0 2.3-1 2.3-2.4s-1-2.2-2.3-2.2c-.8 0-1.3.2-1.8.5l-.7-.5.3-5h5.3v1.1h-4.3l-.2 3.3c.5-.2 1-.4 1.7-.4 1.8 0 3.2 1.1 3.2 3.2 0 2-1.5 3.4-3.4 3.4-1.3 0-2.4-.5-3.2-1.3z"/></g><g fill="#FFF"><path d="M343.8 105.6h7.6c2.4 0 4.3.7 5.5 1.9.9.9 1.5 2.2 1.5 3.7v.1c0 3-1.8 4.5-3.7 5.2 2.6.8 4.6 2.3 4.6 5.4v.1c0 3.8-3.1 6-7.8 6h-7.7v-22.4zm12.1 5.9c0-2.3-1.7-3.7-4.7-3.7h-5.1v7.9h4.8c3.1-.1 5-1.5 5-4.2zm-4.6 6.3h-5.2v8.1h5.4c3.2 0 5.3-1.5 5.3-4v-.1c.1-2.6-1.9-4-5.5-4zM363 122.3v-10.9h2.3v10.3c0 3 1.4 4.6 3.8 4.6s4.2-1.9 4.2-4.7v-10.2h2.3V128h-2.3v-2.7c-.9 1.7-2.4 3-4.9 3-3.4 0-5.4-2.3-5.4-6zM391 111.3h2.5l-5.9 17c-1.2 3.5-2.6 4.6-4.9 4.6-1.1 0-2-.3-3-.8l.7-1.9c.6.4 1.3.6 2.2.6 1.2 0 2-.7 2.9-2.8l-6.4-16.7h2.5l5 13.7 4.4-13.7zM403.9 125.2l1.5-1.8c1.9 1.7 3.8 2.8 6.3 2.8 2.7 0 4.5-1.6 4.5-3.8 0-1.9-.9-3-5-4.5-4.6-1.7-6.5-3.4-6.5-6.6v-.1c0-3.4 2.8-5.9 6.8-5.9 2.6 0 4.7.8 6.7 2.5l-1.4 1.9c-1.7-1.4-3.4-2.2-5.4-2.2-2.6 0-4.2 1.6-4.2 3.5v.1c0 2 1 3.1 5.2 4.6 4.5 1.7 6.2 3.5 6.2 6.5v.1c0 3.6-2.9 6.1-6.9 6.1-2.9-.1-5.4-1.1-7.8-3.2zM423.2 124.1v-10.8h-2v-2h2v-4.9h2.3v4.9h4.4v2h-4.4v10.4c0 1.8 1 2.4 2.4 2.4.6 0 1.3-.2 2-.4v2c-.7.4-1.5.6-2.5.6-2.4 0-4.2-1.2-4.2-4.2zM432.3 119.8v-.2c0-4.9 3.1-8.6 7.4-8.6s7.4 3.7 7.4 8.5v.2c0 4.9-3.1 8.6-7.4 8.6s-7.4-3.6-7.4-8.5zm12.5 0v-.2c0-3.7-2.2-6.5-5.1-6.5-2.9 0-5 2.8-5 6.5v.2c0 3.7 2.2 6.5 5.1 6.5 2.9 0 5-2.8 5-6.5zM451 111.3h2.3v3.2c1.1-1.9 2.8-3.5 5.4-3.5 3.4 0 6.7 2.9 6.7 8.5v.3c0 5.5-3.3 8.5-6.7 8.5-2.7 0-4.3-1.6-5.4-3.4v7.9H451v-21.5zm12 8.5v-.3c0-4.1-2.2-6.5-4.7-6.5-2.6 0-5.1 2.5-5.1 6.4v.3c0 3.9 2.4 6.4 5.1 6.4 2.5.1 4.7-2.2 4.7-6.3z"/></g><g fill="#FFF"><path d="M349.3 274.2l1.5-1.8c1.9 1.7 3.8 2.8 6.3 2.8 2.7 0 4.5-1.6 4.5-3.8 0-1.9-.9-3-5-4.5-4.6-1.7-6.5-3.4-6.5-6.6v-.1c0-3.4 2.8-5.9 6.8-5.9 2.6 0 4.7.8 6.7 2.5l-1.4 1.9c-1.7-1.4-3.4-2.2-5.4-2.2-2.6 0-4.2 1.6-4.2 3.5v.1c0 2 1 3.1 5.2 4.6 4.5 1.7 6.2 3.5 6.2 6.5v.1c0 3.6-2.9 6.1-6.9 6.1-3-.1-5.5-1.1-7.8-3.2zM367 268.8v-.2c0-5.1 3-8.6 6.9-8.6 4.2 0 6.7 3.6 6.7 8.6v1h-11.2c.3 3.7 2.5 5.7 5.2 5.7 1.8 0 3.2-.8 4.3-1.9l1.3 1.5c-1.5 1.5-3.2 2.5-5.7 2.5-4.1 0-7.5-3.3-7.5-8.6zm11.3-1c-.2-3.2-1.7-5.8-4.4-5.8-2.5 0-4.3 2.3-4.5 5.8h8.9zM384.5 253.9h2.3V277h-2.3v-23.1zM391.9 253.9h2.3V277h-2.3v-23.1zM406.3 274.2l1.5-1.8c1.9 1.7 3.8 2.8 6.3 2.8 2.7 0 4.5-1.6 4.5-3.8 0-1.9-.9-3-5-4.5-4.6-1.7-6.5-3.4-6.5-6.6v-.1c0-3.4 2.8-5.9 6.8-5.9 2.6 0 4.7.8 6.7 2.5l-1.4 1.9c-1.7-1.4-3.4-2.2-5.4-2.2-2.6 0-4.2 1.6-4.2 3.5v.1c0 2 1 3.1 5.2 4.6 4.5 1.7 6.2 3.5 6.2 6.5v.1c0 3.6-2.9 6.1-6.9 6.1-2.9-.1-5.5-1.1-7.8-3.2zM425.6 273.1v-10.8h-2v-2h2v-4.9h2.3v4.9h4.4v2h-4.4v10.4c0 1.8 1 2.4 2.4 2.4.6 0 1.3-.2 2-.4v2c-.7.4-1.5.6-2.5.6-2.4 0-4.2-1.2-4.2-4.2zM434.7 268.8v-.2c0-4.9 3.1-8.6 7.4-8.6 4.3 0 7.4 3.7 7.4 8.5v.2c0 4.9-3.1 8.6-7.4 8.6s-7.4-3.6-7.4-8.5zm12.4 0v-.2c0-3.7-2.2-6.5-5.1-6.5-2.9 0-5 2.8-5 6.5v.2c0 3.7 2.2 6.5 5.1 6.5 2.9 0 5-2.8 5-6.5zM453.3 260.3h2.3v3.2c1.1-1.9 2.8-3.5 5.4-3.5 3.4 0 6.7 2.9 6.7 8.5v.3c0 5.5-3.3 8.5-6.7 8.5-2.7 0-4.3-1.6-5.4-3.4v7.9h-2.3v-21.5zm12 8.5v-.3c0-4.1-2.2-6.5-4.7-6.5-2.6 0-5.1 2.5-5.1 6.4v.3c0 3.9 2.4 6.4 5.1 6.4 2.6.1 4.7-2.2 4.7-6.3z"/></g><path fill="#C74F4F" d="M466.1 168h-67v-28h67v28zm1 121h-68v29h68v-29z"/><g fill="#FEFEFE"><path d="M409.6 151.5l-1.8.5-.4-2.1 2.9-.9h1.7v12h-2.4v-9.5zM414.4 158.4h2.6v2.6h-2.6v-2.6zM418.5 155.2v-.2c0-3.6 1.8-6.1 4.7-6.1 2.8 0 4.6 2.4 4.6 6v.2c0 3.6-1.8 6.1-4.7 6.1s-4.6-2.4-4.6-6zm6.8-.1v-.1c0-2.5-.9-3.8-2.1-3.8-1.3 0-2.1 1.3-2.1 3.8v.2c0 2.5.9 3.8 2.1 3.8 1.2 0 2.1-1.4 2.1-3.9zM434 151.3h-4.9v-2.2h7.6v1.8l-4.6 10.1h-2.7l4.6-9.7zM439.2 160.1c-.8-.9-1.4-2.1-1.4-4.6v-.1c0-4.1 1.7-6.5 4.8-6.5 1.3 0 2.2.4 3.2 1.1l-1.2 2c-.6-.4-1.2-.8-2-.8-1.5 0-2.1 1.4-2.2 2.8.6-.4 1.3-.7 2.2-.7 2 0 3.7 1.2 3.7 3.8 0 2.4-1.8 4.1-4.1 4.1-1.3 0-2.3-.4-3-1.1zm4.6-2.9c0-1.1-.7-1.9-1.8-1.9s-1.7.7-1.7 1.8.7 1.9 1.8 1.9 1.7-.7 1.7-1.8zM447.8 155.2v-.2c0-3.6 1.8-6.1 4.7-6.1 2.8 0 4.6 2.4 4.6 6v.2c0 3.6-1.8 6.1-4.7 6.1-2.8 0-4.6-2.4-4.6-6zm6.7-.1v-.1c0-2.5-.9-3.8-2.1-3.8-1.3 0-2.1 1.3-2.1 3.8v.2c0 2.5.9 3.8 2.1 3.8 1.3 0 2.1-1.4 2.1-3.9z"/></g><g fill="#FEFEFE"><path d="M409.6 300.5l-1.8.5-.4-2.1 2.9-.9h1.7v12h-2.4v-9.5zM414.4 307.4h2.6v2.6h-2.6v-2.6zM418.5 304.2v-.2c0-3.6 1.8-6.1 4.7-6.1 2.8 0 4.6 2.4 4.6 6v.2c0 3.6-1.8 6.1-4.7 6.1s-4.6-2.4-4.6-6zm6.8-.1v-.1c0-2.5-.9-3.8-2.1-3.8-1.3 0-2.1 1.3-2.1 3.8v.2c0 2.5.9 3.8 2.1 3.8 1.2 0 2.1-1.4 2.1-3.9zM434 300.3h-4.9v-2.2h7.6v1.8l-4.6 10.1h-2.7l4.6-9.7zM437.6 308.5l1.5-1.7c.6.6 1.3 1.2 2.4 1.2 1 0 1.6-.6 1.6-1.5 0-1-.8-1.6-2.4-1.6h-.7l-.3-1.6 2.6-2.9h-4.1v-2.2h7.2v2l-2.8 2.9c1.5.3 3 1.3 3 3.3v.1c0 2.3-1.6 3.9-4 3.9-1.8-.2-3.1-.9-4-1.9zM447.1 304.2v-.2c0-3.6 1.8-6.1 4.7-6.1 2.8 0 4.6 2.4 4.6 6v.2c0 3.6-1.8 6.1-4.7 6.1-2.8 0-4.6-2.4-4.6-6zm6.7-.1v-.1c0-2.5-.9-3.8-2.1-3.8-1.3 0-2.1 1.3-2.1 3.8v.2c0 2.5.9 3.8 2.1 3.8 1.3 0 2.1-1.4 2.1-3.9z"/></g><g fill="#FFF"><path d="M89.5 111.3h1.3l4.8 12.7h-1.4l-1.2-3.3h-5.7L86 124h-1.4l4.9-12.7zm3 8.2l-2.4-6.4-2.4 6.4h4.8zM102.6 122.3v1.7h-1.3v-13h1.3v5.4c.6-1.1 1.6-2 3-2 1.9 0 3.7 1.7 3.7 4.8v.2c0 3.1-1.8 4.8-3.7 4.8-1.5 0-2.4-.9-3-1.9zm5.4-2.9v-.1c0-2.3-1.2-3.6-2.7-3.6-1.5 0-2.8 1.4-2.8 3.6v.2c0 2.2 1.4 3.6 2.8 3.6 1.6-.1 2.7-1.4 2.7-3.7zM111 120.8v-6.2h1.3v5.8c0 1.7.8 2.6 2.2 2.6 1.4 0 2.4-1.1 2.4-2.7v-5.7h1.3v9.4h-1.3v-1.5c-.5.9-1.4 1.7-2.8 1.7-2 0-3.1-1.3-3.1-3.4zM126.3 114.6h1.4l-3.3 9.5c-.7 1.9-1.5 2.6-2.7 2.6-.6 0-1.2-.1-1.7-.4l.4-1.1c.4.2.8.3 1.2.3.7 0 1.2-.4 1.6-1.6l-3.6-9.4h1.4l2.8 7.7 2.5-7.6zM132.5 122.8l.7-1c.9.7 1.8 1.1 2.7 1.1 1 0 1.7-.6 1.7-1.5 0-.8-.8-1.3-2-1.8-1.5-.6-2.7-1.2-2.7-2.7 0-1.5 1.2-2.6 2.9-2.6 1.1 0 2.2.4 3 1l-.6 1c-.7-.5-1.5-.9-2.4-.9-1 0-1.6.6-1.6 1.3 0 .8.8 1.2 2.1 1.7 1.5.7 2.6 1.3 2.6 2.8 0 1.7-1.4 2.7-3 2.7-1.2.3-2.4-.2-3.4-1.1zM140.9 121.8v-6h-1.1v-1.2h1.1v-2.7h1.3v2.7h2.4v1.2h-2.4v5.8c0 1 .5 1.4 1.4 1.4.4 0 .7-.1 1.1-.3v1.1c-.4.2-.9.3-1.4.3-1.4 0-2.4-.6-2.4-2.3zM145.5 119.4v-.1c0-2.7 1.8-4.8 4.2-4.8 2.4 0 4.2 2.1 4.2 4.8v.1c0 2.7-1.8 4.8-4.2 4.8-2.5 0-4.2-2.1-4.2-4.8zm7 0c0-2.2-1.3-3.8-2.9-3.8-1.7 0-2.8 1.6-2.8 3.7v.1c0 2.1 1.2 3.7 2.8 3.7 1.7-.1 2.9-1.7 2.9-3.7zM155.5 114.6h1.3v1.8c.6-1.1 1.6-2 3-2 1.9 0 3.7 1.7 3.7 4.8v.2c0 3.1-1.8 4.8-3.7 4.8-1.5 0-2.4-.9-3-1.9v4.4h-1.3v-12.1zm6.8 4.8v-.1c0-2.3-1.2-3.6-2.7-3.6-1.5 0-2.8 1.4-2.8 3.6v.2c0 2.2 1.4 3.6 2.8 3.6 1.5-.1 2.7-1.4 2.7-3.7zM169.1 119.4v-.1c0-2.7 1.8-4.8 4.2-4.8 2.4 0 4.2 2.1 4.2 4.8v.1c0 2.7-1.8 4.8-4.2 4.8-2.5 0-4.2-2.1-4.2-4.8zm7 0c0-2.2-1.3-3.8-2.9-3.8-1.7 0-2.8 1.6-2.8 3.7v.1c0 2.1 1.2 3.7 2.8 3.7 1.7-.1 2.9-1.7 2.9-3.7zM179.1 114.6h1.3v2.1c.6-1.3 1.7-2.3 3.2-2.2v1.4h-.1c-1.7 0-3.2 1.2-3.2 3.6v4.5H179v-9.4zM184.2 119.4v-.2c0-3.1 1.8-4.8 3.7-4.8 1.5 0 2.4.9 3 1.9V111h1.3v13H191v-1.8c-.6 1.1-1.6 2-3 2-2 0-3.8-1.7-3.8-4.8zm6.8 0v-.2c0-2.2-1.4-3.6-2.8-3.6-1.5 0-2.7 1.3-2.7 3.6v.1c0 2.3 1.2 3.6 2.7 3.6 1.5.1 2.8-1.3 2.8-3.5zM194 119.4c0-3 1.7-5 3.9-5 2.4 0 3.8 2 3.8 4.8v.5h-6.3c.1 2.1 1.4 3.2 2.9 3.2 1 0 1.8-.4 2.4-1.1l.7.8c-.8.9-1.8 1.4-3.2 1.4-2.4.2-4.2-1.6-4.2-4.6zm6.3-.6c-.1-1.8-.9-3.2-2.5-3.2-1.4 0-2.4 1.3-2.6 3.2h5.1zM203.2 114.6h1.3v2.1c.6-1.3 1.7-2.3 3.2-2.2v1.4h-.1c-1.7 0-3.2 1.2-3.2 3.6v4.5h-1.3v-9.4zM213.7 121.8v-6h-1.1v-1.2h1.1v-2.7h1.3v2.7h2.4v1.2H215v5.8c0 1 .5 1.4 1.4 1.4.4 0 .7-.1 1.1-.3v1.1c-.4.2-.9.3-1.4.3-1.4 0-2.4-.6-2.4-2.3zM219.1 114.6h1.3v2.1c.6-1.3 1.7-2.3 3.2-2.2v1.4h-.1c-1.7 0-3.2 1.2-3.2 3.6v4.5H219v-9.4zM225 111.2h1.4v1.5H225v-1.5zm.1 3.4h1.3v9.4h-1.3v-9.4zM228.6 125.7l.5-1c.9.6 1.9.9 3 .9 1.8 0 2.9-.9 2.9-2.8v-1.4c-.6 1-1.6 1.9-3.1 1.9-1.9 0-3.7-1.6-3.7-4.4v-.1c0-2.8 1.8-4.4 3.7-4.4 1.5 0 2.4.9 3.1 1.9v-1.7h1.3v8.1c0 1.3-.4 2.2-1 2.9-.7.7-1.8 1.1-3.1 1.1s-2.5-.3-3.6-1zm6.5-6.8c0-2.1-1.4-3.3-2.8-3.3-1.5 0-2.7 1.2-2.7 3.3 0 2 1.2 3.3 2.7 3.3 1.4 0 2.8-1.3 2.8-3.3zM238.4 125.7l.5-1c.9.6 1.9.9 3 .9 1.8 0 2.9-.9 2.9-2.8v-1.4c-.6 1-1.6 1.9-3.1 1.9-1.9 0-3.7-1.6-3.7-4.4v-.1c0-2.8 1.8-4.4 3.7-4.4 1.5 0 2.4.9 3.1 1.9v-1.7h1.3v8.1c0 1.3-.4 2.2-1 2.9-.7.7-1.8 1.1-3.1 1.1s-2.5-.3-3.6-1zm6.5-6.8c0-2.1-1.4-3.3-2.8-3.3-1.5 0-2.7 1.2-2.7 3.3 0 2 1.2 3.3 2.7 3.3 1.4 0 2.8-1.3 2.8-3.3zM247.8 119.4c0-3 1.7-5 3.9-5 2.4 0 3.8 2 3.8 4.8v.5h-6.3c.1 2.1 1.4 3.2 2.9 3.2 1 0 1.8-.4 2.4-1.1l.7.8c-.8.9-1.8 1.4-3.2 1.4-2.3.2-4.2-1.6-4.2-4.6zm6.4-.6c-.1-1.8-.9-3.2-2.5-3.2-1.4 0-2.4 1.3-2.6 3.2h5.1zM257.1 114.6h1.3v2.1c.6-1.3 1.7-2.3 3.2-2.2v1.4h-.1c-1.7 0-3.2 1.2-3.2 3.6v4.5H257v-9.4zM262.1 122.8l.7-1c.9.7 1.8 1.1 2.7 1.1 1 0 1.7-.6 1.7-1.5 0-.8-.8-1.3-2-1.8-1.5-.6-2.7-1.2-2.7-2.7 0-1.5 1.2-2.6 2.9-2.6 1.1 0 2.2.4 3 1l-.6 1c-.7-.5-1.5-.9-2.4-.9-1 0-1.6.6-1.6 1.3 0 .8.8 1.2 2.1 1.7 1.5.7 2.6 1.3 2.6 2.8 0 1.7-1.4 2.7-3 2.7-1.2.3-2.4-.2-3.4-1.1z"/></g><g fill="#FFF"><path d="M89.5 263.3h1.3l4.8 12.7h-1.4l-1.2-3.3h-5.7L86 276h-1.4l4.9-12.7zm3 8.2l-2.4-6.4-2.4 6.4h4.8zM100.4 274.8l.7-1c.9.7 1.8 1.1 2.7 1.1 1 0 1.7-.6 1.7-1.5 0-.8-.8-1.3-2-1.8-1.5-.6-2.7-1.2-2.7-2.7 0-1.5 1.2-2.6 2.9-2.6 1.1 0 2.2.4 3 1l-.6 1c-.7-.5-1.5-.9-2.4-.9-1 0-1.6.6-1.6 1.3 0 .8.8 1.2 2.1 1.7 1.5.7 2.6 1.3 2.6 2.8 0 1.7-1.4 2.7-3 2.7-1.1.3-2.4-.2-3.4-1.1zM108 271.4c0-3 1.7-5 3.9-5 2.4 0 3.8 2 3.8 4.8v.5h-6.3c.1 2.1 1.4 3.2 2.9 3.2 1 0 1.8-.4 2.4-1.1l.7.8c-.8.9-1.8 1.4-3.2 1.4-2.3.2-4.2-1.6-4.2-4.6zm6.4-.6c-.1-1.8-.9-3.2-2.5-3.2-1.4 0-2.4 1.3-2.6 3.2h5.1zM117.4 263h1.3v13h-1.3v-13zM121.1 263h1.3v13h-1.3v-13zM128.1 274.8l.7-1c.9.7 1.8 1.1 2.7 1.1 1 0 1.7-.6 1.7-1.5 0-.8-.8-1.3-2-1.8-1.5-.6-2.7-1.2-2.7-2.7 0-1.5 1.2-2.6 2.9-2.6 1.1 0 2.2.4 3 1l-.6 1c-.7-.5-1.5-.9-2.4-.9-1 0-1.6.6-1.6 1.3 0 .8.8 1.2 2.1 1.7 1.5.7 2.6 1.3 2.6 2.8 0 1.7-1.4 2.7-3 2.7-1.1.3-2.4-.2-3.4-1.1zM136.5 273.8v-6h-1.1v-1.2h1.1v-2.7h1.3v2.7h2.4v1.2h-2.4v5.8c0 1 .5 1.3 1.4 1.3.4 0 .7-.1 1.1-.3v1.1c-.4.2-.9.3-1.4.3-1.4.1-2.4-.5-2.4-2.2zM141.1 271.4v-.1c0-2.7 1.8-4.8 4.2-4.8s4.2 2.1 4.2 4.8v.1c0 2.7-1.8 4.8-4.2 4.8-2.4 0-4.2-2.1-4.2-4.8zm7.1 0c0-2.2-1.3-3.8-2.9-3.8-1.7 0-2.8 1.6-2.8 3.7v.1c0 2.1 1.2 3.7 2.8 3.7 1.7-.1 2.9-1.7 2.9-3.7zM151.2 266.6h1.3v1.8c.6-1.1 1.6-2 3-2 1.9 0 3.7 1.7 3.7 4.8v.2c0 3.1-1.8 4.8-3.7 4.8-1.5 0-2.4-.9-3-1.9v4.4h-1.3v-12.1zm6.7 4.8v-.1c0-2.3-1.2-3.6-2.7-3.6-1.5 0-2.8 1.4-2.8 3.6v.2c0 2.2 1.4 3.6 2.8 3.6 1.6-.1 2.7-1.4 2.7-3.7zM164.7 271.4v-.1c0-2.7 1.8-4.8 4.2-4.8s4.2 2.1 4.2 4.8v.1c0 2.7-1.8 4.8-4.2 4.8-2.4 0-4.2-2.1-4.2-4.8zm7 0c0-2.2-1.3-3.8-2.9-3.8-1.7 0-2.8 1.6-2.8 3.7v.1c0 2.1 1.2 3.7 2.8 3.7 1.8-.1 2.9-1.7 2.9-3.7zM174.8 266.6h1.3v2.1c.6-1.3 1.7-2.3 3.2-2.2v1.4h-.1c-1.7 0-3.2 1.2-3.2 3.6v4.5h-1.3v-9.4zM179.8 271.4v-.2c0-3.1 1.8-4.8 3.7-4.8 1.5 0 2.4.9 3 1.9V263h1.3v13h-1.3v-1.8c-.6 1.1-1.6 2-3 2-1.9 0-3.7-1.7-3.7-4.8zm6.9 0v-.2c0-2.2-1.4-3.6-2.8-3.6-1.5 0-2.7 1.3-2.7 3.6v.1c0 2.3 1.2 3.6 2.7 3.6 1.4.1 2.8-1.3 2.8-3.5zM189.6 271.4c0-3 1.7-5 3.9-5 2.4 0 3.8 2 3.8 4.8v.5H191c.1 2.1 1.4 3.2 2.9 3.2 1 0 1.8-.4 2.4-1.1l.7.8c-.8.9-1.8 1.4-3.2 1.4-2.3.2-4.2-1.6-4.2-4.6zm6.3-.6c-.1-1.8-.9-3.2-2.5-3.2-1.4 0-2.4 1.3-2.6 3.2h5.1zM198.9 266.6h1.3v2.1c.6-1.3 1.7-2.3 3.2-2.2v1.4h-.1c-1.7 0-3.2 1.2-3.2 3.6v4.5h-1.3v-9.4zM209.4 273.8v-6h-1.1v-1.2h1.1v-2.7h1.3v2.7h2.4v1.2h-2.4v5.8c0 1 .5 1.3 1.4 1.3.4 0 .7-.1 1.1-.3v1.1c-.4.2-.9.3-1.4.3-1.4.1-2.4-.5-2.4-2.2zM214.7 266.6h1.3v2.1c.6-1.3 1.7-2.3 3.2-2.2v1.4h-.1c-1.7 0-3.2 1.2-3.2 3.6v4.5h-1.3v-9.4zM220.7 263.2h1.4v1.5h-1.4v-1.5zm0 3.4h1.3v9.4h-1.3v-9.4zM224.3 277.7l.5-1c.9.6 1.9.9 3 .9 1.8 0 2.9-.9 2.9-2.8v-1.4c-.6 1-1.6 1.9-3.1 1.9-1.9 0-3.7-1.6-3.7-4.4v-.1c0-2.8 1.8-4.4 3.7-4.4 1.5 0 2.4.9 3.1 1.9v-1.7h1.3v8.1c0 1.3-.4 2.2-1 2.9-.7.7-1.8 1.1-3.1 1.1s-2.6-.3-3.6-1zm6.4-6.8c0-2.1-1.4-3.3-2.8-3.3-1.5 0-2.7 1.2-2.7 3.3 0 2 1.2 3.3 2.7 3.3 1.4 0 2.8-1.3 2.8-3.3zM234.1 277.7l.5-1c.9.6 1.9.9 3 .9 1.8 0 2.9-.9 2.9-2.8v-1.4c-.6 1-1.6 1.9-3.1 1.9-1.9 0-3.7-1.6-3.7-4.4v-.1c0-2.8 1.8-4.4 3.7-4.4 1.5 0 2.4.9 3.1 1.9v-1.7h1.3v8.1c0 1.3-.4 2.2-1 2.9-.7.7-1.8 1.1-3.1 1.1s-2.5-.3-3.6-1zm6.4-6.8c0-2.1-1.4-3.3-2.8-3.3-1.5 0-2.7 1.2-2.7 3.3 0 2 1.2 3.3 2.7 3.3 1.4 0 2.8-1.3 2.8-3.3zM243.5 271.4c0-3 1.7-5 3.9-5 2.4 0 3.8 2 3.8 4.8v.5h-6.3c.1 2.1 1.4 3.2 2.9 3.2 1 0 1.8-.4 2.4-1.1l.7.8c-.8.9-1.8 1.4-3.2 1.4-2.3.2-4.2-1.6-4.2-4.6zm6.3-.6c-.1-1.8-.9-3.2-2.5-3.2-1.4 0-2.4 1.3-2.6 3.2h5.1zM252.8 266.6h1.3v2.1c.6-1.3 1.7-2.3 3.2-2.2v1.4h-.1c-1.7 0-3.2 1.2-3.2 3.6v4.5h-1.3v-9.4zM257.8 274.8l.7-1c.9.7 1.8 1.1 2.7 1.1 1 0 1.7-.6 1.7-1.5 0-.8-.8-1.3-2-1.8-1.5-.6-2.7-1.2-2.7-2.7 0-1.5 1.2-2.6 2.9-2.6 1.1 0 2.2.4 3 1l-.6 1c-.7-.5-1.5-.9-2.4-.9-1 0-1.6.6-1.6 1.3 0 .8.8 1.2 2.1 1.7 1.5.7 2.6 1.3 2.6 2.8 0 1.7-1.4 2.7-3 2.7-1.2.3-2.5-.2-3.4-1.1zM269.5 273.3c0-2 1.4-3.1 3.5-3.1 1 0 1.7.2 2.4.4v-.6c0-1.5-.9-2.3-2.4-2.3-.9 0-1.7.3-2.4.6l-.4-1.1c.9-.4 1.8-.8 3-.8 1.1 0 2 .3 2.6.9.6.6.9 1.4.9 2.5v6h-1.3v-1.4c-.6.9-1.5 1.6-2.9 1.6-1.6.2-3-.9-3-2.7zm5.8-.6v-1.2c-.6-.2-1.4-.4-2.3-.4-1.5 0-2.3.8-2.3 2v.1c0 1.2.9 1.9 2 1.9 1.5 0 2.6-1 2.6-2.4z"/></g><g fill="#FFF"><path d="M85.4 286.6h1.3v1.5c.5-.9 1.3-1.7 2.6-1.7s2.1.7 2.6 1.7c.6-.9 1.4-1.7 2.9-1.7 1.8 0 3 1.3 3 3.4v6.1h-1.3v-5.8c0-1.7-.8-2.6-2-2.6s-2.2 1-2.2 2.7v5.7H91v-5.8c0-1.7-.8-2.6-2-2.6-1.3 0-2.2 1.1-2.2 2.7v5.7h-1.3v-9.3zM99.3 293.3c0-2 1.4-3.1 3.5-3.1 1 0 1.7.2 2.4.4v-.6c0-1.5-.9-2.3-2.4-2.3-.9 0-1.7.3-2.4.6l-.4-1.1c.9-.4 1.8-.8 3-.8 1.1 0 2 .3 2.6.9.6.6.9 1.4.9 2.5v6h-1.3v-1.4c-.6.9-1.5 1.6-2.9 1.6-1.6.2-3-.9-3-2.7zm5.9-.6v-1.2c-.6-.2-1.4-.4-2.3-.4-1.5 0-2.3.8-2.3 2v.1c0 1.2.9 1.9 2 1.9 1.4 0 2.6-1 2.6-2.4zM108.5 286.6h1.3v2.1c.6-1.3 1.7-2.3 3.2-2.2v1.4c-1.7 0-3.2 1.2-3.2 3.6v4.5h-1.3v-9.4zM114.4 283h1.3v8.7l4.2-5.1h1.6l-3.3 3.9 3.4 5.4H120l-2.8-4.4-1.5 1.8v2.6h-1.3V283zM121.9 291.4c0-3 1.7-5 3.9-5 2.4 0 3.8 2 3.8 4.8v.5h-6.3c.1 2.1 1.4 3.2 2.9 3.2 1 0 1.8-.4 2.4-1.1l.7.8c-.8.9-1.8 1.4-3.2 1.4-2.3.2-4.2-1.6-4.2-4.6zm6.3-.6c-.1-1.8-.9-3.2-2.5-3.2-1.4 0-2.4 1.3-2.6 3.2h5.1zM131.6 293.8v-6h-1.1v-1.2h1.1v-2.7h1.3v2.7h2.4v1.2h-2.4v5.8c0 1 .5 1.3 1.4 1.3.4 0 .7-.1 1.1-.3v1.1c-.4.2-.9.3-1.4.3-1.4.1-2.4-.5-2.4-2.2zM140.6 291.4v-.1c0-2.7 1.8-4.8 4.2-4.8s4.2 2.1 4.2 4.8v.1c0 2.7-1.8 4.8-4.2 4.8-2.4 0-4.2-2.1-4.2-4.8zm7.1 0c0-2.2-1.3-3.8-2.9-3.8-1.7 0-2.8 1.6-2.8 3.7v.1c0 2.1 1.2 3.7 2.8 3.7 1.7-.1 2.9-1.7 2.9-3.7zM150.7 286.6h1.3v2.1c.6-1.3 1.7-2.3 3.2-2.2v1.4h-.1c-1.7 0-3.2 1.2-3.2 3.6v4.5h-1.3v-9.4zM155.7 291.4v-.2c0-3.1 1.8-4.8 3.7-4.8 1.5 0 2.4.9 3 1.9V283h1.3v13h-1.3v-1.8c-.6 1.1-1.6 2-3 2-1.8 0-3.7-1.7-3.7-4.8zm6.9 0v-.2c0-2.2-1.4-3.6-2.8-3.6-1.5 0-2.7 1.3-2.7 3.6v.1c0 2.3 1.2 3.6 2.7 3.6 1.4.1 2.8-1.3 2.8-3.5zM165.5 291.4c0-3 1.7-5 3.9-5 2.4 0 3.8 2 3.8 4.8v.5h-6.3c.1 2.1 1.4 3.2 2.9 3.2 1 0 1.8-.4 2.4-1.1l.7.8c-.8.9-1.8 1.4-3.2 1.4-2.3.2-4.2-1.6-4.2-4.6zm6.4-.6c-.1-1.8-.9-3.2-2.5-3.2-1.4 0-2.4 1.3-2.6 3.2h5.1zM174.8 286.6h1.3v2.1c.6-1.3 1.7-2.3 3.2-2.2v1.4h-.1c-1.7 0-3.2 1.2-3.2 3.6v4.5h-1.3v-9.4zM184.2 286.6h1.4l2.1 7.5 2.1-7.5h1.1l2.1 7.5 2.1-7.5h1.3l-2.8 9.5h-1.2l-2.1-7.3-2.1 7.3H187l-2.8-9.5zM198 283h1.3v5.1c.5-.9 1.4-1.7 2.8-1.7 1.9 0 3.1 1.3 3.1 3.4v6.1h-1.3v-5.8c0-1.7-.8-2.6-2.2-2.6-1.4 0-2.4 1.1-2.4 2.7v5.7H198V283zM206.7 291.4c0-3 1.7-5 3.9-5 2.4 0 3.8 2 3.8 4.8v.5H208c.1 2.1 1.4 3.2 2.9 3.2 1 0 1.8-.4 2.4-1.1l.7.8c-.8.9-1.8 1.4-3.2 1.4-2.2.2-4.1-1.6-4.1-4.6zm6.3-.6c-.1-1.8-.9-3.2-2.5-3.2-1.4 0-2.4 1.3-2.6 3.2h5.1zM216 286.6h1.3v1.5c.5-.9 1.4-1.7 2.8-1.7 1.9 0 3.1 1.3 3.1 3.4v6.1h-1.3v-5.8c0-1.7-.8-2.6-2.2-2.6-1.4 0-2.4 1.1-2.4 2.7v5.7H216v-9.3zM229.8 293.8v-6h-1.1v-1.2h1.1v-2.7h1.3v2.7h2.4v1.2h-2.4v5.8c0 1 .5 1.3 1.4 1.3.4 0 .7-.1 1.1-.3v1.1c-.4.2-.9.3-1.4.3-1.4.1-2.4-.5-2.4-2.2zM235.2 283h1.3v5.1c.5-.9 1.4-1.7 2.8-1.7 1.9 0 3.1 1.3 3.1 3.4v6.1H241v-5.8c0-1.7-.8-2.6-2.2-2.6-1.4 0-2.4 1.1-2.4 2.7v5.7h-1.3V283zM243.9 291.4c0-3 1.7-5 3.9-5 2.4 0 3.8 2 3.8 4.8v.5h-6.3c.1 2.1 1.4 3.2 2.9 3.2 1 0 1.8-.4 2.4-1.1l.7.8c-.8.9-1.8 1.4-3.2 1.4-2.3.2-4.2-1.6-4.2-4.6zm6.3-.6c-.1-1.8-.9-3.2-2.5-3.2-1.4 0-2.4 1.3-2.6 3.2h5.1zM258.7 294.3v1.7h-1.3v-13h1.3v5.4c.6-1.1 1.6-2 3-2 1.9 0 3.7 1.7 3.7 4.8v.2c0 3.1-1.8 4.8-3.7 4.8-1.5 0-2.4-.9-3-1.9zm5.4-2.9v-.1c0-2.3-1.2-3.6-2.7-3.6-1.5 0-2.8 1.4-2.8 3.6v.2c0 2.2 1.4 3.6 2.8 3.6s2.7-1.4 2.7-3.7zM267.2 283.2h1.4v1.5h-1.4v-1.5zm.1 3.4h1.3v9.4h-1.3v-9.4zM270.5 291.4v-.2c0-3.1 1.8-4.8 3.7-4.8 1.5 0 2.4.9 3 1.9V283h1.3v13h-1.3v-1.8c-.6 1.1-1.6 2-3 2-1.9 0-3.7-1.7-3.7-4.8zm6.8 0v-.2c0-2.2-1.4-3.6-2.8-3.6-1.5 0-2.7 1.3-2.7 3.6v.1c0 2.3 1.2 3.6 2.7 3.6 1.4.1 2.8-1.3 2.8-3.5z"/></g><g fill="#FFF"><path d="M85.4 307.6h1.3v1.8c.6-1.1 1.6-2 3-2 1.9 0 3.7 1.7 3.7 4.8v.2c0 3.1-1.8 4.8-3.7 4.8-1.5 0-2.4-.9-3-1.9v4.4h-1.3v-12.1zm6.8 4.8v-.1c0-2.3-1.2-3.6-2.7-3.6-1.5 0-2.8 1.4-2.8 3.6v.2c0 2.2 1.4 3.6 2.8 3.6 1.5-.1 2.7-1.4 2.7-3.7zM95.2 307.6h1.3v2.1c.6-1.3 1.7-2.3 3.2-2.2v1.4h-.1c-1.7 0-3.2 1.2-3.2 3.6v4.5h-1.3v-9.4zM101.1 304.2h1.4v1.5h-1.4v-1.5zm.1 3.4h1.3v9.4h-1.3v-9.4zM104.3 312.4v-.1c0-2.8 1.8-4.8 4.2-4.8 1.3 0 2.2.6 3 1.3l-.8 1c-.6-.6-1.2-1.1-2.2-1.1-1.6 0-2.8 1.5-2.8 3.7v.1c0 2.2 1.3 3.6 2.9 3.6.9 0 1.6-.5 2.2-1.1l.8.9c-.7.8-1.6 1.4-3 1.4-2.5-.1-4.3-2-4.3-4.9zM112.2 312.4c0-3 1.7-5 3.9-5 2.4 0 3.8 2 3.8 4.8v.5h-6.3c.1 2.1 1.4 3.2 2.9 3.2 1 0 1.8-.4 2.4-1.1l.7.8c-.8.9-1.8 1.4-3.2 1.4-2.3.2-4.2-1.6-4.2-4.6zm6.4-.6c-.1-1.8-.9-3.2-2.5-3.2-1.4 0-2.4 1.3-2.6 3.2h5.1zM125.7 304.2h1.4v1.5h-1.4v-1.5zm.1 3.4h1.3v9.4h-1.3v-9.4zM128.6 315.8l.7-1c.9.7 1.8 1.1 2.7 1.1 1 0 1.7-.6 1.7-1.5 0-.8-.8-1.3-2-1.8-1.5-.6-2.7-1.2-2.7-2.7 0-1.5 1.2-2.6 2.9-2.6 1.1 0 2.2.4 3 1l-.6 1c-.7-.5-1.5-.9-2.4-.9-1 0-1.6.6-1.6 1.3 0 .8.8 1.2 2.1 1.7 1.5.7 2.6 1.3 2.6 2.8 0 1.7-1.4 2.7-3 2.7-1.2.3-2.4-.2-3.4-1.1zM140.9 307.6h1.3v1.5c.5-.9 1.3-1.7 2.6-1.7s2.1.7 2.6 1.7c.6-.9 1.4-1.7 2.9-1.7 1.8 0 3 1.3 3 3.4v6.1H152v-5.8c0-1.7-.8-2.6-2-2.6s-2.2 1-2.2 2.7v5.7h-1.3v-5.8c0-1.7-.8-2.6-2-2.6-1.3 0-2.2 1.1-2.2 2.7v5.7H141v-9.3zM154.9 312.4c0-3 1.7-5 3.9-5 2.4 0 3.8 2 3.8 4.8v.5h-6.3c.1 2.1 1.4 3.2 2.9 3.2 1 0 1.8-.4 2.4-1.1l.7.8c-.8.9-1.8 1.4-3.2 1.4-2.3.2-4.2-1.6-4.2-4.6zm6.3-.6c-.1-1.8-.9-3.2-2.5-3.2-1.4 0-2.4 1.3-2.6 3.2h5.1zM164.5 314.8v-6h-1.1v-1.2h1.1v-2.7h1.3v2.7h2.4v1.2h-2.4v5.8c0 1 .5 1.3 1.4 1.3.4 0 .7-.1 1.1-.3v1.1c-.4.2-.9.3-1.4.3-1.3.1-2.4-.5-2.4-2.2z"/></g><g fill="#FFF"><path d="M84.8 141.3c0-2 1.4-3.1 3.5-3.1 1 0 1.7.2 2.4.4v-.6c0-1.5-.9-2.3-2.4-2.3-.9 0-1.7.3-2.4.6l-.4-1.1c.9-.4 1.8-.8 3-.8 1.1 0 2 .3 2.6.9.6.6.9 1.4.9 2.5v6h-1.3v-1.4c-.6.9-1.5 1.6-2.9 1.6-1.6.2-3-.9-3-2.7zm5.9-.6v-1.2c-.6-.2-1.4-.4-2.3-.4-1.5 0-2.3.8-2.3 2v.1c0 1.2.9 1.9 2 1.9 1.4 0 2.6-1 2.6-2.4zM98.2 134.6h1.3v1.5c.5-.9 1.3-1.7 2.6-1.7s2.1.7 2.6 1.7c.6-.9 1.4-1.7 2.9-1.7 1.8 0 3 1.3 3 3.4v6.1h-1.3v-5.8c0-1.7-.8-2.6-2-2.6s-2.2 1-2.2 2.7v5.7h-1.3v-5.8c0-1.7-.8-2.6-2-2.6-1.3 0-2.2 1.1-2.2 2.7v5.7h-1.3v-9.3zM112.1 141.3c0-2 1.4-3.1 3.5-3.1 1 0 1.7.2 2.4.4v-.6c0-1.5-.9-2.3-2.4-2.3-.9 0-1.7.3-2.4.6l-.4-1.1c.9-.4 1.8-.8 3-.8 1.1 0 2 .3 2.6.9.6.6.9 1.4.9 2.5v6H118v-1.4c-.6.9-1.5 1.6-2.9 1.6-1.5.2-3-.9-3-2.7zm5.9-.6v-1.2c-.6-.2-1.4-.4-2.3-.4-1.5 0-2.3.8-2.3 2v.1c0 1.2.9 1.9 2 1.9 1.4 0 2.6-1 2.6-2.4zM121.3 134.6h1.3v2.1c.6-1.3 1.7-2.3 3.2-2.2v1.4h-.1c-1.7 0-3.2 1.2-3.2 3.6v4.5h-1.3v-9.4zM127.2 131h1.3v8.7l4.2-5.1h1.6l-3.3 3.9 3.4 5.4h-1.5l-2.8-4.4-1.5 1.8v2.6h-1.3V131zM134.7 139.4c0-3 1.7-5 3.9-5 2.4 0 3.8 2 3.8 4.8v.5H136c.1 2.1 1.4 3.2 2.9 3.2 1 0 1.8-.4 2.4-1.1l.7.8c-.8.9-1.8 1.4-3.2 1.4-2.2.2-4.1-1.6-4.1-4.6zm6.4-.6c-.1-1.8-.9-3.2-2.5-3.2-1.4 0-2.4 1.3-2.6 3.2h5.1zM144.4 141.8v-6h-1.1v-1.2h1.1v-2.7h1.3v2.7h2.4v1.2h-2.4v5.8c0 1 .5 1.4 1.4 1.4.4 0 .7-.1 1.1-.3v1.1c-.4.2-.9.3-1.4.3-1.4 0-2.4-.6-2.4-2.3zM153.5 139.4v-.1c0-2.7 1.8-4.8 4.2-4.8s4.2 2.1 4.2 4.8v.1c0 2.7-1.8 4.8-4.2 4.8-2.5 0-4.2-2.1-4.2-4.8zm7 0c0-2.2-1.3-3.8-2.9-3.8-1.7 0-2.8 1.6-2.8 3.7v.1c0 2.1 1.2 3.7 2.8 3.7 1.7-.1 2.9-1.7 2.9-3.7zM163.5 134.6h1.3v2.1c.6-1.3 1.7-2.3 3.2-2.2v1.4h-.1c-1.7 0-3.2 1.2-3.2 3.6v4.5h-1.3v-9.4zM168.5 139.4v-.2c0-3.1 1.8-4.8 3.7-4.8 1.5 0 2.4.9 3 1.9V131h1.3v13h-1.3v-1.8c-.6 1.1-1.6 2-3 2-1.8 0-3.7-1.7-3.7-4.8zm6.9 0v-.2c0-2.2-1.4-3.6-2.8-3.6-1.5 0-2.7 1.3-2.7 3.6v.1c0 2.3 1.2 3.6 2.7 3.6 1.4.1 2.8-1.3 2.8-3.5zM178.3 139.4c0-3 1.7-5 3.9-5 2.4 0 3.8 2 3.8 4.8v.5h-6.3c.1 2.1 1.4 3.2 2.9 3.2 1 0 1.8-.4 2.4-1.1l.7.8c-.8.9-1.8 1.4-3.2 1.4-2.3.2-4.2-1.6-4.2-4.6zm6.4-.6c-.1-1.8-.9-3.2-2.5-3.2-1.4 0-2.4 1.3-2.6 3.2h5.1zM187.6 134.6h1.3v2.1c.6-1.3 1.7-2.3 3.2-2.2v1.4h-.1c-1.7 0-3.2 1.2-3.2 3.6v4.5h-1.3v-9.4zM197 134.6h1.4l2.1 7.5 2.1-7.5h1.1l2.1 7.5 2.1-7.5h1.3l-2.8 9.5h-1.2l-2.1-7.3-2.1 7.3h-1.2l-2.8-9.5zM210.8 131h1.3v5.1c.5-.9 1.4-1.7 2.8-1.7 1.9 0 3.1 1.3 3.1 3.4v6.1h-1.3v-5.8c0-1.7-.8-2.6-2.2-2.6-1.4 0-2.4 1.1-2.4 2.7v5.7h-1.3V131zM219.5 139.4c0-3 1.7-5 3.9-5 2.4 0 3.8 2 3.8 4.8v.5h-6.3c.1 2.1 1.4 3.2 2.9 3.2 1 0 1.8-.4 2.4-1.1l.7.8c-.8.9-1.8 1.4-3.2 1.4-2.3.2-4.2-1.6-4.2-4.6zm6.3-.6c-.1-1.8-.9-3.2-2.5-3.2-1.4 0-2.4 1.3-2.6 3.2h5.1zM228.8 134.6h1.3v1.5c.5-.9 1.4-1.7 2.8-1.7 1.9 0 3.1 1.3 3.1 3.4v6.1h-1.3v-5.8c0-1.7-.8-2.6-2.2-2.6s-2.4 1.1-2.4 2.7v5.7h-1.3v-9.3zM242.6 141.8v-6h-1.1v-1.2h1.1v-2.7h1.3v2.7h2.4v1.2h-2.4v5.8c0 1 .5 1.4 1.4 1.4.4 0 .7-.1 1.1-.3v1.1c-.4.2-.9.3-1.4.3-1.4 0-2.4-.6-2.4-2.3zM248 131h1.3v5.1c.5-.9 1.4-1.7 2.8-1.7 1.9 0 3.1 1.3 3.1 3.4v6.1h-1.3v-5.8c0-1.7-.8-2.6-2.2-2.6-1.4 0-2.4 1.1-2.4 2.7v5.7H248V131zM256.7 139.4c0-3 1.7-5 3.9-5 2.4 0 3.8 2 3.8 4.8v.5H258c.1 2.1 1.4 3.2 2.9 3.2 1 0 1.8-.4 2.4-1.1l.7.8c-.8.9-1.8 1.4-3.2 1.4-2.2.2-4.1-1.6-4.1-4.6zm6.3-.6c-.1-1.8-.9-3.2-2.5-3.2-1.4 0-2.4 1.3-2.6 3.2h5.1z"/></g><g fill="#FFF"><path d="M84.8 162.3c0-2 1.4-3.1 3.5-3.1 1 0 1.7.2 2.4.4v-.6c0-1.5-.9-2.3-2.4-2.3-.9 0-1.7.3-2.4.6l-.4-1.1c.9-.4 1.8-.8 3-.8 1.1 0 2 .3 2.6.9.6.6.9 1.4.9 2.5v6h-1.3v-1.4c-.6.9-1.5 1.6-2.9 1.6-1.6.2-3-.9-3-2.7zm5.9-.6v-1.2c-.6-.2-1.4-.4-2.3-.4-1.5 0-2.3.8-2.3 2v.1c0 1.2.9 1.9 2 1.9 1.4 0 2.6-1 2.6-2.4zM93.2 163.8l.7-1c.9.7 1.8 1.1 2.7 1.1 1 0 1.7-.6 1.7-1.5 0-.8-.8-1.3-2-1.8-1.5-.6-2.7-1.2-2.7-2.7 0-1.5 1.2-2.6 2.9-2.6 1.1 0 2.2.4 3 1l-.6 1c-.7-.5-1.5-.9-2.4-.9-1 0-1.6.6-1.6 1.3 0 .8.8 1.2 2.1 1.7 1.5.7 2.6 1.3 2.6 2.8 0 1.7-1.4 2.7-3 2.7-1.2.3-2.5-.2-3.4-1.1zM101.3 152h1.3v8.7l4.2-5.1h1.6l-3.3 3.9 3.4 5.4H107l-2.8-4.4-1.5 1.8v2.6h-1.3V152zM113.9 155.6h1.3v1.8c.6-1.1 1.6-2 3-2 1.9 0 3.7 1.7 3.7 4.8v.2c0 3.1-1.8 4.8-3.7 4.8-1.5 0-2.4-.9-3-1.9v4.4h-1.3v-12.1zm6.7 4.8v-.1c0-2.3-1.2-3.6-2.7-3.6-1.5 0-2.8 1.4-2.8 3.6v.2c0 2.2 1.4 3.6 2.8 3.6 1.6-.1 2.7-1.4 2.7-3.7zM123.7 155.6h1.3v2.1c.6-1.3 1.7-2.3 3.2-2.2v1.4h-.1c-1.7 0-3.2 1.2-3.2 3.6v4.5h-1.3v-9.4zM129.6 152.2h1.4v1.5h-1.4v-1.5zm.1 3.4h1.3v9.4h-1.3v-9.4zM132.8 160.4v-.1c0-2.8 1.8-4.8 4.2-4.8 1.3 0 2.2.6 3 1.3l-.8 1c-.6-.6-1.2-1.1-2.2-1.1-1.6 0-2.8 1.5-2.8 3.7v.1c0 2.2 1.3 3.6 2.9 3.6.9 0 1.6-.5 2.2-1.1l.8.9c-.7.8-1.6 1.4-3 1.4-2.5-.1-4.3-2-4.3-4.9zM140.7 160.4c0-3 1.7-5 3.9-5 2.4 0 3.8 2 3.8 4.8v.5H142c.1 2.1 1.4 3.2 2.9 3.2 1 0 1.8-.4 2.4-1.1l.7.8c-.8.9-1.8 1.4-3.2 1.4-2.2.2-4.1-1.6-4.1-4.6zm6.4-.6c-.1-1.8-.9-3.2-2.5-3.2-1.4 0-2.4 1.3-2.6 3.2h5.1zM154.2 152.2h1.4v1.5h-1.4v-1.5zm.1 3.4h1.3v9.4h-1.3v-9.4zM157.1 163.8l.7-1c.9.7 1.8 1.1 2.7 1.1 1 0 1.7-.6 1.7-1.5 0-.8-.8-1.3-2-1.8-1.5-.6-2.7-1.2-2.7-2.7 0-1.5 1.2-2.6 2.9-2.6 1.1 0 2.2.4 3 1l-.6 1c-.7-.5-1.5-.9-2.4-.9-1 0-1.6.6-1.6 1.3 0 .8.8 1.2 2.1 1.7 1.5.7 2.6 1.3 2.6 2.8 0 1.7-1.4 2.7-3 2.7-1.2.3-2.4-.2-3.4-1.1zM169.4 155.6h1.3v1.5c.5-.9 1.3-1.7 2.6-1.7s2.1.7 2.6 1.7c.6-.9 1.4-1.7 2.9-1.7 1.8 0 3 1.3 3 3.4v6.1h-1.3v-5.8c0-1.7-.8-2.6-2-2.6s-2.2 1-2.2 2.7v5.7H175v-5.8c0-1.7-.8-2.6-2-2.6-1.3 0-2.2 1.1-2.2 2.7v5.7h-1.3v-9.3zM183.4 160.4c0-3 1.7-5 3.9-5 2.4 0 3.8 2 3.8 4.8v.5h-6.3c.1 2.1 1.4 3.2 2.9 3.2 1 0 1.8-.4 2.4-1.1l.7.8c-.8.9-1.8 1.4-3.2 1.4-2.3.2-4.2-1.6-4.2-4.6zm6.3-.6c-.1-1.8-.9-3.2-2.5-3.2-1.4 0-2.4 1.3-2.6 3.2h5.1zM193 162.8v-6h-1.1v-1.2h1.1v-2.7h1.3v2.7h2.4v1.2h-2.4v5.8c0 1 .5 1.4 1.4 1.4.4 0 .7-.1 1.1-.3v1.1c-.4.2-.9.3-1.4.3-1.4 0-2.4-.6-2.4-2.3z"/></g></svg>