<svg xmlns="http://www.w3.org/2000/svg" viewBox="0 0 582 498"><path fill="#073B51" d="M0 77h582v422H0z"/><path fill="#FFD816" d="M0 0h582v77H0z"/><g fill="#333"><path d="M31.8 30l-3.4-5.9h1.2l2.8 4.8 2.8-4.8h1.2L32.8 30v4h-1.1v-4zM36 30.4c0-2.2 1.4-3.9 3.2-3.9s3.2 1.6 3.2 3.7v.1c0 2.1-1.4 3.8-3.3 3.8-1.8.1-3.1-1.6-3.1-3.7zm5.4 0c0-1.7-1-2.9-2.2-2.9-1.3 0-2.2 1.2-2.2 2.8v.1c0 1.6 1 2.9 2.2 2.9 1.3-.1 2.2-1.3 2.2-2.9zM44 31.5v-4.8h1v4.5c0 1.3.6 2 1.7 2s1.8-.8 1.8-2.1v-4.5h1V34h-1v-1.2c-.4.7-1.1 1.3-2.2 1.3-1.4 0-2.3-1-2.3-2.6zM56.3 32.6V34h-1V23.9h1v4.2c.5-.8 1.2-1.5 2.4-1.5 1.5 0 2.9 1.3 2.9 3.7v.1c0 2.4-1.4 3.7-2.9 3.7-1.2 0-1.9-.7-2.4-1.5zm4.2-2.2v-.1c0-1.8-1-2.8-2.1-2.8s-2.2 1.1-2.2 2.8v.1c0 1.7 1.1 2.8 2.2 2.8s2.1-1 2.1-2.8zM62.9 30.4c0-2.2 1.4-3.9 3.2-3.9s3.2 1.6 3.2 3.7v.1c0 2.1-1.4 3.8-3.3 3.8-1.8.1-3.1-1.6-3.1-3.7zm5.4 0c0-1.7-1-2.9-2.2-2.9-1.3 0-2.2 1.2-2.2 2.8v.1c0 1.6 1 2.9 2.2 2.9 1.3-.1 2.2-1.3 2.2-2.9zM70.9 31.5v-4.8h1v4.5c0 1.3.6 2 1.7 2s1.8-.8 1.8-2.1v-4.5h1V34h-1v-1.2c-.4.7-1.1 1.3-2.2 1.3-1.4 0-2.3-1-2.3-2.6zM78.5 35.3l.4-.8c.7.4 1.5.7 2.4.7 1.4 0 2.2-.7 2.2-2.2v-1c-.5.8-1.2 1.5-2.4 1.5-1.5 0-2.9-1.2-2.9-3.4V30c0-2.2 1.4-3.4 2.9-3.4 1.2 0 1.9.7 2.4 1.4v-1.3h1V33c0 1-.3 1.7-.8 2.3-.6.6-1.4.8-2.4.8s-2-.2-2.8-.8zm5-5.3c0-1.6-1.1-2.6-2.2-2.6s-2.1.9-2.1 2.5.9 2.5 2.1 2.5c1.1.2 2.2-.8 2.2-2.4zM86.5 23.9h1v4c.4-.7 1.1-1.3 2.2-1.3 1.5 0 2.4 1 2.4 2.7V34h-1v-4.5c0-1.3-.6-2-1.7-2s-1.8.8-1.8 2.1V34h-1V23.9zM94.4 32.3v-4.7h-.9v-.9h.9v-2.1h1v2.1h1.9v.9h-1.9v4.5c0 .8.4 1.1 1.1 1.1.3 0 .6-.1.9-.2v.9c-.3.2-.7.3-1.1.3-1.2-.1-1.9-.6-1.9-1.9zM102.7 24.2h6v1h-4.9v3.4h4.4v1h-4.4V33h5v1h-6.1v-9.8zM110.5 30.3v-6.1h1.1v6.1c0 1.8.9 2.9 2.5 2.9 1.5 0 2.5-1 2.5-2.8v-6.2h1.1v6.1c0 2.5-1.4 3.9-3.5 3.9-2.3 0-3.7-1.4-3.7-3.9zM119.7 24.2h3.3c1.1 0 2 .3 2.6.9.5.5.8 1.2.8 2 0 1.6-1 2.5-2.3 2.8l2.6 4h-1.3l-2.5-3.8h-2.2V34h-1.1v-9.8zm3.2 5c1.6 0 2.5-.8 2.5-2 0-1.3-.9-2-2.4-2h-2.2v4.1h2.1zM128.3 30.3v-6.1h1.1v6.1c0 1.8.9 2.9 2.5 2.9 1.5 0 2.5-1 2.5-2.8v-6.2h1.1v6.1c0 2.5-1.4 3.9-3.5 3.9-2.3 0-3.7-1.4-3.7-3.9zM136.9 32.8l.7-.8c.8.8 1.7 1.2 2.8 1.2 1.2 0 2-.7 2-1.7 0-.8-.4-1.3-2.2-2-2-.8-2.8-1.5-2.8-2.9 0-1.5 1.2-2.6 3-2.6 1.1 0 2.1.4 2.9 1.1l-.6.8c-.7-.6-1.5-1-2.4-1-1.1 0-1.8.7-1.8 1.5 0 .9.4 1.3 2.3 2 2 .7 2.7 1.5 2.7 2.8 0 1.6-1.3 2.7-3 2.7-1.4.2-2.6-.2-3.6-1.1zM145.2 24.2h2.8c2.7 0 4.6 2 4.6 4.8v.1c0 2.9-1.9 4.9-4.6 4.9h-2.8v-9.8zm1.1 1V33h1.7c2.1 0 3.5-1.6 3.5-3.9V29c0-2.3-1.4-3.9-3.5-3.9h-1.7zM157.6 31.9c0-1.6 1.1-2.4 2.7-2.4.8 0 1.3.1 1.9.3v-.4c0-1.2-.7-1.8-1.9-1.8-.7 0-1.4.2-1.9.5l-.3-.8c.7-.3 1.4-.6 2.3-.6.9 0 1.6.3 2 .7.4.4.7 1.1.7 2V34h-1v-1.1c-.4.7-1.1 1.2-2.2 1.2-1.2.1-2.3-.8-2.3-2.2zm4.6-.4v-.9c-.5-.2-1.1-.3-1.8-.3-1.2 0-1.8.6-1.8 1.5s.7 1.5 1.6 1.5c1.1 0 2-.8 2-1.8zM165.4 32.3v-4.7h-.9v-.9h.9v-2.1h1v2.1h1.9v.9h-1.9v4.5c0 .8.4 1.1 1.1 1.1.3 0 .6-.1.9-.2v.9c-.3.2-.7.3-1.1.3-1.2-.1-1.9-.6-1.9-1.9zM174.6 25.3l-1.6.6-.2-.9 2-.8h.8V34h-1v-8.7zM177.9 32.6h1.3V34h-1.3v-1.4zM180.6 29.2v-.1c0-2.9 1.4-5 3.6-5s3.5 2 3.5 5v.1c0 2.9-1.4 5-3.6 5s-3.5-2.1-3.5-5zm6 0v-.1c0-2.4-1-4.1-2.5-4.1s-2.5 1.7-2.5 4v.1c0 2.4 1 4.1 2.5 4.1s2.5-1.7 2.5-4zM193.5 25.2h-4.6v-1h5.7v.8l-3.8 9h-1.1l3.8-8.8zM199.4 31.7h-4.5l-.2-.8 4.8-6.8h.9v6.7h1.3v.9h-1.3V34h-1v-2.3zm0-.9v-5.1l-3.5 5.1h3.5zM202.8 32.9l.6-.8c.7.6 1.4 1 2.3 1 1.2 0 2.1-.9 2.1-2.2 0-1.3-.9-2-2.1-2-.7 0-1.2.2-1.7.4l-.7-.5.3-4.7h4.9v1h-4l-.2 3.1c.5-.2.9-.4 1.6-.4 1.7 0 3 1 3 3 0 1.9-1.4 3.2-3.2 3.2-1.1.2-2.1-.4-2.9-1.1zM213.8 31.9c0-1.6 1.1-2.4 2.7-2.4.8 0 1.3.1 1.9.3v-.4c0-1.2-.7-1.8-1.9-1.8-.7 0-1.4.2-1.9.5l-.3-.8c.7-.3 1.4-.6 2.3-.6.9 0 1.6.3 2 .7.4.4.7 1.1.7 2V34h-1v-1.1c-.4.7-1.1 1.2-2.2 1.2-1.2.1-2.3-.8-2.3-2.2zm4.6-.4v-.9c-.5-.2-1.1-.3-1.8-.3-1.2 0-1.8.6-1.8 1.5s.7 1.5 1.6 1.5c1.1 0 2-.8 2-1.8zM221.3 26.7h1v1.2c.4-.7 1.1-1.3 2.2-1.3 1.5 0 2.4 1 2.4 2.7V34h-1v-4.5c0-1.3-.6-2-1.7-2s-1.8.8-1.8 2.1V34h-1v-7.3zM228.5 30.4v-.1c0-2.4 1.4-3.7 2.9-3.7 1.2 0 1.9.7 2.4 1.5v-4.2h1V34h-1v-1.4c-.5.8-1.2 1.5-2.4 1.5-1.5 0-2.9-1.2-2.9-3.7zm5.3 0v-.1c0-1.7-1.1-2.8-2.2-2.8-1.2 0-2.1 1-2.1 2.8v.1c0 1.8 1 2.8 2.1 2.8s2.2-1.1 2.2-2.8zM239.8 33.1l.5-.7c.7.6 1.4.9 2.1.9.8 0 1.4-.4 1.4-1.1 0-.6-.6-1-1.6-1.4-1.2-.5-2.1-1-2.1-2.1 0-1.2 1-2 2.3-2 .8 0 1.7.3 2.3.8l-.5.8c-.6-.4-1.2-.7-1.8-.7-.8 0-1.3.4-1.3 1s.6.9 1.6 1.3c1.2.5 2 1 2 2.1 0 1.3-1.1 2.1-2.4 2.1-.8 0-1.7-.3-2.5-1zM246.1 30.4c0-2.3 1.3-3.9 3-3.9 1.8 0 2.9 1.6 2.9 3.8v.4h-4.9c.1 1.6 1.1 2.5 2.3 2.5.8 0 1.4-.3 1.9-.8l.6.6c-.7.7-1.4 1.1-2.5 1.1-1.9.1-3.3-1.4-3.3-3.7zm4.9-.4c-.1-1.4-.7-2.5-1.9-2.5-1.1 0-1.9 1-2 2.5h3.9zM253.9 32.3v-4.7h-.9v-.9h.9v-2.1h1v2.1h1.9v.9h-1.9v4.5c0 .8.4 1.1 1.1 1.1.3 0 .6-.1.9-.2v.9c-.3.2-.7.3-1.1.3-1.1-.1-1.9-.6-1.9-1.9zM261.6 31.9c0-1.6 1.1-2.4 2.7-2.4.8 0 1.3.1 1.9.3v-.4c0-1.2-.7-1.8-1.9-1.8-.7 0-1.4.2-1.9.5l-.3-.8c.7-.3 1.4-.6 2.3-.6.9 0 1.6.3 2 .7.4.4.7 1.1.7 2V34h-1v-1.1c-.4.7-1.1 1.2-2.2 1.2-1.2.1-2.3-.8-2.3-2.2zm4.6-.4v-.9c-.5-.2-1.1-.3-1.8-.3-1.2 0-1.8.6-1.8 1.5s.7 1.5 1.6 1.5c1.1 0 2-.8 2-1.8zM273.1 32.3v-4.7h-.9v-.9h.9v-2.1h1v2.1h1.9v.9h-1.9v4.5c0 .8.4 1.1 1.1 1.1.3 0 .6-.1.9-.2v.9c-.3.2-.7.3-1.1.3-1.1-.1-1.9-.6-1.9-1.9zM277.6 26.7h1v1.6c.4-1 1.3-1.8 2.5-1.7v1.1h-.1c-1.4 0-2.5 1-2.5 2.8V34h-1v-7.3zM281.7 31.9c0-1.6 1.1-2.4 2.7-2.4.8 0 1.3.1 1.9.3v-.4c0-1.2-.7-1.8-1.9-1.8-.7 0-1.4.2-1.9.5l-.3-.8c.7-.3 1.4-.6 2.3-.6.9 0 1.6.3 2 .7.4.4.7 1.1.7 2V34h-1v-1.1c-.4.7-1.1 1.2-2.2 1.2-1.1.1-2.3-.8-2.3-2.2zm4.6-.4v-.9c-.5-.2-1.1-.3-1.8-.3-1.2 0-1.8.6-1.8 1.5s.7 1.5 1.6 1.5c1.1 0 2-.8 2-1.8zM289.3 24h1.1v1.2h-1.1V24zm0 2.7h1V34h-1v-7.3zM292.6 23.9h1V34h-1V23.9zM295.8 24h1.1v1.2h-1.1V24zm0 2.7h1V34h-1v-7.3zM299 26.7h1v1.2c.4-.7 1.1-1.3 2.2-1.3 1.5 0 2.4 1 2.4 2.7V34h-1v-4.5c0-1.3-.6-2-1.7-2s-1.8.8-1.8 2.1V34h-1v-7.3zM306.4 35.3l.4-.8c.7.4 1.5.7 2.4.7 1.4 0 2.2-.7 2.2-2.2v-1c-.5.8-1.2 1.5-2.4 1.5-1.5 0-2.9-1.2-2.9-3.4V30c0-2.2 1.4-3.4 2.9-3.4 1.2 0 1.9.7 2.4 1.4v-1.3h1V33c0 1-.3 1.7-.8 2.3-.6.6-1.4.8-2.4.8s-1.9-.2-2.8-.8zm5.1-5.3c0-1.6-1.1-2.6-2.2-2.6s-2.1.9-2.1 2.5.9 2.5 2.1 2.5c1.1.2 2.2-.8 2.2-2.4zM317.5 33.1l.5-.7c.7.6 1.4.9 2.1.9.8 0 1.4-.4 1.4-1.1 0-.6-.6-1-1.6-1.4-1.2-.5-2.1-1-2.1-2.1 0-1.2 1-2 2.3-2 .8 0 1.7.3 2.3.8l-.5.8c-.6-.4-1.2-.7-1.8-.7-.8 0-1.3.4-1.3 1s.6.9 1.6 1.3c1.2.5 2 1 2 2.1 0 1.3-1.1 2.1-2.4 2.1-.8 0-1.8-.3-2.5-1zM324.3 32.3v-4.7h-.9v-.9h.9v-2.1h1v2.1h1.9v.9h-1.9v4.5c0 .8.4 1.1 1.1 1.1.3 0 .6-.1.9-.2v.9c-.3.2-.7.3-1.1.3-1.1-.1-1.9-.6-1.9-1.9zM328.3 30.4c0-2.2 1.4-3.9 3.2-3.9s3.2 1.6 3.2 3.7v.1c0 2.1-1.4 3.8-3.3 3.8s-3.1-1.6-3.1-3.7zm5.5 0c0-1.7-1-2.9-2.2-2.9-1.3 0-2.2 1.2-2.2 2.8v.1c0 1.6 1 2.9 2.2 2.9 1.2-.1 2.2-1.3 2.2-2.9zM336.5 26.7h1v1.4c.5-.8 1.2-1.5 2.4-1.5 1.5 0 2.9 1.3 2.9 3.7v.1c0 2.4-1.4 3.7-2.9 3.7-1.2 0-1.9-.7-2.4-1.5v3.5h-1v-9.4zm5.2 3.7v-.1c0-1.8-1-2.8-2.1-2.8s-2.2 1.1-2.2 2.8v.1c0 1.7 1.1 2.8 2.2 2.8s2.1-1 2.1-2.8zM348.4 27.6h-.9v-.9h.9V26c0-.8.2-1.3.6-1.7.3-.3.8-.5 1.4-.5.4 0 .7.1 1 .1v.9c-.3-.1-.5-.1-.8-.1-.7 0-1.1.4-1.1 1.4v.6h1.9v.9h-1.9V34h-1v-6.4zM352 30.4c0-2.2 1.4-3.9 3.3-3.9s3.2 1.6 3.2 3.7v.1c0 2.1-1.4 3.8-3.3 3.8s-3.2-1.6-3.2-3.7zm5.5 0c0-1.7-1-2.9-2.2-2.9-1.3 0-2.2 1.2-2.2 2.8v.1c0 1.6 1 2.9 2.2 2.9 1.3-.1 2.2-1.3 2.2-2.9zM360.2 26.7h1v1.6c.4-1 1.3-1.8 2.5-1.7v1.1h-.1c-1.4 0-2.5 1-2.5 2.8V34h-1v-7.3zM368.2 32.8l.7-.7c.6.7 1.3 1.1 2.3 1.1 1.1 0 2-.8 2-2 0-1.3-1.1-1.9-2.6-1.9h-.4l-.2-.7 2.7-3.5h-4.2v-1h5.5v.9l-2.7 3.5c1.5.2 2.9 1 2.9 2.7 0 1.8-1.4 3-3.1 3-1.2 0-2.2-.6-2.9-1.4zM375.8 29.2v-.1c0-2.9 1.4-5 3.6-5s3.5 2 3.5 5v.1c0 2.9-1.4 5-3.6 5s-3.5-2.1-3.5-5zm6 0v-.1c0-2.4-1-4.1-2.5-4.1s-2.5 1.7-2.5 4v.1c0 2.4 1 4.1 2.5 4.1s2.5-1.7 2.5-4zM388.3 26.7h1v1.4c.5-.8 1.2-1.5 2.4-1.5 1.5 0 2.9 1.3 2.9 3.7v.1c0 2.4-1.4 3.7-2.9 3.7-1.2 0-1.9-.7-2.4-1.5v3.5h-1v-9.4zm5.2 3.7v-.1c0-1.8-1-2.8-2.1-2.8s-2.2 1.1-2.2 2.8v.1c0 1.7 1.1 2.8 2.2 2.8s2.1-1 2.1-2.8zM396.3 24h1.1v1.2h-1.1V24zm0 2.7h1V34h-1v-7.3zM399.5 26.7h1v1.4c.5-.8 1.2-1.5 2.4-1.5 1.5 0 2.9 1.3 2.9 3.7v.1c0 2.4-1.4 3.7-2.9 3.7-1.2 0-1.9-.7-2.4-1.5v3.5h-1v-9.4zm5.3 3.7v-.1c0-1.8-1-2.8-2.1-2.8s-2.2 1.1-2.2 2.8v.1c0 1.7 1.1 2.8 2.2 2.8s2.1-1 2.1-2.8zM406.8 33.1l.5-.7c.7.6 1.4.9 2.1.9.8 0 1.4-.4 1.4-1.1 0-.6-.6-1-1.6-1.4-1.2-.5-2.1-1-2.1-2.1 0-1.2 1-2 2.3-2 .8 0 1.7.3 2.3.8l-.5.8c-.6-.4-1.2-.7-1.8-.7-.8 0-1.3.4-1.3 1s.6.9 1.6 1.3c1.2.5 2 1 2 2.1 0 1.3-1.1 2.1-2.4 2.1-.7 0-1.7-.3-2.5-1zM416.6 31.9c0-1.6 1.1-2.4 2.7-2.4.8 0 1.3.1 1.9.3v-.4c0-1.2-.7-1.8-1.9-1.8-.7 0-1.4.2-1.9.5l-.3-.8c.7-.3 1.4-.6 2.3-.6.9 0 1.6.3 2 .7.4.4.7 1.1.7 2V34h-1v-1.1c-.4.7-1.1 1.2-2.2 1.2-1.1.1-2.3-.8-2.3-2.2zm4.6-.4v-.9c-.5-.2-1.1-.3-1.8-.3-1.2 0-1.8.6-1.8 1.5s.7 1.5 1.6 1.5c1.1 0 2-.8 2-1.8zM424.4 32.3v-4.7h-.9v-.9h.9v-2.1h1v2.1h1.9v.9h-1.9v4.5c0 .8.4 1.1 1.1 1.1.3 0 .6-.1.9-.2v.9c-.3.2-.7.3-1.1.3-1.1-.1-1.9-.6-1.9-1.9zM432.9 32.3v-4.7h-.9v-.9h.9v-2.1h1v2.1h1.9v.9h-1.9v4.5c0 .8.4 1.1 1.1 1.1.3 0 .6-.1.9-.2v.9c-.3.2-.7.3-1.1.3-1.1-.1-1.9-.6-1.9-1.9zM437.4 23.9h1v4c.4-.7 1.1-1.3 2.2-1.3 1.5 0 2.4 1 2.4 2.7V34h-1v-4.5c0-1.3-.6-2-1.7-2s-1.8.8-1.8 2.1V34h-1V23.9zM444.6 30.4c0-2.3 1.3-3.9 3-3.9 1.8 0 2.9 1.6 2.9 3.8v.4h-4.9c.1 1.6 1.1 2.5 2.3 2.5.8 0 1.4-.3 1.9-.8l.6.6c-.7.7-1.4 1.1-2.5 1.1-1.9.1-3.3-1.4-3.3-3.7zm4.9-.4c-.1-1.4-.7-2.5-1.9-2.5-1.1 0-1.9 1-2 2.5h3.9zM455.1 33.1l.5-.7c.7.6 1.4.9 2.1.9.8 0 1.4-.4 1.4-1.1 0-.6-.6-1-1.6-1.4-1.2-.5-2.1-1-2.1-2.1 0-1.2 1-2 2.3-2 .8 0 1.7.3 2.3.8l-.5.8c-.6-.4-1.2-.7-1.8-.7-.8 0-1.3.4-1.3 1s.6.9 1.6 1.3c1.2.5 2 1 2 2.1 0 1.3-1.1 2.1-2.4 2.1-.8 0-1.7-.3-2.5-1zM461.3 31.9c0-1.6 1.1-2.4 2.7-2.4.8 0 1.3.1 1.9.3v-.4c0-1.2-.7-1.8-1.9-1.8-.7 0-1.4.2-1.9.5l-.3-.8c.7-.3 1.4-.6 2.3-.6.9 0 1.6.3 2 .7.4.4.7 1.1.7 2V34h-1v-1.1c-.4.7-1.1 1.2-2.2 1.2-1.2.1-2.3-.8-2.3-2.2zm4.5-.4v-.9c-.5-.2-1.1-.3-1.8-.3-1.2 0-1.8.6-1.8 1.5s.7 1.5 1.6 1.5c1.2 0 2-.8 2-1.8zM468.8 26.7h1v1.2c.4-.7 1-1.3 2-1.3s1.7.5 2 1.3c.4-.7 1.1-1.3 2.2-1.3 1.4 0 2.3 1 2.3 2.7V34h-1v-4.5c0-1.3-.6-2-1.6-2s-1.7.8-1.7 2.1V34h-1v-4.5c0-1.3-.6-2-1.6-2s-1.7.9-1.7 2.1V34h-1v-7.3zM480 30.4c0-2.3 1.3-3.9 3-3.9 1.8 0 2.9 1.6 2.9 3.8v.4H481c.1 1.6 1.1 2.5 2.3 2.5.8 0 1.4-.3 1.9-.8l.6.6c-.7.7-1.4 1.1-2.5 1.1-1.8.1-3.3-1.4-3.3-3.7zm5-.4c-.1-1.4-.7-2.5-1.9-2.5-1.1 0-1.9 1-2 2.5h3.9zM491.2 26.7h1v1.6c.4-1 1.3-1.8 2.5-1.7v1.1h-.1c-1.4 0-2.5 1-2.5 2.8V34h-1v-7.3zM495.3 31.9c0-1.6 1.1-2.4 2.7-2.4.8 0 1.3.1 1.9.3v-.4c0-1.2-.7-1.8-1.9-1.8-.7 0-1.4.2-1.9.5l-.3-.8c.7-.3 1.4-.6 2.3-.6.9 0 1.6.3 2 .7.4.4.7 1.1.7 2V34h-1v-1.1c-.4.7-1.1 1.2-2.2 1.2-1.1.1-2.3-.8-2.3-2.2zm4.6-.4v-.9c-.5-.2-1.1-.3-1.8-.3-1.2 0-1.8.6-1.8 1.5s.7 1.5 1.6 1.5c1.1 0 2-.8 2-1.8zM503.1 32.3v-4.7h-.9v-.9h.9v-2.1h1v2.1h1.9v.9h-1.9v4.5c0 .8.4 1.1 1.1 1.1.3 0 .6-.1.9-.2v.9c-.3.2-.7.3-1.1.3-1.1-.1-1.9-.6-1.9-1.9zM507.1 30.4c0-2.3 1.3-3.9 3-3.9 1.8 0 2.9 1.6 2.9 3.8v.4h-4.9c.1 1.6 1.1 2.5 2.3 2.5.8 0 1.4-.3 1.9-.8l.6.6c-.7.7-1.4 1.1-2.5 1.1-1.9.1-3.3-1.4-3.3-3.7zm4.9-.4c-.1-1.4-.7-2.5-1.9-2.5-1.1 0-1.9 1-2 2.5h3.9zM514.4 32.6h1.3V34h-1.3v-1.4z"/></g><g fill="#333"><path d="M29.3 47.2h1.1V57h-1.1v-9.8zM33 50.6h-.9v-.9h.9V49c0-.8.2-1.3.6-1.7.3-.3.8-.5 1.4-.5.4 0 .7.1 1 .1v.9c-.3-.1-.5-.1-.8-.1-.7 0-1.1.4-1.1 1.4v.6H36v.9h-2V57h-1v-6.4zM41.1 55.3v-4.7h-.9v-.9h.9v-2.1h1v2.1H44v.9h-1.9v4.5c0 .8.4 1.1 1.1 1.1.3 0 .6-.1.9-.2v.9c-.3.2-.7.3-1.1.3-1.1-.1-1.9-.6-1.9-1.9zM45.6 46.9h1v4c.4-.7 1.1-1.3 2.2-1.3 1.5 0 2.4 1 2.4 2.7V57h-1v-4.5c0-1.3-.6-2-1.7-2s-1.8.8-1.8 2.1V57h-1V46.9zM52.7 53.4c0-2.3 1.3-3.9 3-3.9 1.8 0 2.9 1.6 2.9 3.8v.4h-4.9c.1 1.6 1.1 2.5 2.3 2.5.8 0 1.4-.3 1.9-.8l.6.6c-.7.7-1.4 1.1-2.5 1.1-1.8.1-3.3-1.4-3.3-3.7zm5-.4c-.1-1.4-.7-2.5-1.9-2.5-1.1 0-1.9 1-2 2.5h3.9zM63.9 49.7h1v1.2c.4-.7 1-1.3 2-1.3s1.7.5 2 1.3c.4-.7 1.1-1.3 2.2-1.3 1.4 0 2.3 1 2.3 2.7V57h-1v-4.5c0-1.3-.6-2-1.6-2s-1.7.8-1.7 2.1V57h-1v-4.5c0-1.3-.6-2-1.6-2s-1.7.9-1.7 2.1V57h-1v-7.3zM75.1 54.9c0-1.6 1.1-2.4 2.7-2.4.8 0 1.3.1 1.9.3v-.4c0-1.2-.7-1.8-1.9-1.8-.7 0-1.4.2-1.9.5l-.3-.8c.7-.3 1.4-.6 2.3-.6.9 0 1.6.3 2 .7.4.4.7 1.1.7 2V57h-1v-1.1c-.4.7-1.1 1.2-2.2 1.2-1.2.1-2.3-.8-2.3-2.2zm4.6-.4v-.9c-.5-.2-1.1-.3-1.8-.3-1.2 0-1.8.6-1.8 1.5s.7 1.5 1.6 1.5c1.1 0 2-.8 2-1.8zM82.6 49.7h1v1.6c.4-1 1.3-1.8 2.5-1.7v1.1H86c-1.4 0-2.5 1-2.5 2.8V57h-1v-7.3zM87.5 46.9h1v6.8l3.2-4H93l-2.6 3.1 2.7 4.2h-1.2l-2.2-3.4-1.2 1.4v2h-1V46.9zM93.7 53.4c0-2.3 1.3-3.9 3-3.9 1.8 0 2.9 1.6 2.9 3.8v.4h-4.9c.1 1.6 1.1 2.5 2.3 2.5.8 0 1.4-.3 1.9-.8l.6.6c-.7.7-1.4 1.1-2.5 1.1-1.8.1-3.3-1.4-3.3-3.7zm5-.4c-.1-1.4-.7-2.5-1.9-2.5-1.1 0-1.9 1-2 2.5h3.9zM101.6 55.3v-4.7h-.9v-.9h.9v-2.1h1v2.1h1.9v.9h-1.9v4.5c0 .8.4 1.1 1.1 1.1.3 0 .6-.1.9-.2v.9c-.3.2-.7.3-1.1.3-1.1-.1-1.9-.6-1.9-1.9zM109.7 49.7h1v1.2c.4-.7 1-1.3 2-1.3s1.7.5 2 1.3c.4-.7 1.1-1.3 2.2-1.3 1.4 0 2.3 1 2.3 2.7V57h-1v-4.5c0-1.3-.6-2-1.6-2s-1.7.8-1.7 2.1V57h-1v-4.5c0-1.3-.6-2-1.6-2s-1.7.9-1.7 2.1V57h-1v-7.3zM121 53.4c0-2.2 1.4-3.9 3.2-3.9s3.2 1.6 3.2 3.7v.1c0 2.1-1.4 3.8-3.3 3.8-1.8.1-3.1-1.6-3.1-3.7zm5.4 0c0-1.7-1-2.9-2.2-2.9-1.3 0-2.2 1.2-2.2 2.8v.1c0 1.6 1 2.9 2.2 2.9 1.3-.1 2.2-1.3 2.2-2.9zM128.2 49.7h1.1l2 6 2.1-6h1.1l-2.7 7.4h-.9l-2.7-7.4zM135.1 53.4c0-2.3 1.3-3.9 3-3.9 1.8 0 2.9 1.6 2.9 3.8v.4h-4.9c.1 1.6 1.1 2.5 2.3 2.5.8 0 1.4-.3 1.9-.8l.6.6c-.7.7-1.4 1.1-2.5 1.1-1.8.1-3.3-1.4-3.3-3.7zm5-.4c-.1-1.4-.7-2.5-1.9-2.5-1.1 0-1.9 1-2 2.5h3.9zM142 56.1l.5-.7c.7.6 1.4.9 2.1.9.8 0 1.4-.4 1.4-1.1 0-.6-.6-1-1.6-1.4-1.2-.5-2.1-1-2.1-2.1 0-1.2 1-2 2.3-2 .8 0 1.7.3 2.3.8l-.5.8c-.6-.4-1.2-.7-1.8-.7-.8 0-1.3.4-1.3 1s.6.9 1.6 1.3c1.2.5 2 1 2 2.1 0 1.3-1.1 2.1-2.4 2.1-.7 0-1.7-.3-2.5-1zM151.8 54.9c0-1.6 1.1-2.4 2.7-2.4.8 0 1.3.1 1.9.3v-.4c0-1.2-.7-1.8-1.9-1.8-.7 0-1.4.2-1.9.5l-.3-.8c.7-.3 1.4-.6 2.3-.6.9 0 1.6.3 2 .7.4.4.7 1.1.7 2V57h-1v-1.1c-.4.7-1.1 1.2-2.2 1.2-1.1.1-2.3-.8-2.3-2.2zm4.6-.4v-.9c-.5-.2-1.1-.3-1.8-.3-1.2 0-1.8.6-1.8 1.5s.7 1.5 1.6 1.5c1.1 0 2-.8 2-1.8zM159.3 58.3l.4-.8c.7.4 1.5.7 2.4.7 1.4 0 2.2-.7 2.2-2.2v-1c-.5.8-1.2 1.5-2.4 1.5-1.5 0-2.9-1.2-2.9-3.4V53c0-2.2 1.4-3.4 2.9-3.4 1.2 0 1.9.7 2.4 1.4v-1.3h1V56c0 1-.3 1.7-.8 2.3-.6.6-1.4.8-2.4.8s-2-.2-2.8-.8zm5-5.3c0-1.6-1.1-2.6-2.2-2.6s-2.1.9-2.1 2.5.9 2.5 2.1 2.5c1.1.2 2.2-.8 2.2-2.4zM166.9 54.9c0-1.6 1.1-2.4 2.7-2.4.8 0 1.3.1 1.9.3v-.4c0-1.2-.7-1.8-1.9-1.8-.7 0-1.4.2-1.9.5l-.3-.8c.7-.3 1.4-.6 2.3-.6.9 0 1.6.3 2 .7.4.4.7 1.1.7 2V57h-1v-1.1c-.4.7-1.1 1.2-2.2 1.2-1.2.1-2.3-.8-2.3-2.2zm4.6-.4v-.9c-.5-.2-1.1-.3-1.8-.3-1.2 0-1.8.6-1.8 1.5s.7 1.5 1.6 1.5c1.1 0 2-.8 2-1.8zM174.4 47h1.1v1.2h-1.1V47zm.1 2.7h1V57h-1v-7.3zM177.6 49.7h1v1.2c.4-.7 1.1-1.3 2.2-1.3 1.5 0 2.4 1 2.4 2.7V57h-1v-4.5c0-1.3-.6-2-1.7-2s-1.8.8-1.8 2.1V57h-1v-7.3zM184.5 56.1l.5-.7c.7.6 1.4.9 2.1.9.8 0 1.4-.4 1.4-1.1 0-.6-.6-1-1.6-1.4-1.2-.5-2.1-1-2.1-2.1 0-1.2 1-2 2.3-2 .8 0 1.7.3 2.3.8l-.5.8c-.6-.4-1.2-.7-1.8-.7-.8 0-1.3.4-1.3 1s.6.9 1.6 1.3c1.2.5 2 1 2 2.1 0 1.3-1.1 2.1-2.4 2.1-.8 0-1.7-.3-2.5-1zM191.4 55.3v-4.7h-.9v-.9h.9v-2.1h1v2.1h1.9v.9h-1.9v4.5c0 .8.4 1.1 1.1 1.1.3 0 .6-.1.9-.2v.9c-.3.2-.7.3-1.1.3-1.2-.1-1.9-.6-1.9-1.9zM204.1 49.7h1.1l-2.6 7.4c-.5 1.5-1.1 2-2.1 2-.5 0-.9-.1-1.3-.3l.3-.8c.3.2.6.3 1 .3.5 0 .9-.3 1.3-1.2l-2.8-7.3h1.1l2.2 6 1.8-6.1zM205.9 53.4c0-2.2 1.4-3.9 3.2-3.9s3.2 1.6 3.2 3.7v.1c0 2.1-1.4 3.8-3.3 3.8-1.7.1-3.1-1.6-3.1-3.7zm5.5 0c0-1.7-1-2.9-2.2-2.9-1.3 0-2.2 1.2-2.2 2.8v.1c0 1.6 1 2.9 2.2 2.9 1.3-.1 2.2-1.3 2.2-2.9zM214 54.5v-4.8h1v4.5c0 1.3.6 2 1.7 2s1.8-.8 1.8-2.1v-4.5h1V57h-1v-1.2c-.4.7-1.1 1.3-2.2 1.3-1.4 0-2.3-1-2.3-2.6zM226.3 55.6V57h-1V46.9h1v4.2c.5-.8 1.2-1.5 2.4-1.5 1.5 0 2.9 1.3 2.9 3.7v.1c0 2.4-1.4 3.7-2.9 3.7-1.2 0-2-.7-2.4-1.5zm4.2-2.2v-.1c0-1.8-1-2.8-2.1-2.8s-2.2 1.1-2.2 2.8v.1c0 1.7 1.1 2.8 2.2 2.8s2.1-1 2.1-2.8zM237.6 49.7h1.1l-2.6 7.4c-.5 1.5-1.1 2-2.1 2-.5 0-.9-.1-1.3-.3l.3-.8c.3.2.6.3 1 .3.5 0 .9-.3 1.3-1.2l-2.8-7.3h1.1l2.2 6 1.8-6.1zM243.2 55.8l.7-.7c.6.7 1.3 1.1 2.3 1.1 1.1 0 2-.8 2-2 0-1.3-1.1-1.9-2.6-1.9h-.4l-.2-.7 2.7-3.5h-4.2v-1h5.5v.9l-2.7 3.5c1.5.2 2.9 1 2.9 2.7 0 1.8-1.4 3-3.1 3-1.2 0-2.2-.6-2.9-1.4zM250.8 52.2v-.1c0-2.9 1.4-5 3.6-5s3.5 2 3.5 5v.1c0 2.9-1.4 5-3.6 5s-3.5-2.1-3.5-5zm6 0v-.1c0-2.4-1-4.1-2.5-4.1s-2.5 1.7-2.5 4v.1c0 2.4 1 4.1 2.5 4.1s2.5-1.7 2.5-4zM263.3 49.7h1v1.4c.5-.8 1.2-1.5 2.4-1.5 1.5 0 2.9 1.3 2.9 3.7v.1c0 2.4-1.4 3.7-2.9 3.7-1.2 0-1.9-.7-2.4-1.5v3.5h-1v-9.4zm5.2 3.7v-.1c0-1.8-1-2.8-2.1-2.8s-2.2 1.1-2.2 2.8v.1c0 1.7 1.1 2.8 2.2 2.8s2.1-1 2.1-2.8zM271.3 47h1.1v1.2h-1.1V47zm.1 2.7h1V57h-1v-7.3zM274.5 49.7h1v1.4c.5-.8 1.2-1.5 2.4-1.5 1.5 0 2.9 1.3 2.9 3.7v.1c0 2.4-1.4 3.7-2.9 3.7-1.2 0-1.9-.7-2.4-1.5v3.5h-1v-9.4zm5.3 3.7v-.1c0-1.8-1-2.8-2.1-2.8s-2.2 1.1-2.2 2.8v.1c0 1.7 1.1 2.8 2.2 2.8s2.1-1 2.1-2.8zM281.9 56.1l.5-.7c.7.6 1.4.9 2.1.9.8 0 1.4-.4 1.4-1.1 0-.6-.6-1-1.6-1.4-1.2-.5-2.1-1-2.1-2.1 0-1.2 1-2 2.3-2 .8 0 1.7.3 2.3.8l-.5.8c-.6-.4-1.2-.7-1.8-.7-.8 0-1.3.4-1.3 1s.6.9 1.6 1.3c1.2.5 2 1 2 2.1 0 1.3-1.1 2.1-2.4 2.1-.8 0-1.8-.3-2.5-1zM288 58.2c.7-.3 1-.6.9-1.2h-.5v-1.4h1.3v1.2c0 1.1-.5 1.6-1.5 1.9l-.2-.5zM295.6 55.3v-4.7h-.9v-.9h.9v-2.1h1v2.1h1.9v.9h-1.9v4.5c0 .8.4 1.1 1.1 1.1.3 0 .6-.1.9-.2v.9c-.3.2-.7.3-1.1.3-1.1-.1-1.9-.6-1.9-1.9zM300.1 46.9h1v4c.4-.7 1.1-1.3 2.2-1.3 1.5 0 2.4 1 2.4 2.7V57h-1v-4.5c0-1.3-.6-2-1.7-2s-1.8.8-1.8 2.1V57h-1V46.9zM307.2 53.4c0-2.3 1.3-3.9 3-3.9 1.8 0 2.9 1.6 2.9 3.8v.4h-4.9c.1 1.6 1.1 2.5 2.3 2.5.8 0 1.4-.3 1.9-.8l.6.6c-.7.7-1.4 1.1-2.5 1.1-1.8.1-3.3-1.4-3.3-3.7zm5-.4c-.1-1.4-.7-2.5-1.9-2.5-1.1 0-1.9 1-2 2.5h3.9zM314.8 49.7h1v1.2c.4-.7 1.1-1.3 2.2-1.3 1.5 0 2.4 1 2.4 2.7V57h-1v-4.5c0-1.3-.6-2-1.7-2s-1.8.8-1.8 2.1V57h-1v-7.3zM326.3 55.3v-4.7h-.9v-.9h.9v-2.1h1v2.1h1.9v.9h-1.9v4.5c0 .8.4 1.1 1.1 1.1.3 0 .6-.1.9-.2v.9c-.3.2-.7.3-1.1.3-1.2-.1-1.9-.6-1.9-1.9zM330.8 46.9h1v4c.4-.7 1.1-1.3 2.2-1.3 1.5 0 2.4 1 2.4 2.7V57h-1v-4.5c0-1.3-.6-2-1.7-2s-1.8.8-1.8 2.1V57h-1V46.9zM337.9 53.4c0-2.3 1.3-3.9 3-3.9 1.8 0 2.9 1.6 2.9 3.8v.4h-4.9c.1 1.6 1.1 2.5 2.3 2.5.8 0 1.4-.3 1.9-.8l.6.6c-.7.7-1.4 1.1-2.5 1.1-1.8.1-3.3-1.4-3.3-3.7zm5-.4c-.1-1.4-.7-2.5-1.9-2.5-1.1 0-1.9 1-2 2.5h3.9zM348.5 56.1l.5-.7c.7.6 1.4.9 2.1.9.8 0 1.4-.4 1.4-1.1 0-.6-.6-1-1.6-1.4-1.2-.5-2.1-1-2.1-2.1 0-1.2 1-2 2.3-2 .8 0 1.7.3 2.3.8l-.5.8c-.6-.4-1.2-.7-1.8-.7-.8 0-1.3.4-1.3 1s.6.9 1.6 1.3c1.2.5 2 1 2 2.1 0 1.3-1.1 2.1-2.4 2.1-.8 0-1.8-.3-2.5-1zM355.3 55.3v-4.7h-.9v-.9h.9v-2.1h1v2.1h1.9v.9h-1.9v4.5c0 .8.4 1.1 1.1 1.1.3 0 .6-.1.9-.2v.9c-.3.2-.7.3-1.1.3-1.1-.1-1.9-.6-1.9-1.9zM359.3 53.4c0-2.2 1.4-3.9 3.2-3.9s3.2 1.6 3.2 3.7v.1c0 2.1-1.4 3.8-3.3 3.8-1.8.1-3.1-1.6-3.1-3.7zm5.4 0c0-1.7-1-2.9-2.2-2.9-1.3 0-2.2 1.2-2.2 2.8v.1c0 1.6 1 2.9 2.2 2.9 1.3-.1 2.2-1.3 2.2-2.9zM367.4 49.7h1v1.4c.5-.8 1.2-1.5 2.4-1.5 1.5 0 2.9 1.3 2.9 3.7v.1c0 2.4-1.4 3.7-2.9 3.7-1.2 0-1.9-.7-2.4-1.5v3.5h-1v-9.4zm5.3 3.7v-.1c0-1.8-1-2.8-2.1-2.8s-2.2 1.1-2.2 2.8v.1c0 1.7 1.1 2.8 2.2 2.8s2.1-1 2.1-2.8zM378.7 53.4c0-2.2 1.4-3.9 3.2-3.9s3.2 1.6 3.2 3.7v.1c0 2.1-1.4 3.8-3.3 3.8s-3.1-1.6-3.1-3.7zm5.4 0c0-1.7-1-2.9-2.2-2.9-1.3 0-2.2 1.2-2.2 2.8v.1c0 1.6 1 2.9 2.2 2.9 1.3-.1 2.2-1.3 2.2-2.9zM386.8 49.7h1v1.6c.4-1 1.3-1.8 2.5-1.7v1.1h-.1c-1.4 0-2.5 1-2.5 2.8V57h-1v-7.3zM391.1 53.4v-.1c0-2.4 1.4-3.7 2.9-3.7 1.2 0 1.9.7 2.4 1.5v-4.2h1V57h-1v-1.4c-.5.8-1.2 1.5-2.4 1.5-1.5 0-2.9-1.2-2.9-3.7zm5.3 0v-.1c0-1.7-1.1-2.8-2.2-2.8-1.2 0-2.1 1-2.1 2.8v.1c0 1.8 1 2.8 2.1 2.8 1.2 0 2.2-1.1 2.2-2.8zM399.1 53.4c0-2.3 1.3-3.9 3-3.9 1.8 0 2.9 1.6 2.9 3.8v.4h-4.9c.1 1.6 1.1 2.5 2.3 2.5.8 0 1.4-.3 1.9-.8l.6.6c-.7.7-1.4 1.1-2.5 1.1-1.9.1-3.3-1.4-3.3-3.7zm4.9-.4c-.1-1.4-.7-2.5-1.9-2.5-1.1 0-1.9 1-2 2.5h3.9zM406.6 49.7h1v1.6c.4-1 1.3-1.8 2.5-1.7v1.1h-.1c-1.4 0-2.5 1-2.5 2.8V57h-1v-7.3zM415.2 47h1.1v1.2h-1.1V47zm.1 2.7h1V57h-1v-7.3zM417.8 56.1l.5-.7c.7.6 1.4.9 2.1.9.8 0 1.4-.4 1.4-1.1 0-.6-.6-1-1.6-1.4-1.2-.5-2.1-1-2.1-2.1 0-1.2 1-2 2.3-2 .8 0 1.7.3 2.3.8l-.5.8c-.6-.4-1.2-.7-1.8-.7-.8 0-1.3.4-1.3 1s.6.9 1.6 1.3c1.2.5 2 1 2 2.1 0 1.3-1.1 2.1-2.4 2.1-.8 0-1.8-.3-2.5-1zM428.4 55.3v-4.7h-.9v-.9h.9v-2.1h1v2.1h1.9v.9h-1.9v4.5c0 .8.4 1.1 1.1 1.1.3 0 .6-.1.9-.2v.9c-.3.2-.7.3-1.1.3-1.2-.1-1.9-.6-1.9-1.9zM432.9 49.7h1v1.6c.4-1 1.3-1.8 2.5-1.7v1.1h-.1c-1.4 0-2.5 1-2.5 2.8V57h-1v-7.3zM437.8 47h1.1v1.2h-1.1V47zm.1 2.7h1V57h-1v-7.3zM441 58.3l.4-.8c.7.4 1.5.7 2.4.7 1.4 0 2.2-.7 2.2-2.2v-1c-.5.8-1.2 1.5-2.4 1.5-1.5 0-2.9-1.2-2.9-3.4V53c0-2.2 1.4-3.4 2.9-3.4 1.2 0 1.9.7 2.4 1.4v-1.3h1V56c0 1-.3 1.7-.8 2.3-.6.6-1.4.8-2.4.8s-2-.2-2.8-.8zm5-5.3c0-1.6-1.1-2.6-2.2-2.6s-2.1.9-2.1 2.5.9 2.5 2.1 2.5c1.1.2 2.2-.8 2.2-2.4zM449 58.3l.4-.8c.7.4 1.5.7 2.4.7 1.4 0 2.2-.7 2.2-2.2v-1c-.5.8-1.2 1.5-2.4 1.5-1.5 0-2.9-1.2-2.9-3.4V53c0-2.2 1.4-3.4 2.9-3.4 1.2 0 1.9.7 2.4 1.4v-1.3h1V56c0 1-.3 1.7-.8 2.3-.6.6-1.4.8-2.4.8s-2-.2-2.8-.8zm5-5.3c0-1.6-1.1-2.6-2.2-2.6s-2.1.9-2.1 2.5.9 2.5 2.1 2.5c1.1.2 2.2-.8 2.2-2.4zM456.6 53.4c0-2.3 1.3-3.9 3-3.9 1.8 0 2.9 1.6 2.9 3.8v.4h-4.9c.1 1.6 1.1 2.5 2.3 2.5.8 0 1.4-.3 1.9-.8l.6.6c-.7.7-1.4 1.1-2.5 1.1-1.8.1-3.3-1.4-3.3-3.7zm5-.4c-.1-1.4-.7-2.5-1.9-2.5-1.1 0-1.9 1-2 2.5h3.9zM464.2 49.7h1v1.6c.4-1 1.3-1.8 2.5-1.7v1.1h-.1c-1.4 0-2.5 1-2.5 2.8V57h-1v-7.3zM468.4 53.4c0-2.3 1.3-3.9 3-3.9 1.8 0 2.9 1.6 2.9 3.8v.4h-4.9c.1 1.6 1.1 2.5 2.3 2.5.8 0 1.4-.3 1.9-.8l.6.6c-.7.7-1.4 1.1-2.5 1.1-1.8.1-3.3-1.4-3.3-3.7zm5-.4c-.1-1.4-.7-2.5-1.9-2.5-1.1 0-1.9 1-2 2.5h3.9zM475.6 53.4v-.1c0-2.4 1.4-3.7 2.9-3.7 1.2 0 1.9.7 2.4 1.5v-4.2h1V57h-1v-1.4c-.5.8-1.2 1.5-2.4 1.5-1.4 0-2.9-1.2-2.9-3.7zm5.4 0v-.1c0-1.7-1-2.8-2.2-2.8-1.2 0-2.1 1-2.1 2.8v.1c0 1.8 1 2.8 2.1 2.8s2.2-1.1 2.2-2.8zM483.9 55.6h1.3V57h-1.3v-1.4z"/></g><path fill="#305B6E" d="M441.8 293.6v3H87.5v151.7h-3v-12.4h-6.3v-3h6.3v-66.6h-6.3v-3h6.3v-66.6h-6.3v-3h6.3V227h-6.3v-3h6.3v-66.6h-6.3v-3h6.3V142h3v151.7h354.3z"/><path fill="#C74F4F" d="M450.3 273.1l1.3 2.3H322.3l-55.7 106H156.2l-27 27.7h-16.3l-20.6 27.5-.3-2.9 19.6-26.6h16.2l27.2-28h110l55.7-106h129.6zm29.8-14.1h-16.3l-8.1 14.1 8.1 14.1h16.3l8.1-14.1-8.1-14.1z"/><path fill="#FFD70D" d="M325.8 127H343v1.9h-17.2V127zm22.2 1.9h17.2V127H348v1.9zm22.3 0h17.2V127h-17.2v1.9zm22.2 0h17.2V127h-17.2v1.9zm22.2 0h17.2V127h-17.2v1.9zm22.2 0h17.2V127h-17.2v1.9zm22.2 0h17.2V127h-17.2v1.9zm39.5-1.9h-17.2v1.9h17.2V127zm22.2 0h-17.2v1.9h17.2V127zm22.2 0h-17.2v1.9H543V127zm-39.4 150.7h17.2v-1.9h-17.2v1.9zm22.2 0H543v-1.9h-17.2v1.9zm-17.2-98.9c0-3.9-3-5.7-6.4-6.1l6.1-7.7v-1.7H496v2.2h9.3l-6.1 7.7.3 1.5h.8c3.4 0 5.8 1.4 5.8 4.2v.1c0 2.7-2 4.4-4.4 4.4-2.2 0-3.8-1-5.1-2.5l-1.5 1.6c1.5 1.7 3.7 3 6.6 3 3.9-.1 6.9-2.7 6.9-6.7zm11.4-15.9c4.8 0 7.9 4.6 7.9 11.1v.3c0 6.6-3.1 11.2-7.9 11.2-4.9 0-7.9-4.6-7.9-11.1v-.2c-.1-6.7 3-11.3 7.9-11.3zm-.1 2.1c-3.3 0-5.5 3.7-5.5 9v.3c0 5.2 2.2 9 5.5 9s5.5-3.7 5.5-9v-.2c.1-5.3-2.2-9.1-5.5-9.1zm-15.7 30.8c0 2.5-1.9 3.8-4.3 3.8h-2.1v4.1h-1.3V192h3.5c2.5.1 4.2 1.5 4.2 3.8zm-1.3 0c0-1.7-1.1-2.6-2.9-2.6h-2.2v5.3h2.2c1.8 0 2.9-1 2.9-2.7zm3.4 8h1.3v-11.7h-1.3v11.7zm7.7-11.7c2.5 0 4.1 1.4 4.1 3.7 0 2.5-1.9 3.8-4.3 3.8h-2.1v4.1h-1.3V192h3.6zm-.1 1.1h-2.2v5.3h2.2c1.8 0 3-1.1 3-2.7-.1-1.7-1.2-2.6-3-2.6zm13.1 7.5c0-1.6-.9-2.5-3.2-3.4-2.2-.8-2.7-1.4-2.7-2.4s.9-1.8 2.2-1.8c1 0 1.9.4 2.8 1.1l.8-1c-1-.9-2.2-1.3-3.5-1.3-2.1 0-3.5 1.3-3.5 3.1 0 1.7 1 2.5 3.4 3.4 2.1.8 2.6 1.4 2.6 2.3 0 1.1-.9 2-2.3 2-1.3 0-2.3-.6-3.3-1.5l-.8 1c1.2 1.1 2.6 1.7 4.1 1.7 1.8 0 3.4-1.3 3.4-3.2zm17.5-60.4l1.4-1.4-4.9-4.9-4.9 4.9 1.4 1.4 2.5-2.5v129.6l-2.5-2.5-1.4 1.4 4.9 4.9 4.9-4.9-1.4-1.4-2.5 2.5V137.8l2.5 2.5z"/><g fill="#FFF"><path d="M40.9 152.3l-1.2.4-.2-1.1 1.8-.6h.9v7.8h-1.3v-6.5zM43.8 157.3h1.4v1.5h-1.4v-1.5zM46.2 154.9v-.1c0-2.3 1.1-3.9 2.9-3.9 1.8 0 2.9 1.6 2.9 3.9v.1c0 2.3-1.1 3.9-2.9 3.9s-2.9-1.5-2.9-3.9zm4.6 0c0-1.8-.7-2.9-1.6-2.9s-1.6 1-1.6 2.8v.1c0 1.7.7 2.8 1.6 2.8.9 0 1.6-1.1 1.6-2.8zM56.3 152.2h-3.4V151h4.7v1l-3 6.7h-1.4l3.1-6.5zM62.1 152.2h-3.4V151h4.7v1l-3 6.7H59l3.1-6.5zM64.2 157.9l.7-.9c.5.5 1 .7 1.6.7.8 0 1.4-.5 1.4-1.4 0-.8-.6-1.3-1.4-1.3-.5 0-.8.1-1.2.3l-.7-.5.2-3.7h4.1v1.2h-3l-.1 1.8c.3-.1.6-.2 1-.2 1.3 0 2.4.7 2.4 2.4 0 1.6-1.1 2.6-2.6 2.6-1-.1-1.8-.4-2.4-1z"/></g><g fill="#FFF"><path d="M40.9 221.9l-1.2.4-.2-1.1 1.8-.6h.9v7.8h-1.3v-6.5zM43.8 226.9h1.4v1.5h-1.4v-1.5zM46.2 224.6v-.1c0-2.3 1.1-3.9 2.9-3.9 1.8 0 2.9 1.6 2.9 3.9v.1c0 2.3-1.1 3.9-2.9 3.9s-2.9-1.6-2.9-3.9zm4.6 0c0-1.8-.7-2.9-1.6-2.9s-1.6 1-1.6 2.8v.1c0 1.7.7 2.8 1.6 2.8.9-.1 1.6-1.1 1.6-2.8zM56.3 221.8h-3.4v-1.2h4.7v1l-3 6.7h-1.4l3.1-6.5zM59.4 227.8c-.6-.6-.9-1.4-.9-3v-.1c0-2.6 1.1-4.2 3-4.2.8 0 1.4.3 2 .7l-.6 1c-.4-.3-.8-.5-1.4-.5-1.1 0-1.6 1.1-1.6 2.4.4-.4.9-.7 1.6-.7 1.3 0 2.3.8 2.3 2.4 0 1.6-1.1 2.6-2.6 2.6-.8.1-1.4-.2-1.8-.6zm3.1-1.9c0-.9-.5-1.4-1.3-1.4s-1.3.6-1.3 1.4c0 .8.5 1.4 1.4 1.4.7 0 1.2-.6 1.2-1.4zM64.8 224.6v-.1c0-2.3 1.1-3.9 2.9-3.9 1.8 0 2.9 1.6 2.9 3.9v.1c0 2.3-1.1 3.9-2.9 3.9s-2.9-1.6-2.9-3.9zm4.5 0c0-1.8-.7-2.9-1.6-2.9s-1.6 1-1.6 2.8v.1c0 1.7.7 2.8 1.6 2.8 1-.1 1.6-1.1 1.6-2.8z"/></g><g fill="#FFF"><path d="M40.9 361.2l-1.2.4-.2-1.1 1.8-.6h.9v7.8h-1.3v-6.5zM43.8 366.1h1.4v1.5h-1.4v-1.5zM46.2 363.8v-.1c0-2.3 1.1-3.9 2.9-3.9 1.8 0 2.9 1.6 2.9 3.9v.1c0 2.3-1.1 3.9-2.9 3.9s-2.9-1.5-2.9-3.9zm4.6 0c0-1.8-.7-2.9-1.6-2.9s-1.6 1-1.6 2.8v.1c0 1.7.7 2.8 1.6 2.8.9 0 1.6-1.1 1.6-2.8zM56.3 361.1h-3.4v-1.2h4.7v1l-3 6.7h-1.4l3.1-6.5zM58.3 366.7l.8-.9c.4.5.9.8 1.7.8.7 0 1.3-.5 1.3-1.2 0-.8-.7-1.2-1.7-1.2H60l-.2-.8 1.9-2.2h-2.9v-1.1h4.5v1l-1.9 2.2c1.1.2 2 .8 2 2.1 0 1.4-1 2.4-2.5 2.4-1.2-.1-2-.5-2.6-1.1zM64.4 363.8v-.1c0-2.3 1.1-3.9 2.9-3.9 1.8 0 2.9 1.6 2.9 3.9v.1c0 2.3-1.1 3.9-2.9 3.9s-2.9-1.5-2.9-3.9zm4.5 0c0-1.8-.7-2.9-1.6-2.9s-1.6 1-1.6 2.8v.1c0 1.7.7 2.8 1.6 2.8 1 0 1.6-1.1 1.6-2.8z"/></g><g fill="#FFF"><path d="M40.9 430.8l-1.2.4-.2-1.1 1.8-.6h.9v7.8h-1.3v-6.5zM43.8 435.8h1.4v1.5h-1.4v-1.5zM46.2 433.5v-.1c0-2.3 1.1-3.9 2.9-3.9 1.8 0 2.9 1.6 2.9 3.9v.1c0 2.3-1.1 3.9-2.9 3.9s-2.9-1.6-2.9-3.9zm4.6-.1c0-1.8-.7-2.9-1.6-2.9s-1.6 1-1.6 2.8v.1c0 1.7.7 2.8 1.6 2.8.9 0 1.6-1 1.6-2.8zM56.3 430.7h-3.4v-1.2h4.7v1l-3 6.7h-1.4l3.1-6.5zM59.9 430.8l-1.2.4-.2-1.1 1.8-.6h.9v7.8h-1.3v-6.5zM62.5 436.4l.7-.9c.5.5 1 .7 1.6.7.8 0 1.4-.5 1.4-1.4 0-.8-.6-1.3-1.4-1.3-.5 0-.8.1-1.2.3l-.7-.5.2-3.7h4.1v1.2h-3l-.1 1.8c.3-.1.6-.2 1-.2 1.3 0 2.4.7 2.4 2.4 0 1.6-1.1 2.6-2.6 2.6-1 0-1.8-.4-2.4-1z"/></g><g fill="#FFD70D"><path d="M40.9 291.6l-1.2.4-.2-1.1 1.8-.6h.9v7.8h-1.3v-6.5zM43.8 296.5h1.4v1.5h-1.4v-1.5zM46.2 294.2v-.1c0-2.3 1.1-3.9 2.9-3.9 1.8 0 2.9 1.6 2.9 3.9v.1c0 2.3-1.1 3.9-2.9 3.9s-2.9-1.6-2.9-3.9zm4.6 0c0-1.8-.7-2.9-1.6-2.9s-1.6 1-1.6 2.8v.1c0 1.7.7 2.8 1.6 2.8.9-.1 1.6-1.1 1.6-2.8zM56.3 291.4h-3.4v-1.2h4.7v1l-3 6.7h-1.4l3.1-6.5zM61.3 296.3h-3.4l-.2-.9 3.7-5.1h1.1v5h1v1.1h-1v1.7h-1.2v-1.8zm0-1.1v-3.1l-2.2 3.1h2.2zM64.3 297.1l.7-.9c.5.5 1 .7 1.6.7.8 0 1.4-.5 1.4-1.4 0-.8-.6-1.3-1.4-1.3-.5 0-.8.1-1.2.3l-.7-.5.2-3.7H69v1.2h-3l-.1 1.8c.3-.1.6-.2 1-.2 1.3 0 2.4.7 2.4 2.4 0 1.6-1.1 2.6-2.6 2.6-1 0-1.8-.4-2.4-1z"/></g><g fill="#FFD70D"><path d="M41 270.7h4.4c1.3 0 2.4.4 3.1 1 .5.5.8 1.2.8 2v.1c0 1.4-.8 2.1-1.6 2.6 1.3.5 2.1 1.3 2.1 2.8v.1c0 2.1-1.7 3.3-4.3 3.3H41v-11.9zm5.9 3.5c0-.9-.6-1.3-1.7-1.3h-1.8v2.7h1.7c1.1 0 1.8-.5 1.8-1.4zm-1.4 3.4h-2.2v2.8h2.2c1.1 0 1.8-.5 1.8-1.4.1-.8-.6-1.4-1.8-1.4zM51.4 278v-7.3h2.5v7.3c0 1.7.8 2.5 2.1 2.5s2.1-.8 2.1-2.5v-7.3h2.4v7.2c0 3.3-1.8 4.9-4.6 4.9-2.7 0-4.5-1.6-4.5-4.8zM65.5 277.9l-3.9-7.2h2.8l2.3 4.7 2.4-4.7h2.7l-3.9 7.2v4.7h-2.5v-4.7z"/></g><path fill="#FFF" d="M464.3 254.3l-51.4-75.4-6.7 5.1-27.9-27.9-13.9 13.9-13.9-13.9-7 7-21.8-20.2-81.2 130-9.2-6.9-21.4 35.7-14.6-21.9-6.7 6.7-34.5-41.4-27.6 34.5-13.5-13.5-17 27.5h-7.6l23.2-38.9 14.3 14.3 28.1-35.1 35.1 42.1 7.3-7.3 13.2 19.8 20.4-33.9 7.8 7.8 82-133.1 23.9 23.9 7-7 13.9 13.9 13.9-13.9 27.9 27.9 7.3-7.3 59.2 87.4h-8.6z"/></svg>