<?xml version="1.0" encoding="utf-8"?>
<!-- Generator: Adobe Illustrator 24.1.0, SVG Export Plug-In . SVG Version: 6.00 Build 0)  -->
<svg version="1.1" id="Layer_1" xmlns="http://www.w3.org/2000/svg" xmlns:xlink="http://www.w3.org/1999/xlink" x="0px" y="0px"
	 viewBox="0 0 262 262" style="enable-background:new 0 0 262 262;" xml:space="preserve">
<style type="text/css">
	.st0{fill:none;stroke:url(#SVGID_1_);stroke-width:2;stroke-linecap:round;stroke-linejoin:round;stroke-miterlimit:10;}
	.st1{fill:none;stroke:url(#SVGID_2_);stroke-width:2;stroke-linecap:round;stroke-linejoin:round;stroke-miterlimit:10;}
	.st2{fill:none;stroke:url(#SVGID_3_);stroke-width:2;stroke-linecap:round;stroke-linejoin:round;stroke-miterlimit:10;}
	.st3{fill:none;stroke:url(#SVGID_4_);stroke-width:2;stroke-linecap:round;stroke-linejoin:round;stroke-miterlimit:10;}
	.st4{fill:none;stroke:url(#SVGID_5_);stroke-width:2;stroke-linecap:round;stroke-linejoin:round;stroke-miterlimit:10;}
	.st5{fill:none;stroke:url(#SVGID_6_);stroke-width:2;stroke-linecap:round;stroke-linejoin:round;stroke-miterlimit:10;}
	.st6{fill:none;stroke:url(#SVGID_7_);stroke-width:2;stroke-linecap:round;stroke-linejoin:round;stroke-miterlimit:10;}
	.st7{fill:none;stroke:url(#SVGID_8_);stroke-width:2;stroke-linecap:round;stroke-linejoin:round;stroke-miterlimit:10;}
	.st8{fill:none;stroke:url(#SVGID_9_);stroke-width:2;stroke-linecap:round;stroke-linejoin:round;stroke-miterlimit:10;}
	.st9{fill:none;stroke:url(#SVGID_10_);stroke-width:2;stroke-linecap:round;stroke-linejoin:round;stroke-miterlimit:10;}
</style>
<g>
	
		<linearGradient id="SVGID_1_" gradientUnits="userSpaceOnUse" x1="29.2813" y1="131.9606" x2="232.7187" y2="131.9606" gradientTransform="matrix(1 0 0 -1 0 262.9608)">
		<stop  offset="0" style="stop-color:#81CF57"/>
		<stop  offset="1" style="stop-color:#80E491"/>
	</linearGradient>
	<path class="st0" d="M30.3,195.7V66.3c0-10.1,8.2-18.4,18.4-18.4h164.7c10.1,0,18.4,8.2,18.4,18.4v129.4c0,10.1-8.2,18.4-18.4,18.4
		H48.7C38.5,214.1,30.3,205.9,30.3,195.7z"/>
	
		<linearGradient id="SVGID_2_" gradientUnits="userSpaceOnUse" x1="50.409" y1="131.2791" x2="107.3151" y2="131.2791" gradientTransform="matrix(1 0 0 -1 0 262.9608)">
		<stop  offset="0" style="stop-color:#81CF57"/>
		<stop  offset="1" style="stop-color:#80E491"/>
	</linearGradient>
	<rect x="51.4" y="93.7" class="st1" width="54.9" height="75.9"/>
	
		<linearGradient id="SVGID_3_" gradientUnits="userSpaceOnUse" x1="117.4615" y1="109.8199" x2="135.9305" y2="109.8199" gradientTransform="matrix(1 0 0 -1 0 262.9608)">
		<stop  offset="0" style="stop-color:#81CF57"/>
		<stop  offset="1" style="stop-color:#80E491"/>
	</linearGradient>
	<rect x="118.5" y="137.2" class="st2" width="16.5" height="31.8"/>
	
		<linearGradient id="SVGID_4_" gradientUnits="userSpaceOnUse" x1="142.165" y1="124.3983" x2="160.6341" y2="124.3983" gradientTransform="matrix(1 0 0 -1 0 262.9608)">
		<stop  offset="0" style="stop-color:#81CF57"/>
		<stop  offset="1" style="stop-color:#80E491"/>
	</linearGradient>
	<rect x="143.2" y="108.1" class="st3" width="16.5" height="61"/>
	
		<linearGradient id="SVGID_5_" gradientUnits="userSpaceOnUse" x1="166.8779" y1="121.7468" x2="185.3469" y2="121.7468" gradientTransform="matrix(1 0 0 -1 0 262.9608)">
		<stop  offset="0" style="stop-color:#81CF57"/>
		<stop  offset="1" style="stop-color:#80E491"/>
	</linearGradient>
	<rect x="167.9" y="113.4" class="st4" width="16.5" height="55.7"/>
	
		<linearGradient id="SVGID_6_" gradientUnits="userSpaceOnUse" x1="191.5815" y1="131.0317" x2="210.0505" y2="131.0317" gradientTransform="matrix(1 0 0 -1 0 262.9608)">
		<stop  offset="0" style="stop-color:#81CF57"/>
		<stop  offset="1" style="stop-color:#80E491"/>
	</linearGradient>
	<rect x="192.6" y="94.8" class="st5" width="16.5" height="74.2"/>
	
		<linearGradient id="SVGID_7_" gradientUnits="userSpaceOnUse" x1="58.6425" y1="117.5502" x2="71.3055" y2="117.5502" gradientTransform="matrix(1 0 0 -1 0 262.9608)">
		<stop  offset="0" style="stop-color:#81CF57"/>
		<stop  offset="1" style="stop-color:#80E491"/>
	</linearGradient>
	<path class="st6" d="M59.7,157.4c0,0-0.7-13,1.8-18c2.5-4.9,8.8-6,8.8-6"/>
	
		<linearGradient id="SVGID_8_" gradientUnits="userSpaceOnUse" x1="84.8502" y1="117.6996" x2="97.3429" y2="117.6996" gradientTransform="matrix(1 0 0 -1 0 262.9608)">
		<stop  offset="0" style="stop-color:#81CF57"/>
		<stop  offset="1" style="stop-color:#80E491"/>
	</linearGradient>
	<path class="st7" d="M85.9,133.4c5.3,1.2,9.8,6.5,10.2,11.7c0.6,6.8,0.2,12,0.2,12"/>
	
		<linearGradient id="SVGID_9_" gradientUnits="userSpaceOnUse" x1="66.626" y1="137.5705" x2="90.5204" y2="137.5705" gradientTransform="matrix(1 0 0 -1 0 262.9608)">
		<stop  offset="0" style="stop-color:#81CF57"/>
		<stop  offset="1" style="stop-color:#80E491"/>
	</linearGradient>
	<path class="st8" d="M89.5,115.4c0,4.3,0,10.7,0,11.5c0,2.8-3.4,9.1-10.6,9.1c-7.2,0-11.3-5.2-11.3-9v-8.1c1.2-1.6,4.7-5.3,8.9-3.8
		C80.8,116.6,86.7,117.8,89.5,115.4z"/>
	
		<linearGradient id="SVGID_10_" gradientUnits="userSpaceOnUse" x1="65.3552" y1="151.4592" x2="91.7754" y2="151.4592" gradientTransform="matrix(1 0 0 -1 0 262.9608)">
		<stop  offset="0" style="stop-color:#81CF57"/>
		<stop  offset="1" style="stop-color:#80E491"/>
	</linearGradient>
	<path class="st9" d="M78,103.8c10.3,0,13.8,4.6,12.6,9.7c-1.1,4.6-10.7,3.5-15.5,1.9s-8.4,3.8-8.4,3.8S63.5,103.8,78,103.8z"/>
</g>
</svg>
